ISO-10303-21;
HEADER;
/* Generated by software containing ST-Developer
 * from STEP Tools, Inc. (www.steptools.com) 
 */

FILE_DESCRIPTION(
/* description */ ('KiCad electronic assembly'),
/* implementation_level */ '2;1');

FILE_NAME(
/* name */ 'Keeb top fram-right(step).step',
/* time_stamp */ '2026-09-05T16:28:47+05:30',
/* author */ (''),
/* organization */ (''),
/* preprocessor_version */ 'ST-DEVELOPER v20.1',
/* originating_system */ 'Autodesk Translation Framework v15.8.0.0',
/* authorisation */ '');

FILE_SCHEMA (('AUTOMOTIVE_DESIGN { 1 0 10303 214 3 1 1 }'));
ENDSEC;

DATA;
#10=MECHANICAL_DESIGN_GEOMETRIC_PRESENTATION_REPRESENTATION('',(#25),#1323);
#11=ITEM_DEFINED_TRANSFORMATION($,$,#769,#853);
#12=ITEM_DEFINED_TRANSFORMATION($,$,#770,#854);
#13=ITEM_DEFINED_TRANSFORMATION($,$,#771,#855);
#14=(
REPRESENTATION_RELATIONSHIP($,$,#1340,#1339)
REPRESENTATION_RELATIONSHIP_WITH_TRANSFORMATION(#11)
SHAPE_REPRESENTATION_RELATIONSHIP()
);
#15=(
REPRESENTATION_RELATIONSHIP($,$,#1341,#1339)
REPRESENTATION_RELATIONSHIP_WITH_TRANSFORMATION(#12)
SHAPE_REPRESENTATION_RELATIONSHIP()
);
#16=(
REPRESENTATION_RELATIONSHIP($,$,#1342,#1339)
REPRESENTATION_RELATIONSHIP_WITH_TRANSFORMATION(#13)
SHAPE_REPRESENTATION_RELATIONSHIP()
);
#17=CONTEXT_DEPENDENT_SHAPE_REPRESENTATION(#14,#1336);
#18=CONTEXT_DEPENDENT_SHAPE_REPRESENTATION(#15,#1337);
#19=CONTEXT_DEPENDENT_SHAPE_REPRESENTATION(#16,#1338);
#20=NEXT_ASSEMBLY_USAGE_OCCURRENCE('My-keebs_PCB:1','My-keebs_PCB:1',
'My-keebs_PCB:1',#1344,#1345,'My-keebs_PCB:1');
#21=NEXT_ASSEMBLY_USAGE_OCCURRENCE('Component39:1','Component39:1',
'Component39:1',#1344,#1346,'Component39:1');
#22=NEXT_ASSEMBLY_USAGE_OCCURRENCE('Component40:1','Component40:1',
'Component40:1',#1344,#1347,'Component40:1');
#23=SHAPE_REPRESENTATION_RELATIONSHIP('SRR','None',#1342,#24);
#24=ADVANCED_BREP_SHAPE_REPRESENTATION('',(#26),#1322);
#25=STYLED_ITEM('',(#1364),#26);
#26=MANIFOLD_SOLID_BREP('Body1',#744);
#27=FACE_BOUND('',#136,.T.);
#28=FACE_BOUND('',#137,.T.);
#29=SPHERICAL_SURFACE('',#826,1.);
#30=SPHERICAL_SURFACE('',#829,1.);
#31=TOROIDAL_SURFACE('',#806,2.00000000000003,1.00000000000001);
#32=TOROIDAL_SURFACE('',#808,2.,1.);
#33=TOROIDAL_SURFACE('',#811,2.99999999999993,2.);
#34=TOROIDAL_SURFACE('',#818,2.99999999999996,2.);
#35=PLANE('',#775);
#36=PLANE('',#779);
#37=PLANE('',#780);
#38=PLANE('',#781);
#39=PLANE('',#782);
#40=PLANE('',#783);
#41=PLANE('',#787);
#42=PLANE('',#791);
#43=PLANE('',#792);
#44=PLANE('',#793);
#45=PLANE('',#822);
#46=PLANE('',#825);
#47=PLANE('',#835);
#48=PLANE('',#838);
#49=PLANE('',#843);
#50=PLANE('',#844);
#51=PLANE('',#845);
#52=PLANE('',#848);
#53=PLANE('',#851);
#54=PLANE('',#852);
#55=FACE_OUTER_BOUND('',#98,.T.);
#56=FACE_OUTER_BOUND('',#99,.T.);
#57=FACE_OUTER_BOUND('',#100,.T.);
#58=FACE_OUTER_BOUND('',#101,.T.);
#59=FACE_OUTER_BOUND('',#102,.T.);
#60=FACE_OUTER_BOUND('',#103,.T.);
#61=FACE_OUTER_BOUND('',#104,.T.);
#62=FACE_OUTER_BOUND('',#105,.T.);
#63=FACE_OUTER_BOUND('',#106,.T.);
#64=FACE_OUTER_BOUND('',#107,.T.);
#65=FACE_OUTER_BOUND('',#108,.T.);
#66=FACE_OUTER_BOUND('',#109,.T.);
#67=FACE_OUTER_BOUND('',#110,.T.);
#68=FACE_OUTER_BOUND('',#111,.T.);
#69=FACE_OUTER_BOUND('',#112,.T.);
#70=FACE_OUTER_BOUND('',#113,.T.);
#71=FACE_OUTER_BOUND('',#114,.T.);
#72=FACE_OUTER_BOUND('',#115,.T.);
#73=FACE_OUTER_BOUND('',#116,.T.);
#74=FACE_OUTER_BOUND('',#117,.T.);
#75=FACE_OUTER_BOUND('',#118,.T.);
#76=FACE_OUTER_BOUND('',#119,.T.);
#77=FACE_OUTER_BOUND('',#120,.T.);
#78=FACE_OUTER_BOUND('',#121,.T.);
#79=FACE_OUTER_BOUND('',#122,.T.);
#80=FACE_OUTER_BOUND('',#123,.T.);
#81=FACE_OUTER_BOUND('',#124,.T.);
#82=FACE_OUTER_BOUND('',#125,.T.);
#83=FACE_OUTER_BOUND('',#126,.T.);
#84=FACE_OUTER_BOUND('',#127,.T.);
#85=FACE_OUTER_BOUND('',#128,.T.);
#86=FACE_OUTER_BOUND('',#129,.T.);
#87=FACE_OUTER_BOUND('',#130,.T.);
#88=FACE_OUTER_BOUND('',#131,.T.);
#89=FACE_OUTER_BOUND('',#132,.T.);
#90=FACE_OUTER_BOUND('',#133,.T.);
#91=FACE_OUTER_BOUND('',#134,.T.);
#92=FACE_OUTER_BOUND('',#135,.T.);
#93=FACE_OUTER_BOUND('',#138,.T.);
#94=FACE_OUTER_BOUND('',#139,.T.);
#95=FACE_OUTER_BOUND('',#140,.T.);
#96=FACE_OUTER_BOUND('',#141,.T.);
#97=FACE_OUTER_BOUND('',#142,.T.);
#98=EDGE_LOOP('',(#478,#479,#480,#481));
#99=EDGE_LOOP('',(#482));
#100=EDGE_LOOP('',(#483,#484,#485,#486));
#101=EDGE_LOOP('',(#487));
#102=EDGE_LOOP('',(#488,#489,#490,#491));
#103=EDGE_LOOP('',(#492,#493,#494,#495));
#104=EDGE_LOOP('',(#496,#497,#498,#499));
#105=EDGE_LOOP('',(#500,#501,#502,#503));
#106=EDGE_LOOP('',(#504,#505,#506,#507));
#107=EDGE_LOOP('',(#508,#509,#510,#511));
#108=EDGE_LOOP('',(#512,#513,#514,#515));
#109=EDGE_LOOP('',(#516,#517,#518,#519));
#110=EDGE_LOOP('',(#520,#521,#522,#523,#524,#525,#526,#527,#528,#529));
#111=EDGE_LOOP('',(#530,#531,#532,#533));
#112=EDGE_LOOP('',(#534,#535,#536,#537));
#113=EDGE_LOOP('',(#538,#539,#540,#541));
#114=EDGE_LOOP('',(#542,#543,#544,#545));
#115=EDGE_LOOP('',(#546,#547,#548,#549));
#116=EDGE_LOOP('',(#550,#551,#552,#553));
#117=EDGE_LOOP('',(#554,#555,#556,#557));
#118=EDGE_LOOP('',(#558,#559,#560,#561));
#119=EDGE_LOOP('',(#562,#563,#564,#565));
#120=EDGE_LOOP('',(#566,#567,#568,#569));
#121=EDGE_LOOP('',(#570,#571,#572,#573));
#122=EDGE_LOOP('',(#574,#575,#576,#577));
#123=EDGE_LOOP('',(#578,#579,#580,#581));
#124=EDGE_LOOP('',(#582,#583,#584));
#125=EDGE_LOOP('',(#585,#586,#587));
#126=EDGE_LOOP('',(#588,#589,#590,#591));
#127=EDGE_LOOP('',(#592,#593,#594,#595));
#128=EDGE_LOOP('',(#596,#597,#598,#599));
#129=EDGE_LOOP('',(#600,#601,#602,#603));
#130=EDGE_LOOP('',(#604,#605,#606,#607));
#131=EDGE_LOOP('',(#608,#609,#610,#611));
#132=EDGE_LOOP('',(#612,#613,#614,#615));
#133=EDGE_LOOP('',(#616,#617,#618,#619,#620,#621,#622,#623,#624,#625,#626,
#627));
#134=EDGE_LOOP('',(#628,#629,#630,#631,#632,#633,#634,#635,#636,#637));
#135=EDGE_LOOP('',(#638,#639,#640,#641,#642,#643,#644,#645,#646,#647,#648,
#649,#650,#651,#652,#653,#654,#655));
#136=EDGE_LOOP('',(#656));
#137=EDGE_LOOP('',(#657));
#138=EDGE_LOOP('',(#658,#659,#660,#661));
#139=EDGE_LOOP('',(#662,#663,#664,#665));
#140=EDGE_LOOP('',(#666,#667,#668,#669));
#141=EDGE_LOOP('',(#670,#671,#672,#673,#674,#675,#676));
#142=EDGE_LOOP('',(#677,#678,#679,#680,#681,#682,#683));
#143=LINE('',#1105,#208);
#144=LINE('',#1112,#209);
#145=LINE('',#1118,#210);
#146=LINE('',#1120,#211);
#147=LINE('',#1122,#212);
#148=LINE('',#1123,#213);
#149=LINE('',#1126,#214);
#150=LINE('',#1128,#215);
#151=LINE('',#1129,#216);
#152=LINE('',#1132,#217);
#153=LINE('',#1134,#218);
#154=LINE('',#1135,#219);
#155=LINE('',#1137,#220);
#156=LINE('',#1143,#221);
#157=LINE('',#1146,#222);
#158=LINE('',#1149,#223);
#159=LINE('',#1151,#224);
#160=LINE('',#1152,#225);
#161=LINE('',#1158,#226);
#162=LINE('',#1162,#227);
#163=LINE('',#1163,#228);
#164=LINE('',#1164,#229);
#165=LINE('',#1166,#230);
#166=LINE('',#1168,#231);
#167=LINE('',#1169,#232);
#168=LINE('',#1173,#233);
#169=LINE('',#1175,#234);
#170=LINE('',#1177,#235);
#171=LINE('',#1178,#236);
#172=LINE('',#1184,#237);
#173=LINE('',#1187,#238);
#174=LINE('',#1193,#239);
#175=LINE('',#1196,#240);
#176=LINE('',#1201,#241);
#177=LINE('',#1207,#242);
#178=LINE('',#1224,#243);
#179=LINE('',#1227,#244);
#180=LINE('',#1236,#245);
#181=LINE('',#1237,#246);
#182=LINE('',#1241,#247);
#183=LINE('',#1244,#248);
#184=LINE('',#1245,#249);
#185=LINE('',#1255,#250);
#186=LINE('',#1259,#251);
#187=LINE('',#1262,#252);
#188=LINE('',#1263,#253);
#189=LINE('',#1268,#254);
#190=LINE('',#1269,#255);
#191=LINE('',#1272,#256);
#192=LINE('',#1273,#257);
#193=LINE('',#1277,#258);
#194=LINE('',#1282,#259);
#195=LINE('',#1283,#260);
#196=LINE('',#1286,#261);
#197=LINE('',#1287,#262);
#198=LINE('',#1288,#263);
#199=LINE('',#1291,#264);
#200=LINE('',#1292,#265);
#201=LINE('',#1293,#266);
#202=LINE('',#1296,#267);
#203=LINE('',#1298,#268);
#204=LINE('',#1299,#269);
#205=LINE('',#1300,#270);
#206=LINE('',#1305,#271);
#207=LINE('',#1306,#272);
#208=VECTOR('',#868,1.49999999999999);
#209=VECTOR('',#877,1.49999999999999);
#210=VECTOR('',#884,10.);
#211=VECTOR('',#885,10.);
#212=VECTOR('',#886,10.);
#213=VECTOR('',#887,10.);
#214=VECTOR('',#890,10.);
#215=VECTOR('',#891,10.);
#216=VECTOR('',#892,10.);
#217=VECTOR('',#895,10.);
#218=VECTOR('',#896,10.);
#219=VECTOR('',#897,10.);
#220=VECTOR('',#900,10.);
#221=VECTOR('',#905,10.);
#222=VECTOR('',#908,10.);
#223=VECTOR('',#911,10.);
#224=VECTOR('',#912,10.);
#225=VECTOR('',#913,10.);
#226=VECTOR('',#920,10.);
#227=VECTOR('',#923,10.);
#228=VECTOR('',#924,10.);
#229=VECTOR('',#925,10.);
#230=VECTOR('',#928,10.);
#231=VECTOR('',#929,10.);
#232=VECTOR('',#930,10.);
#233=VECTOR('',#933,10.);
#234=VECTOR('',#934,10.);
#235=VECTOR('',#935,10.);
#236=VECTOR('',#936,10.);
#237=VECTOR('',#941,10.);
#238=VECTOR('',#944,10.);
#239=VECTOR('',#949,10.);
#240=VECTOR('',#952,10.);
#241=VECTOR('',#957,10.);
#242=VECTOR('',#966,10.);
#243=VECTOR('',#989,10.);
#244=VECTOR('',#992,10.);
#245=VECTOR('',#1003,10.);
#246=VECTOR('',#1004,10.);
#247=VECTOR('',#1009,10.);
#248=VECTOR('',#1012,10.);
#249=VECTOR('',#1013,10.);
#250=VECTOR('',#1028,10.);
#251=VECTOR('',#1033,10.);
#252=VECTOR('',#1036,10.);
#253=VECTOR('',#1037,10.);
#254=VECTOR('',#1042,10.);
#255=VECTOR('',#1043,10.);
#256=VECTOR('',#1046,10.);
#257=VECTOR('',#1047,10.);
#258=VECTOR('',#1052,10.);
#259=VECTOR('',#1057,10.);
#260=VECTOR('',#1058,10.);
#261=VECTOR('',#1061,10.);
#262=VECTOR('',#1062,10.);
#263=VECTOR('',#1063,10.);
#264=VECTOR('',#1066,10.);
#265=VECTOR('',#1067,10.);
#266=VECTOR('',#1068,10.);
#267=VECTOR('',#1071,10.);
#268=VECTOR('',#1072,10.);
#269=VECTOR('',#1073,10.);
#270=VECTOR('',#1074,10.);
#271=VECTOR('',#1081,10.);
#272=VECTOR('',#1082,10.);
#273=CIRCLE('',#773,1.49999999999999);
#274=CIRCLE('',#774,1.49999999999999);
#275=CIRCLE('',#777,1.49999999999999);
#276=CIRCLE('',#778,1.49999999999999);
#277=CIRCLE('',#785,0.824999999999997);
#278=CIRCLE('',#786,0.824999999999997);
#279=CIRCLE('',#789,0.825000000000031);
#280=CIRCLE('',#790,0.825000000000031);
#281=CIRCLE('',#795,1.);
#282=CIRCLE('',#796,1.);
#283=CIRCLE('',#798,1.00000000000001);
#284=CIRCLE('',#799,1.);
#285=CIRCLE('',#801,1.);
#286=CIRCLE('',#802,1.);
#287=CIRCLE('',#804,0.999999999999985);
#288=CIRCLE('',#805,0.999999999999996);
#289=CIRCLE('',#807,1.99999999999999);
#290=CIRCLE('',#809,1.00000000000001);
#291=CIRCLE('',#810,2.00000000000003);
#292=CIRCLE('',#812,2.);
#293=CIRCLE('',#813,2.99999999999993);
#294=CIRCLE('',#814,2.00000000000003);
#295=CIRCLE('',#815,4.99999999999993);
#296=CIRCLE('',#817,2.00000000000003);
#297=CIRCLE('',#819,2.99999999999996);
#298=CIRCLE('',#820,1.99999999999999);
#299=CIRCLE('',#821,4.99999999999996);
#300=CIRCLE('',#824,0.999999999999995);
#301=CIRCLE('',#827,0.999999999999996);
#302=CIRCLE('',#828,1.);
#303=CIRCLE('',#830,0.999999999999979);
#304=CIRCLE('',#831,1.);
#305=CIRCLE('',#834,1.);
#306=CIRCLE('',#837,4.99999999999993);
#307=CIRCLE('',#840,4.99999999999996);
#308=CIRCLE('',#842,2.);
#309=CIRCLE('',#847,1.);
#310=CIRCLE('',#850,2.);
#311=VERTEX_POINT('',#1102);
#312=VERTEX_POINT('',#1104);
#313=VERTEX_POINT('',#1109);
#314=VERTEX_POINT('',#1111);
#315=VERTEX_POINT('',#1116);
#316=VERTEX_POINT('',#1117);
#317=VERTEX_POINT('',#1119);
#318=VERTEX_POINT('',#1121);
#319=VERTEX_POINT('',#1125);
#320=VERTEX_POINT('',#1127);
#321=VERTEX_POINT('',#1131);
#322=VERTEX_POINT('',#1133);
#323=VERTEX_POINT('',#1139);
#324=VERTEX_POINT('',#1140);
#325=VERTEX_POINT('',#1142);
#326=VERTEX_POINT('',#1144);
#327=VERTEX_POINT('',#1148);
#328=VERTEX_POINT('',#1150);
#329=VERTEX_POINT('',#1154);
#330=VERTEX_POINT('',#1156);
#331=VERTEX_POINT('',#1160);
#332=VERTEX_POINT('',#1161);
#333=VERTEX_POINT('',#1167);
#334=VERTEX_POINT('',#1171);
#335=VERTEX_POINT('',#1172);
#336=VERTEX_POINT('',#1174);
#337=VERTEX_POINT('',#1176);
#338=VERTEX_POINT('',#1180);
#339=VERTEX_POINT('',#1181);
#340=VERTEX_POINT('',#1183);
#341=VERTEX_POINT('',#1185);
#342=VERTEX_POINT('',#1189);
#343=VERTEX_POINT('',#1190);
#344=VERTEX_POINT('',#1192);
#345=VERTEX_POINT('',#1194);
#346=VERTEX_POINT('',#1198);
#347=VERTEX_POINT('',#1200);
#348=VERTEX_POINT('',#1204);
#349=VERTEX_POINT('',#1214);
#350=VERTEX_POINT('',#1215);
#351=VERTEX_POINT('',#1217);
#352=VERTEX_POINT('',#1219);
#353=VERTEX_POINT('',#1223);
#354=VERTEX_POINT('',#1225);
#355=VERTEX_POINT('',#1229);
#356=VERTEX_POINT('',#1231);
#357=VERTEX_POINT('',#1235);
#358=VERTEX_POINT('',#1239);
#359=VERTEX_POINT('',#1243);
#360=VERTEX_POINT('',#1247);
#361=VERTEX_POINT('',#1251);
#362=VERTEX_POINT('',#1257);
#363=VERTEX_POINT('',#1261);
#364=VERTEX_POINT('',#1265);
#365=VERTEX_POINT('',#1266);
#366=VERTEX_POINT('',#1271);
#367=VERTEX_POINT('',#1275);
#368=VERTEX_POINT('',#1279);
#369=VERTEX_POINT('',#1280);
#370=VERTEX_POINT('',#1285);
#371=VERTEX_POINT('',#1290);
#372=VERTEX_POINT('',#1295);
#373=VERTEX_POINT('',#1297);
#374=VERTEX_POINT('',#1304);
#375=EDGE_CURVE('',#311,#311,#273,.T.);
#376=EDGE_CURVE('',#311,#312,#143,.T.);
#377=EDGE_CURVE('',#312,#312,#274,.T.);
#378=EDGE_CURVE('',#313,#313,#275,.T.);
#379=EDGE_CURVE('',#313,#314,#144,.T.);
#380=EDGE_CURVE('',#314,#314,#276,.T.);
#381=EDGE_CURVE('',#315,#316,#145,.T.);
#382=EDGE_CURVE('',#316,#317,#146,.T.);
#383=EDGE_CURVE('',#317,#318,#147,.T.);
#384=EDGE_CURVE('',#318,#315,#148,.T.);
#385=EDGE_CURVE('',#316,#319,#149,.T.);
#386=EDGE_CURVE('',#319,#320,#150,.T.);
#387=EDGE_CURVE('',#320,#317,#151,.T.);
#388=EDGE_CURVE('',#319,#321,#152,.T.);
#389=EDGE_CURVE('',#321,#322,#153,.T.);
#390=EDGE_CURVE('',#322,#320,#154,.T.);
#391=EDGE_CURVE('',#318,#322,#155,.T.);
#392=EDGE_CURVE('',#323,#324,#277,.T.);
#393=EDGE_CURVE('',#323,#325,#156,.T.);
#394=EDGE_CURVE('',#326,#325,#278,.T.);
#395=EDGE_CURVE('',#324,#326,#157,.T.);
#396=EDGE_CURVE('',#324,#327,#158,.T.);
#397=EDGE_CURVE('',#328,#326,#159,.T.);
#398=EDGE_CURVE('',#327,#328,#160,.T.);
#399=EDGE_CURVE('',#327,#329,#279,.T.);
#400=EDGE_CURVE('',#330,#328,#280,.T.);
#401=EDGE_CURVE('',#329,#330,#161,.T.);
#402=EDGE_CURVE('',#331,#332,#162,.T.);
#403=EDGE_CURVE('',#329,#332,#163,.T.);
#404=EDGE_CURVE('',#330,#331,#164,.T.);
#405=EDGE_CURVE('',#321,#331,#165,.T.);
#406=EDGE_CURVE('',#325,#333,#166,.T.);
#407=EDGE_CURVE('',#333,#315,#167,.T.);
#408=EDGE_CURVE('',#334,#335,#168,.T.);
#409=EDGE_CURVE('',#336,#334,#169,.T.);
#410=EDGE_CURVE('',#337,#336,#170,.T.);
#411=EDGE_CURVE('',#335,#337,#171,.T.);
#412=EDGE_CURVE('',#338,#339,#281,.T.);
#413=EDGE_CURVE('',#338,#340,#172,.T.);
#414=EDGE_CURVE('',#340,#341,#282,.T.);
#415=EDGE_CURVE('',#341,#339,#173,.T.);
#416=EDGE_CURVE('',#342,#343,#283,.T.);
#417=EDGE_CURVE('',#343,#344,#174,.T.);
#418=EDGE_CURVE('',#344,#345,#284,.T.);
#419=EDGE_CURVE('',#345,#342,#175,.T.);
#420=EDGE_CURVE('',#346,#334,#285,.T.);
#421=EDGE_CURVE('',#346,#347,#176,.T.);
#422=EDGE_CURVE('',#347,#336,#286,.T.);
#423=EDGE_CURVE('',#337,#348,#287,.T.);
#424=EDGE_CURVE('',#336,#342,#288,.F.);
#425=EDGE_CURVE('',#342,#348,#177,.T.);
#426=EDGE_CURVE('',#347,#343,#289,.T.);
#427=EDGE_CURVE('',#345,#340,#290,.F.);
#428=EDGE_CURVE('',#344,#341,#291,.T.);
#429=EDGE_CURVE('',#349,#350,#292,.T.);
#430=EDGE_CURVE('',#349,#351,#293,.T.);
#431=EDGE_CURVE('',#352,#351,#294,.T.);
#432=EDGE_CURVE('',#352,#350,#295,.T.);
#433=EDGE_CURVE('',#351,#353,#178,.T.);
#434=EDGE_CURVE('',#354,#353,#296,.T.);
#435=EDGE_CURVE('',#354,#352,#179,.T.);
#436=EDGE_CURVE('',#353,#355,#297,.T.);
#437=EDGE_CURVE('',#356,#355,#298,.T.);
#438=EDGE_CURVE('',#356,#354,#299,.T.);
#439=EDGE_CURVE('',#348,#357,#180,.T.);
#440=EDGE_CURVE('',#357,#345,#181,.T.);
#441=EDGE_CURVE('',#357,#358,#300,.T.);
#442=EDGE_CURVE('',#340,#358,#182,.T.);
#443=EDGE_CURVE('',#359,#338,#183,.T.);
#444=EDGE_CURVE('',#358,#359,#184,.T.);
#445=EDGE_CURVE('',#337,#360,#301,.T.);
#446=EDGE_CURVE('',#360,#348,#302,.T.);
#447=EDGE_CURVE('',#357,#361,#303,.T.);
#448=EDGE_CURVE('',#361,#358,#304,.T.);
#449=EDGE_CURVE('',#361,#360,#185,.T.);
#450=EDGE_CURVE('',#335,#362,#305,.T.);
#451=EDGE_CURVE('',#360,#362,#186,.T.);
#452=EDGE_CURVE('',#363,#333,#187,.T.);
#453=EDGE_CURVE('',#363,#323,#188,.T.);
#454=EDGE_CURVE('',#364,#365,#306,.T.);
#455=EDGE_CURVE('',#365,#350,#189,.T.);
#456=EDGE_CURVE('',#364,#352,#190,.T.);
#457=EDGE_CURVE('',#366,#364,#191,.T.);
#458=EDGE_CURVE('',#366,#354,#192,.T.);
#459=EDGE_CURVE('',#367,#366,#307,.T.);
#460=EDGE_CURVE('',#367,#356,#193,.T.);
#461=EDGE_CURVE('',#368,#369,#308,.T.);
#462=EDGE_CURVE('',#368,#349,#194,.T.);
#463=EDGE_CURVE('',#350,#369,#195,.T.);
#464=EDGE_CURVE('',#370,#346,#196,.T.);
#465=EDGE_CURVE('',#355,#370,#197,.T.);
#466=EDGE_CURVE('',#339,#368,#198,.T.);
#467=EDGE_CURVE('',#369,#371,#199,.T.);
#468=EDGE_CURVE('',#365,#363,#200,.T.);
#469=EDGE_CURVE('',#332,#371,#201,.T.);
#470=EDGE_CURVE('',#362,#372,#202,.T.);
#471=EDGE_CURVE('',#373,#361,#203,.T.);
#472=EDGE_CURVE('',#371,#373,#204,.T.);
#473=EDGE_CURVE('',#372,#367,#205,.T.);
#474=EDGE_CURVE('',#373,#359,#309,.T.);
#475=EDGE_CURVE('',#372,#374,#206,.T.);
#476=EDGE_CURVE('',#374,#356,#207,.T.);
#477=EDGE_CURVE('',#374,#370,#310,.T.);
#478=ORIENTED_EDGE('',*,*,#375,.F.);
#479=ORIENTED_EDGE('',*,*,#376,.T.);
#480=ORIENTED_EDGE('',*,*,#377,.T.);
#481=ORIENTED_EDGE('',*,*,#376,.F.);
#482=ORIENTED_EDGE('',*,*,#377,.F.);
#483=ORIENTED_EDGE('',*,*,#378,.F.);
#484=ORIENTED_EDGE('',*,*,#379,.T.);
#485=ORIENTED_EDGE('',*,*,#380,.T.);
#486=ORIENTED_EDGE('',*,*,#379,.F.);
#487=ORIENTED_EDGE('',*,*,#380,.F.);
#488=ORIENTED_EDGE('',*,*,#381,.T.);
#489=ORIENTED_EDGE('',*,*,#382,.T.);
#490=ORIENTED_EDGE('',*,*,#383,.T.);
#491=ORIENTED_EDGE('',*,*,#384,.T.);
#492=ORIENTED_EDGE('',*,*,#385,.T.);
#493=ORIENTED_EDGE('',*,*,#386,.T.);
#494=ORIENTED_EDGE('',*,*,#387,.T.);
#495=ORIENTED_EDGE('',*,*,#382,.F.);
#496=ORIENTED_EDGE('',*,*,#388,.T.);
#497=ORIENTED_EDGE('',*,*,#389,.T.);
#498=ORIENTED_EDGE('',*,*,#390,.T.);
#499=ORIENTED_EDGE('',*,*,#386,.F.);
#500=ORIENTED_EDGE('',*,*,#387,.F.);
#501=ORIENTED_EDGE('',*,*,#390,.F.);
#502=ORIENTED_EDGE('',*,*,#391,.F.);
#503=ORIENTED_EDGE('',*,*,#383,.F.);
#504=ORIENTED_EDGE('',*,*,#392,.F.);
#505=ORIENTED_EDGE('',*,*,#393,.T.);
#506=ORIENTED_EDGE('',*,*,#394,.F.);
#507=ORIENTED_EDGE('',*,*,#395,.F.);
#508=ORIENTED_EDGE('',*,*,#396,.F.);
#509=ORIENTED_EDGE('',*,*,#395,.T.);
#510=ORIENTED_EDGE('',*,*,#397,.F.);
#511=ORIENTED_EDGE('',*,*,#398,.F.);
#512=ORIENTED_EDGE('',*,*,#399,.F.);
#513=ORIENTED_EDGE('',*,*,#398,.T.);
#514=ORIENTED_EDGE('',*,*,#400,.F.);
#515=ORIENTED_EDGE('',*,*,#401,.F.);
#516=ORIENTED_EDGE('',*,*,#402,.T.);
#517=ORIENTED_EDGE('',*,*,#403,.F.);
#518=ORIENTED_EDGE('',*,*,#401,.T.);
#519=ORIENTED_EDGE('',*,*,#404,.T.);
#520=ORIENTED_EDGE('',*,*,#405,.T.);
#521=ORIENTED_EDGE('',*,*,#404,.F.);
#522=ORIENTED_EDGE('',*,*,#400,.T.);
#523=ORIENTED_EDGE('',*,*,#397,.T.);
#524=ORIENTED_EDGE('',*,*,#394,.T.);
#525=ORIENTED_EDGE('',*,*,#406,.T.);
#526=ORIENTED_EDGE('',*,*,#407,.T.);
#527=ORIENTED_EDGE('',*,*,#384,.F.);
#528=ORIENTED_EDGE('',*,*,#391,.T.);
#529=ORIENTED_EDGE('',*,*,#389,.F.);
#530=ORIENTED_EDGE('',*,*,#408,.F.);
#531=ORIENTED_EDGE('',*,*,#409,.F.);
#532=ORIENTED_EDGE('',*,*,#410,.F.);
#533=ORIENTED_EDGE('',*,*,#411,.F.);
#534=ORIENTED_EDGE('',*,*,#412,.F.);
#535=ORIENTED_EDGE('',*,*,#413,.T.);
#536=ORIENTED_EDGE('',*,*,#414,.T.);
#537=ORIENTED_EDGE('',*,*,#415,.T.);
#538=ORIENTED_EDGE('',*,*,#416,.T.);
#539=ORIENTED_EDGE('',*,*,#417,.T.);
#540=ORIENTED_EDGE('',*,*,#418,.T.);
#541=ORIENTED_EDGE('',*,*,#419,.T.);
#542=ORIENTED_EDGE('',*,*,#420,.F.);
#543=ORIENTED_EDGE('',*,*,#421,.T.);
#544=ORIENTED_EDGE('',*,*,#422,.T.);
#545=ORIENTED_EDGE('',*,*,#409,.T.);
#546=ORIENTED_EDGE('',*,*,#423,.F.);
#547=ORIENTED_EDGE('',*,*,#410,.T.);
#548=ORIENTED_EDGE('',*,*,#424,.T.);
#549=ORIENTED_EDGE('',*,*,#425,.T.);
#550=ORIENTED_EDGE('',*,*,#416,.F.);
#551=ORIENTED_EDGE('',*,*,#424,.F.);
#552=ORIENTED_EDGE('',*,*,#422,.F.);
#553=ORIENTED_EDGE('',*,*,#426,.T.);
#554=ORIENTED_EDGE('',*,*,#414,.F.);
#555=ORIENTED_EDGE('',*,*,#427,.F.);
#556=ORIENTED_EDGE('',*,*,#418,.F.);
#557=ORIENTED_EDGE('',*,*,#428,.T.);
#558=ORIENTED_EDGE('',*,*,#429,.F.);
#559=ORIENTED_EDGE('',*,*,#430,.T.);
#560=ORIENTED_EDGE('',*,*,#431,.F.);
#561=ORIENTED_EDGE('',*,*,#432,.T.);
#562=ORIENTED_EDGE('',*,*,#431,.T.);
#563=ORIENTED_EDGE('',*,*,#433,.T.);
#564=ORIENTED_EDGE('',*,*,#434,.F.);
#565=ORIENTED_EDGE('',*,*,#435,.T.);
#566=ORIENTED_EDGE('',*,*,#434,.T.);
#567=ORIENTED_EDGE('',*,*,#436,.T.);
#568=ORIENTED_EDGE('',*,*,#437,.F.);
#569=ORIENTED_EDGE('',*,*,#438,.T.);
#570=ORIENTED_EDGE('',*,*,#439,.F.);
#571=ORIENTED_EDGE('',*,*,#425,.F.);
#572=ORIENTED_EDGE('',*,*,#419,.F.);
#573=ORIENTED_EDGE('',*,*,#440,.F.);
#574=ORIENTED_EDGE('',*,*,#441,.F.);
#575=ORIENTED_EDGE('',*,*,#440,.T.);
#576=ORIENTED_EDGE('',*,*,#427,.T.);
#577=ORIENTED_EDGE('',*,*,#442,.T.);
#578=ORIENTED_EDGE('',*,*,#443,.F.);
#579=ORIENTED_EDGE('',*,*,#444,.F.);
#580=ORIENTED_EDGE('',*,*,#442,.F.);
#581=ORIENTED_EDGE('',*,*,#413,.F.);
#582=ORIENTED_EDGE('',*,*,#445,.F.);
#583=ORIENTED_EDGE('',*,*,#423,.T.);
#584=ORIENTED_EDGE('',*,*,#446,.F.);
#585=ORIENTED_EDGE('',*,*,#447,.F.);
#586=ORIENTED_EDGE('',*,*,#441,.T.);
#587=ORIENTED_EDGE('',*,*,#448,.F.);
#588=ORIENTED_EDGE('',*,*,#447,.T.);
#589=ORIENTED_EDGE('',*,*,#449,.T.);
#590=ORIENTED_EDGE('',*,*,#446,.T.);
#591=ORIENTED_EDGE('',*,*,#439,.T.);
#592=ORIENTED_EDGE('',*,*,#450,.F.);
#593=ORIENTED_EDGE('',*,*,#411,.T.);
#594=ORIENTED_EDGE('',*,*,#445,.T.);
#595=ORIENTED_EDGE('',*,*,#451,.T.);
#596=ORIENTED_EDGE('',*,*,#452,.T.);
#597=ORIENTED_EDGE('',*,*,#406,.F.);
#598=ORIENTED_EDGE('',*,*,#393,.F.);
#599=ORIENTED_EDGE('',*,*,#453,.F.);
#600=ORIENTED_EDGE('',*,*,#454,.T.);
#601=ORIENTED_EDGE('',*,*,#455,.T.);
#602=ORIENTED_EDGE('',*,*,#432,.F.);
#603=ORIENTED_EDGE('',*,*,#456,.F.);
#604=ORIENTED_EDGE('',*,*,#457,.T.);
#605=ORIENTED_EDGE('',*,*,#456,.T.);
#606=ORIENTED_EDGE('',*,*,#435,.F.);
#607=ORIENTED_EDGE('',*,*,#458,.F.);
#608=ORIENTED_EDGE('',*,*,#459,.T.);
#609=ORIENTED_EDGE('',*,*,#458,.T.);
#610=ORIENTED_EDGE('',*,*,#438,.F.);
#611=ORIENTED_EDGE('',*,*,#460,.F.);
#612=ORIENTED_EDGE('',*,*,#461,.F.);
#613=ORIENTED_EDGE('',*,*,#462,.T.);
#614=ORIENTED_EDGE('',*,*,#429,.T.);
#615=ORIENTED_EDGE('',*,*,#463,.T.);
#616=ORIENTED_EDGE('',*,*,#464,.F.);
#617=ORIENTED_EDGE('',*,*,#465,.F.);
#618=ORIENTED_EDGE('',*,*,#436,.F.);
#619=ORIENTED_EDGE('',*,*,#433,.F.);
#620=ORIENTED_EDGE('',*,*,#430,.F.);
#621=ORIENTED_EDGE('',*,*,#462,.F.);
#622=ORIENTED_EDGE('',*,*,#466,.F.);
#623=ORIENTED_EDGE('',*,*,#415,.F.);
#624=ORIENTED_EDGE('',*,*,#428,.F.);
#625=ORIENTED_EDGE('',*,*,#417,.F.);
#626=ORIENTED_EDGE('',*,*,#426,.F.);
#627=ORIENTED_EDGE('',*,*,#421,.F.);
#628=ORIENTED_EDGE('',*,*,#467,.F.);
#629=ORIENTED_EDGE('',*,*,#463,.F.);
#630=ORIENTED_EDGE('',*,*,#455,.F.);
#631=ORIENTED_EDGE('',*,*,#468,.T.);
#632=ORIENTED_EDGE('',*,*,#453,.T.);
#633=ORIENTED_EDGE('',*,*,#392,.T.);
#634=ORIENTED_EDGE('',*,*,#396,.T.);
#635=ORIENTED_EDGE('',*,*,#399,.T.);
#636=ORIENTED_EDGE('',*,*,#403,.T.);
#637=ORIENTED_EDGE('',*,*,#469,.T.);
#638=ORIENTED_EDGE('',*,*,#470,.F.);
#639=ORIENTED_EDGE('',*,*,#451,.F.);
#640=ORIENTED_EDGE('',*,*,#449,.F.);
#641=ORIENTED_EDGE('',*,*,#471,.F.);
#642=ORIENTED_EDGE('',*,*,#472,.F.);
#643=ORIENTED_EDGE('',*,*,#469,.F.);
#644=ORIENTED_EDGE('',*,*,#402,.F.);
#645=ORIENTED_EDGE('',*,*,#405,.F.);
#646=ORIENTED_EDGE('',*,*,#388,.F.);
#647=ORIENTED_EDGE('',*,*,#385,.F.);
#648=ORIENTED_EDGE('',*,*,#381,.F.);
#649=ORIENTED_EDGE('',*,*,#407,.F.);
#650=ORIENTED_EDGE('',*,*,#452,.F.);
#651=ORIENTED_EDGE('',*,*,#468,.F.);
#652=ORIENTED_EDGE('',*,*,#454,.F.);
#653=ORIENTED_EDGE('',*,*,#457,.F.);
#654=ORIENTED_EDGE('',*,*,#459,.F.);
#655=ORIENTED_EDGE('',*,*,#473,.F.);
#656=ORIENTED_EDGE('',*,*,#375,.T.);
#657=ORIENTED_EDGE('',*,*,#378,.T.);
#658=ORIENTED_EDGE('',*,*,#474,.F.);
#659=ORIENTED_EDGE('',*,*,#471,.T.);
#660=ORIENTED_EDGE('',*,*,#448,.T.);
#661=ORIENTED_EDGE('',*,*,#444,.T.);
#662=ORIENTED_EDGE('',*,*,#475,.F.);
#663=ORIENTED_EDGE('',*,*,#473,.T.);
#664=ORIENTED_EDGE('',*,*,#460,.T.);
#665=ORIENTED_EDGE('',*,*,#476,.F.);
#666=ORIENTED_EDGE('',*,*,#477,.F.);
#667=ORIENTED_EDGE('',*,*,#476,.T.);
#668=ORIENTED_EDGE('',*,*,#437,.T.);
#669=ORIENTED_EDGE('',*,*,#465,.T.);
#670=ORIENTED_EDGE('',*,*,#470,.T.);
#671=ORIENTED_EDGE('',*,*,#475,.T.);
#672=ORIENTED_EDGE('',*,*,#477,.T.);
#673=ORIENTED_EDGE('',*,*,#464,.T.);
#674=ORIENTED_EDGE('',*,*,#420,.T.);
#675=ORIENTED_EDGE('',*,*,#408,.T.);
#676=ORIENTED_EDGE('',*,*,#450,.T.);
#677=ORIENTED_EDGE('',*,*,#461,.T.);
#678=ORIENTED_EDGE('',*,*,#467,.T.);
#679=ORIENTED_EDGE('',*,*,#472,.T.);
#680=ORIENTED_EDGE('',*,*,#474,.T.);
#681=ORIENTED_EDGE('',*,*,#443,.T.);
#682=ORIENTED_EDGE('',*,*,#412,.T.);
#683=ORIENTED_EDGE('',*,*,#466,.T.);
#684=CYLINDRICAL_SURFACE('',#772,1.49999999999999);
#685=CYLINDRICAL_SURFACE('',#776,1.49999999999999);
#686=CYLINDRICAL_SURFACE('',#784,0.824999999999997);
#687=CYLINDRICAL_SURFACE('',#788,0.825000000000031);
#688=CYLINDRICAL_SURFACE('',#794,1.);
#689=CYLINDRICAL_SURFACE('',#797,1.);
#690=CYLINDRICAL_SURFACE('',#800,1.);
#691=CYLINDRICAL_SURFACE('',#803,1.);
#692=CYLINDRICAL_SURFACE('',#816,2.);
#693=CYLINDRICAL_SURFACE('',#823,1.);
#694=CYLINDRICAL_SURFACE('',#832,1.);
#695=CYLINDRICAL_SURFACE('',#833,1.);
#696=CYLINDRICAL_SURFACE('',#836,4.99999999999993);
#697=CYLINDRICAL_SURFACE('',#839,4.99999999999996);
#698=CYLINDRICAL_SURFACE('',#841,2.);
#699=CYLINDRICAL_SURFACE('',#846,1.);
#700=CYLINDRICAL_SURFACE('',#849,2.);
#701=ADVANCED_FACE('',(#55),#684,.F.);
#702=ADVANCED_FACE('',(#56),#35,.F.);
#703=ADVANCED_FACE('',(#57),#685,.F.);
#704=ADVANCED_FACE('',(#58),#36,.F.);
#705=ADVANCED_FACE('',(#59),#37,.T.);
#706=ADVANCED_FACE('',(#60),#38,.T.);
#707=ADVANCED_FACE('',(#61),#39,.T.);
#708=ADVANCED_FACE('',(#62),#40,.T.);
#709=ADVANCED_FACE('',(#63),#686,.F.);
#710=ADVANCED_FACE('',(#64),#41,.F.);
#711=ADVANCED_FACE('',(#65),#687,.F.);
#712=ADVANCED_FACE('',(#66),#42,.F.);
#713=ADVANCED_FACE('',(#67),#43,.T.);
#714=ADVANCED_FACE('',(#68),#44,.T.);
#715=ADVANCED_FACE('',(#69),#688,.T.);
#716=ADVANCED_FACE('',(#70),#689,.T.);
#717=ADVANCED_FACE('',(#71),#690,.T.);
#718=ADVANCED_FACE('',(#72),#691,.F.);
#719=ADVANCED_FACE('',(#73),#31,.T.);
#720=ADVANCED_FACE('',(#74),#32,.T.);
#721=ADVANCED_FACE('',(#75),#33,.T.);
#722=ADVANCED_FACE('',(#76),#692,.T.);
#723=ADVANCED_FACE('',(#77),#34,.T.);
#724=ADVANCED_FACE('',(#78),#45,.T.);
#725=ADVANCED_FACE('',(#79),#693,.F.);
#726=ADVANCED_FACE('',(#80),#46,.T.);
#727=ADVANCED_FACE('',(#81),#29,.F.);
#728=ADVANCED_FACE('',(#82),#30,.F.);
#729=ADVANCED_FACE('',(#83),#694,.F.);
#730=ADVANCED_FACE('',(#84),#695,.F.);
#731=ADVANCED_FACE('',(#85),#47,.F.);
#732=ADVANCED_FACE('',(#86),#696,.T.);
#733=ADVANCED_FACE('',(#87),#48,.T.);
#734=ADVANCED_FACE('',(#88),#697,.T.);
#735=ADVANCED_FACE('',(#89),#698,.T.);
#736=ADVANCED_FACE('',(#90),#49,.T.);
#737=ADVANCED_FACE('',(#91),#50,.T.);
#738=ADVANCED_FACE('',(#92,#27,#28),#51,.F.);
#739=ADVANCED_FACE('',(#93),#699,.F.);
#740=ADVANCED_FACE('',(#94),#52,.T.);
#741=ADVANCED_FACE('',(#95),#700,.T.);
#742=ADVANCED_FACE('',(#96),#53,.T.);
#743=ADVANCED_FACE('',(#97),#54,.T.);
#744=CLOSED_SHELL('',(#701,#702,#703,#704,#705,#706,#707,#708,#709,#710,
#711,#712,#713,#714,#715,#716,#717,#718,#719,#720,#721,#722,#723,#724,#725,
#726,#727,#728,#729,#730,#731,#732,#733,#734,#735,#736,#737,#738,#739,#740,
#741,#742,#743));
#745=DERIVED_UNIT_ELEMENT(#749,1.);
#746=DERIVED_UNIT_ELEMENT(#1325,-3.);
#747=DERIVED_UNIT_ELEMENT(#749,1.);
#748=DERIVED_UNIT_ELEMENT(#1325,-3.);
#749=(
MASS_UNIT()
NAMED_UNIT(*)
SI_UNIT(.KILO.,.GRAM.)
);
#750=DERIVED_UNIT((#745,#746));
#751=DERIVED_UNIT((#747,#748));
#752=MEASURE_REPRESENTATION_ITEM('density measure',
POSITIVE_RATIO_MEASURE(7850.),#750);
#753=MEASURE_REPRESENTATION_ITEM('density measure',
POSITIVE_RATIO_MEASURE(7850.),#751);
#754=PROPERTY_DEFINITION_REPRESENTATION(#764,#758);
#755=PROPERTY_DEFINITION_REPRESENTATION(#765,#759);
#756=PROPERTY_DEFINITION_REPRESENTATION(#766,#760);
#757=PROPERTY_DEFINITION_REPRESENTATION(#767,#761);
#758=REPRESENTATION('material name',(#762),#1321);
#759=REPRESENTATION('density',(#752),#1321);
#760=REPRESENTATION('material name',(#763),#1322);
#761=REPRESENTATION('density',(#753),#1322);
#762=DESCRIPTIVE_REPRESENTATION_ITEM('Steel','Steel');
#763=DESCRIPTIVE_REPRESENTATION_ITEM('Steel','Steel');
#764=PROPERTY_DEFINITION('material property','material name',#1346);
#765=PROPERTY_DEFINITION('material property','density of part',#1346);
#766=PROPERTY_DEFINITION('material property','material name',#1347);
#767=PROPERTY_DEFINITION('material property','density of part',#1347);
#768=AXIS2_PLACEMENT_3D('',#1097,#856,#857);
#769=AXIS2_PLACEMENT_3D('',#1098,#858,#859);
#770=AXIS2_PLACEMENT_3D('',#1099,#860,#861);
#771=AXIS2_PLACEMENT_3D('',#1100,#862,#863);
#772=AXIS2_PLACEMENT_3D('',#1101,#864,#865);
#773=AXIS2_PLACEMENT_3D('',#1103,#866,#867);
#774=AXIS2_PLACEMENT_3D('',#1106,#869,#870);
#775=AXIS2_PLACEMENT_3D('',#1107,#871,#872);
#776=AXIS2_PLACEMENT_3D('',#1108,#873,#874);
#777=AXIS2_PLACEMENT_3D('',#1110,#875,#876);
#778=AXIS2_PLACEMENT_3D('',#1113,#878,#879);
#779=AXIS2_PLACEMENT_3D('',#1114,#880,#881);
#780=AXIS2_PLACEMENT_3D('',#1115,#882,#883);
#781=AXIS2_PLACEMENT_3D('',#1124,#888,#889);
#782=AXIS2_PLACEMENT_3D('',#1130,#893,#894);
#783=AXIS2_PLACEMENT_3D('',#1136,#898,#899);
#784=AXIS2_PLACEMENT_3D('',#1138,#901,#902);
#785=AXIS2_PLACEMENT_3D('',#1141,#903,#904);
#786=AXIS2_PLACEMENT_3D('',#1145,#906,#907);
#787=AXIS2_PLACEMENT_3D('',#1147,#909,#910);
#788=AXIS2_PLACEMENT_3D('',#1153,#914,#915);
#789=AXIS2_PLACEMENT_3D('',#1155,#916,#917);
#790=AXIS2_PLACEMENT_3D('',#1157,#918,#919);
#791=AXIS2_PLACEMENT_3D('',#1159,#921,#922);
#792=AXIS2_PLACEMENT_3D('',#1165,#926,#927);
#793=AXIS2_PLACEMENT_3D('',#1170,#931,#932);
#794=AXIS2_PLACEMENT_3D('',#1179,#937,#938);
#795=AXIS2_PLACEMENT_3D('',#1182,#939,#940);
#796=AXIS2_PLACEMENT_3D('',#1186,#942,#943);
#797=AXIS2_PLACEMENT_3D('',#1188,#945,#946);
#798=AXIS2_PLACEMENT_3D('',#1191,#947,#948);
#799=AXIS2_PLACEMENT_3D('',#1195,#950,#951);
#800=AXIS2_PLACEMENT_3D('',#1197,#953,#954);
#801=AXIS2_PLACEMENT_3D('',#1199,#955,#956);
#802=AXIS2_PLACEMENT_3D('',#1202,#958,#959);
#803=AXIS2_PLACEMENT_3D('',#1203,#960,#961);
#804=AXIS2_PLACEMENT_3D('',#1205,#962,#963);
#805=AXIS2_PLACEMENT_3D('',#1206,#964,#965);
#806=AXIS2_PLACEMENT_3D('',#1208,#967,#968);
#807=AXIS2_PLACEMENT_3D('',#1209,#969,#970);
#808=AXIS2_PLACEMENT_3D('',#1210,#971,#972);
#809=AXIS2_PLACEMENT_3D('',#1211,#973,#974);
#810=AXIS2_PLACEMENT_3D('',#1212,#975,#976);
#811=AXIS2_PLACEMENT_3D('',#1213,#977,#978);
#812=AXIS2_PLACEMENT_3D('',#1216,#979,#980);
#813=AXIS2_PLACEMENT_3D('',#1218,#981,#982);
#814=AXIS2_PLACEMENT_3D('',#1220,#983,#984);
#815=AXIS2_PLACEMENT_3D('',#1221,#985,#986);
#816=AXIS2_PLACEMENT_3D('',#1222,#987,#988);
#817=AXIS2_PLACEMENT_3D('',#1226,#990,#991);
#818=AXIS2_PLACEMENT_3D('',#1228,#993,#994);
#819=AXIS2_PLACEMENT_3D('',#1230,#995,#996);
#820=AXIS2_PLACEMENT_3D('',#1232,#997,#998);
#821=AXIS2_PLACEMENT_3D('',#1233,#999,#1000);
#822=AXIS2_PLACEMENT_3D('',#1234,#1001,#1002);
#823=AXIS2_PLACEMENT_3D('',#1238,#1005,#1006);
#824=AXIS2_PLACEMENT_3D('',#1240,#1007,#1008);
#825=AXIS2_PLACEMENT_3D('',#1242,#1010,#1011);
#826=AXIS2_PLACEMENT_3D('',#1246,#1014,#1015);
#827=AXIS2_PLACEMENT_3D('',#1248,#1016,#1017);
#828=AXIS2_PLACEMENT_3D('',#1249,#1018,#1019);
#829=AXIS2_PLACEMENT_3D('',#1250,#1020,#1021);
#830=AXIS2_PLACEMENT_3D('',#1252,#1022,#1023);
#831=AXIS2_PLACEMENT_3D('',#1253,#1024,#1025);
#832=AXIS2_PLACEMENT_3D('',#1254,#1026,#1027);
#833=AXIS2_PLACEMENT_3D('',#1256,#1029,#1030);
#834=AXIS2_PLACEMENT_3D('',#1258,#1031,#1032);
#835=AXIS2_PLACEMENT_3D('',#1260,#1034,#1035);
#836=AXIS2_PLACEMENT_3D('',#1264,#1038,#1039);
#837=AXIS2_PLACEMENT_3D('',#1267,#1040,#1041);
#838=AXIS2_PLACEMENT_3D('',#1270,#1044,#1045);
#839=AXIS2_PLACEMENT_3D('',#1274,#1048,#1049);
#840=AXIS2_PLACEMENT_3D('',#1276,#1050,#1051);
#841=AXIS2_PLACEMENT_3D('',#1278,#1053,#1054);
#842=AXIS2_PLACEMENT_3D('',#1281,#1055,#1056);
#843=AXIS2_PLACEMENT_3D('',#1284,#1059,#1060);
#844=AXIS2_PLACEMENT_3D('',#1289,#1064,#1065);
#845=AXIS2_PLACEMENT_3D('',#1294,#1069,#1070);
#846=AXIS2_PLACEMENT_3D('',#1301,#1075,#1076);
#847=AXIS2_PLACEMENT_3D('',#1302,#1077,#1078);
#848=AXIS2_PLACEMENT_3D('',#1303,#1079,#1080);
#849=AXIS2_PLACEMENT_3D('',#1307,#1083,#1084);
#850=AXIS2_PLACEMENT_3D('',#1308,#1085,#1086);
#851=AXIS2_PLACEMENT_3D('',#1309,#1087,#1088);
#852=AXIS2_PLACEMENT_3D('',#1310,#1089,#1090);
#853=AXIS2_PLACEMENT_3D('',#1311,#1091,#1092);
#854=AXIS2_PLACEMENT_3D('',#1312,#1093,#1094);
#855=AXIS2_PLACEMENT_3D('',#1313,#1095,#1096);
#856=DIRECTION('axis',(0.,0.,1.));
#857=DIRECTION('refdir',(1.,0.,0.));
#858=DIRECTION('axis',(0.,0.,1.));
#859=DIRECTION('refdir',(1.,0.,0.));
#860=DIRECTION('axis',(0.,0.,1.));
#861=DIRECTION('refdir',(1.,0.,0.));
#862=DIRECTION('axis',(0.,0.,1.));
#863=DIRECTION('refdir',(1.,0.,0.));
#864=DIRECTION('center_axis',(0.,0.,1.));
#865=DIRECTION('ref_axis',(1.,0.,0.));
#866=DIRECTION('center_axis',(-1.22464679914735E-16,-1.224646799147E-16,
1.));
#867=DIRECTION('ref_axis',(1.,0.,0.));
#868=DIRECTION('',(0.,0.,1.));
#869=DIRECTION('center_axis',(0.,0.,1.));
#870=DIRECTION('ref_axis',(1.,0.,0.));
#871=DIRECTION('center_axis',(0.,0.,1.));
#872=DIRECTION('ref_axis',(1.,0.,0.));
#873=DIRECTION('center_axis',(0.,0.,1.));
#874=DIRECTION('ref_axis',(1.,0.,0.));
#875=DIRECTION('center_axis',(-1.22464679914735E-16,-1.224646799147E-16,
1.));
#876=DIRECTION('ref_axis',(1.,0.,0.));
#877=DIRECTION('',(0.,0.,1.));
#878=DIRECTION('center_axis',(0.,0.,1.));
#879=DIRECTION('ref_axis',(1.,0.,0.));
#880=DIRECTION('center_axis',(0.,0.,1.));
#881=DIRECTION('ref_axis',(1.,0.,0.));
#882=DIRECTION('center_axis',(-1.,0.,0.));
#883=DIRECTION('ref_axis',(0.,-1.,0.));
#884=DIRECTION('',(0.,-1.,-1.224646799147E-16));
#885=DIRECTION('',(0.,0.,1.));
#886=DIRECTION('',(0.,1.,1.66093206640029E-15));
#887=DIRECTION('',(0.,0.,-1.));
#888=DIRECTION('center_axis',(3.28954970259305E-16,1.,0.));
#889=DIRECTION('ref_axis',(-1.,3.28954970259305E-16,0.));
#890=DIRECTION('',(-1.,3.28954970259305E-16,-1.22464679914735E-16));
#891=DIRECTION('',(0.,0.,1.));
#892=DIRECTION('',(1.,-3.28954970259305E-16,-5.46371858505433E-31));
#893=DIRECTION('center_axis',(1.,0.,0.));
#894=DIRECTION('ref_axis',(0.,1.,0.));
#895=DIRECTION('',(0.,1.,1.224646799147E-16));
#896=DIRECTION('',(0.,0.,1.));
#897=DIRECTION('',(0.,-1.,-1.66093206640029E-15));
#898=DIRECTION('center_axis',(0.,1.66093206640029E-15,-1.));
#899=DIRECTION('ref_axis',(1.,0.,0.));
#900=DIRECTION('',(-1.,0.,0.));
#901=DIRECTION('center_axis',(0.,-1.,0.));
#902=DIRECTION('ref_axis',(8.61263922133458E-14,0.,1.));
#903=DIRECTION('center_axis',(0.,-1.,0.));
#904=DIRECTION('ref_axis',(8.61263922133458E-14,0.,1.));
#905=DIRECTION('',(0.,-1.,0.));
#906=DIRECTION('center_axis',(-1.41396074882353E-14,1.,0.));
#907=DIRECTION('ref_axis',(8.61263922133458E-14,0.,1.));
#908=DIRECTION('',(0.,-1.,0.));
#909=DIRECTION('center_axis',(8.34754153853493E-15,0.,1.));
#910=DIRECTION('ref_axis',(-1.,0.,8.34754153853493E-15));
#911=DIRECTION('',(-1.,0.,8.34754153853493E-15));
#912=DIRECTION('',(1.,1.41396074882353E-14,-8.34754153853493E-15));
#913=DIRECTION('',(0.,-1.,0.));
#914=DIRECTION('center_axis',(0.,-1.,0.));
#915=DIRECTION('ref_axis',(-1.,0.,-1.23806688806679E-13));
#916=DIRECTION('center_axis',(0.,-1.,0.));
#917=DIRECTION('ref_axis',(-1.,0.,-1.23806688806679E-13));
#918=DIRECTION('center_axis',(-1.41396074882353E-14,1.,0.));
#919=DIRECTION('ref_axis',(-1.,0.,-1.23806688806679E-13));
#920=DIRECTION('',(0.,-1.,0.));
#921=DIRECTION('center_axis',(-1.,0.,-7.59351329809595E-14));
#922=DIRECTION('ref_axis',(7.59351329809595E-14,0.,-1.));
#923=DIRECTION('',(-9.29937175479339E-30,1.,1.224646799147E-16));
#924=DIRECTION('',(7.59351329809595E-14,0.,-1.));
#925=DIRECTION('',(0.,0.,-1.));
#926=DIRECTION('center_axis',(1.41396074882353E-14,-1.,0.));
#927=DIRECTION('ref_axis',(1.,1.41396074882353E-14,0.));
#928=DIRECTION('',(1.,1.41396074882353E-14,1.22464679914737E-16));
#929=DIRECTION('',(0.,0.,-1.));
#930=DIRECTION('',(1.,1.41396074882353E-14,1.22464679914737E-16));
#931=DIRECTION('center_axis',(0.,1.,0.));
#932=DIRECTION('ref_axis',(-1.,0.,0.));
#933=DIRECTION('',(0.,0.,-1.));
#934=DIRECTION('',(-1.,0.,0.));
#935=DIRECTION('',(0.,0.,1.));
#936=DIRECTION('',(1.,0.,1.22464679914735E-16));
#937=DIRECTION('center_axis',(1.,-1.53827095269652E-17,0.));
#938=DIRECTION('ref_axis',(0.,-0.70710678118655,0.707106781186545));
#939=DIRECTION('center_axis',(-1.,2.01858731750028E-17,0.));
#940=DIRECTION('ref_axis',(0.,-0.70710678118655,0.707106781186545));
#941=DIRECTION('',(1.,-1.53827095269652E-17,0.));
#942=DIRECTION('center_axis',(-1.,0.,0.));
#943=DIRECTION('ref_axis',(0.,-1.,0.));
#944=DIRECTION('',(-1.,1.53827095269652E-17,0.));
#945=DIRECTION('center_axis',(0.,-1.,0.));
#946=DIRECTION('ref_axis',(-0.707106781186553,0.,0.707106781186542));
#947=DIRECTION('center_axis',(0.,1.,0.));
#948=DIRECTION('ref_axis',(-1.,0.,0.));
#949=DIRECTION('',(0.,1.,0.));
#950=DIRECTION('center_axis',(0.,-1.,0.));
#951=DIRECTION('ref_axis',(0.,0.,1.));
#952=DIRECTION('',(0.,-1.,0.));
#953=DIRECTION('center_axis',(-1.,0.,0.));
#954=DIRECTION('ref_axis',(0.,0.70710678118654,0.707106781186555));
#955=DIRECTION('center_axis',(-1.,2.01858731750028E-17,0.));
#956=DIRECTION('ref_axis',(0.,0.70710678118654,0.707106781186555));
#957=DIRECTION('',(1.,0.,0.));
#958=DIRECTION('center_axis',(-1.,0.,0.));
#959=DIRECTION('ref_axis',(0.,0.,1.));
#960=DIRECTION('center_axis',(0.,0.,1.));
#961=DIRECTION('ref_axis',(0.70710678118656,-0.707106781186535,0.));
#962=DIRECTION('center_axis',(0.,0.,1.));
#963=DIRECTION('ref_axis',(0.707106781186556,-0.707106781186539,0.));
#964=DIRECTION('center_axis',(0.,0.,-1.));
#965=DIRECTION('ref_axis',(0.,-1.,0.));
#966=DIRECTION('',(0.,0.,-1.));
#967=DIRECTION('center_axis',(0.,0.,-1.));
#968=DIRECTION('ref_axis',(-1.,0.,0.));
#969=DIRECTION('center_axis',(0.,0.,1.));
#970=DIRECTION('ref_axis',(0.707106781186554,-0.707106781186541,0.));
#971=DIRECTION('center_axis',(0.,0.,-1.));
#972=DIRECTION('ref_axis',(-1.,0.,0.));
#973=DIRECTION('center_axis',(0.,0.,-1.));
#974=DIRECTION('ref_axis',(1.,0.,0.));
#975=DIRECTION('center_axis',(0.,0.,1.));
#976=DIRECTION('ref_axis',(0.707106781186552,0.707106781186543,0.));
#977=DIRECTION('center_axis',(0.,0.,1.));
#978=DIRECTION('ref_axis',(1.,0.,0.));
#979=DIRECTION('center_axis',(-1.,0.,0.));
#980=DIRECTION('ref_axis',(0.,0.,1.));
#981=DIRECTION('center_axis',(0.,0.,-1.));
#982=DIRECTION('ref_axis',(0.707106781186548,0.707106781186547,0.));
#983=DIRECTION('center_axis',(0.,-1.,0.));
#984=DIRECTION('ref_axis',(1.,0.,0.));
#985=DIRECTION('center_axis',(0.,0.,1.));
#986=DIRECTION('ref_axis',(0.707106781186548,0.707106781186547,0.));
#987=DIRECTION('center_axis',(0.,1.,0.));
#988=DIRECTION('ref_axis',(0.707106781186553,0.,0.707106781186542));
#989=DIRECTION('',(0.,-1.,0.));
#990=DIRECTION('center_axis',(0.,-1.,0.));
#991=DIRECTION('ref_axis',(1.,0.,0.));
#992=DIRECTION('',(0.,1.,0.));
#993=DIRECTION('center_axis',(0.,0.,1.));
#994=DIRECTION('ref_axis',(1.,0.,0.));
#995=DIRECTION('center_axis',(0.,0.,-1.));
#996=DIRECTION('ref_axis',(0.707106781186546,-0.707106781186549,0.));
#997=DIRECTION('center_axis',(-1.,0.,0.));
#998=DIRECTION('ref_axis',(0.,-1.,0.));
#999=DIRECTION('center_axis',(0.,0.,1.));
#1000=DIRECTION('ref_axis',(0.707106781186546,-0.707106781186549,0.));
#1001=DIRECTION('center_axis',(-1.,0.,0.));
#1002=DIRECTION('ref_axis',(0.,-1.,0.));
#1003=DIRECTION('',(0.,1.,1.224646799147E-16));
#1004=DIRECTION('',(0.,0.,1.));
#1005=DIRECTION('center_axis',(0.,0.,1.));
#1006=DIRECTION('ref_axis',(0.707106781186554,0.707106781186541,0.));
#1007=DIRECTION('center_axis',(0.,0.,1.));
#1008=DIRECTION('ref_axis',(0.70710678118655,0.707106781186545,0.));
#1009=DIRECTION('',(0.,0.,-1.));
#1010=DIRECTION('center_axis',(-1.53827095269652E-17,-1.,0.));
#1011=DIRECTION('ref_axis',(1.,-1.53827095269652E-17,0.));
#1012=DIRECTION('',(0.,0.,1.));
#1013=DIRECTION('',(-1.,1.53827095269652E-17,-1.22464679914735E-16));
#1014=DIRECTION('center_axis',(-0.408248290463861,0.408248290463847,-0.816496580927735));
#1015=DIRECTION('ref_axis',(0.577350269189651,-0.577350269189609,-0.577350269189618));
#1016=DIRECTION('center_axis',(1.,0.,0.));
#1017=DIRECTION('ref_axis',(0.,-1.,0.));
#1018=DIRECTION('center_axis',(0.,-1.,0.));
#1019=DIRECTION('ref_axis',(0.,0.,-1.));
#1020=DIRECTION('center_axis',(-0.408248290463861,-0.408248290463857,-0.81649658092773));
#1021=DIRECTION('ref_axis',(0.577350269189644,0.577350269189616,-0.577350269189617));
#1022=DIRECTION('center_axis',(0.,1.,0.));
#1023=DIRECTION('ref_axis',(1.,0.,0.));
#1024=DIRECTION('center_axis',(1.,0.,0.));
#1025=DIRECTION('ref_axis',(0.,0.,-1.));
#1026=DIRECTION('center_axis',(0.,-1.,-1.224646799147E-16));
#1027=DIRECTION('ref_axis',(0.707106781186528,0.,-0.707106781186567));
#1028=DIRECTION('',(0.,-1.,-1.224646799147E-16));
#1029=DIRECTION('center_axis',(-1.,0.,-1.22464679914735E-16));
#1030=DIRECTION('ref_axis',(0.,-0.70710678118654,-0.707106781186555));
#1031=DIRECTION('center_axis',(1.,-2.01858731750028E-17,0.));
#1032=DIRECTION('ref_axis',(0.,-0.70710678118654,-0.707106781186555));
#1033=DIRECTION('',(-1.,0.,-1.22464679914735E-16));
#1034=DIRECTION('center_axis',(1.,0.,1.51870265961937E-13));
#1035=DIRECTION('ref_axis',(-1.51870265961937E-13,0.,1.));
#1036=DIRECTION('',(1.85987435095889E-29,-1.,-1.224646799147E-16));
#1037=DIRECTION('',(-1.51870265961937E-13,0.,1.));
#1038=DIRECTION('center_axis',(0.,0.,1.));
#1039=DIRECTION('ref_axis',(1.,-4.44089209850069E-16,0.));
#1040=DIRECTION('center_axis',(-1.22464679914735E-16,-1.224646799147E-16,
1.));
#1041=DIRECTION('ref_axis',(1.,-4.44089209850069E-16,0.));
#1042=DIRECTION('',(0.,0.,1.));
#1043=DIRECTION('',(0.,0.,1.));
#1044=DIRECTION('center_axis',(1.,0.,0.));
#1045=DIRECTION('ref_axis',(0.,1.,0.));
#1046=DIRECTION('',(0.,1.,1.224646799147E-16));
#1047=DIRECTION('',(0.,0.,1.));
#1048=DIRECTION('center_axis',(0.,0.,1.));
#1049=DIRECTION('ref_axis',(0.,-1.,0.));
#1050=DIRECTION('center_axis',(-1.22464679914735E-16,-1.224646799147E-16,
1.));
#1051=DIRECTION('ref_axis',(0.,-1.,0.));
#1052=DIRECTION('',(0.,0.,1.));
#1053=DIRECTION('center_axis',(-1.,0.,0.));
#1054=DIRECTION('ref_axis',(0.,0.707106781186548,0.707106781186547));
#1055=DIRECTION('center_axis',(-1.,2.01858731750028E-17,0.));
#1056=DIRECTION('ref_axis',(0.,0.707106781186548,0.707106781186547));
#1057=DIRECTION('',(1.,0.,0.));
#1058=DIRECTION('',(-1.,0.,0.));
#1059=DIRECTION('center_axis',(0.,0.,1.));
#1060=DIRECTION('ref_axis',(1.,0.,0.));
#1061=DIRECTION('',(2.01858731750028E-17,1.,0.));
#1062=DIRECTION('',(-1.,-5.51663614720575E-17,0.));
#1063=DIRECTION('',(2.01858731750028E-17,1.,0.));
#1064=DIRECTION('center_axis',(0.,1.,0.));
#1065=DIRECTION('ref_axis',(-1.,0.,-1.69994475971103E-49));
#1066=DIRECTION('',(0.,0.,-1.));
#1067=DIRECTION('',(-1.,0.,-1.22464679914735E-16));
#1068=DIRECTION('',(-1.,0.,-1.22464679914735E-16));
#1069=DIRECTION('center_axis',(-1.22464679914735E-16,-1.224646799147E-16,
1.));
#1070=DIRECTION('ref_axis',(1.,0.,1.22464679914735E-16));
#1071=DIRECTION('',(-2.01858731750028E-17,-1.,-1.224646799147E-16));
#1072=DIRECTION('',(1.,-1.53827095269652E-17,1.22464679914735E-16));
#1073=DIRECTION('',(-2.01858731750028E-17,-1.,-1.224646799147E-16));
#1074=DIRECTION('',(1.,5.51663614720575E-17,1.22464679914735E-16));
#1075=DIRECTION('center_axis',(1.,-1.53827095269652E-17,1.22464679914735E-16));
#1076=DIRECTION('ref_axis',(0.,0.70710678118655,-0.707106781186545));
#1077=DIRECTION('center_axis',(1.,-2.01858731750028E-17,0.));
#1078=DIRECTION('ref_axis',(0.,0.70710678118655,-0.707106781186545));
#1079=DIRECTION('center_axis',(5.51663614720574E-17,-1.,0.));
#1080=DIRECTION('ref_axis',(1.,5.51663614720575E-17,0.));
#1081=DIRECTION('',(0.,0.,1.));
#1082=DIRECTION('',(1.,5.51663614720575E-17,0.));
#1083=DIRECTION('center_axis',(1.,5.51663614720574E-17,0.));
#1084=DIRECTION('ref_axis',(0.,-0.707106781186546,0.707106781186549));
#1085=DIRECTION('center_axis',(-1.,2.01858731750028E-17,0.));
#1086=DIRECTION('ref_axis',(0.,-0.707106781186546,0.707106781186549));
#1087=DIRECTION('center_axis',(-1.,2.01858731750028E-17,0.));
#1088=DIRECTION('ref_axis',(0.,0.,1.));
#1089=DIRECTION('center_axis',(-1.,2.01858731750028E-17,0.));
#1090=DIRECTION('ref_axis',(0.,0.,1.));
#1091=DIRECTION('',(0.,0.,1.));
#1092=DIRECTION('',(1.,0.,0.));
#1093=DIRECTION('',(0.,0.,1.));
#1094=DIRECTION('',(1.,0.,0.));
#1095=DIRECTION('',(0.,0.,1.));
#1096=DIRECTION('',(1.,0.,0.));
#1097=CARTESIAN_POINT('',(0.,0.,0.));
#1098=CARTESIAN_POINT('',(0.,0.,0.));
#1099=CARTESIAN_POINT('',(0.,0.,0.));
#1100=CARTESIAN_POINT('',(0.,0.,0.));
#1101=CARTESIAN_POINT('Origin',(341.914213562373,-129.949091799245,-15.412480314961));
#1102=CARTESIAN_POINT('',(340.414213562373,-129.949091799245,6.73751968503902));
#1103=CARTESIAN_POINT('Origin',(341.914213562373,-129.949091799245,6.73751968503902));
#1104=CARTESIAN_POINT('',(340.414213562373,-129.949091799245,9.58751968503902));
#1105=CARTESIAN_POINT('',(340.414213562373,-129.949091799245,-15.412480314961));
#1106=CARTESIAN_POINT('Origin',(341.914213562373,-129.949091799245,9.58751968503902));
#1107=CARTESIAN_POINT('Origin',(341.914213562373,-129.949091799245,9.58751968503902));
#1108=CARTESIAN_POINT('Origin',(341.914213562373,-18.120664674499,-15.412480314961));
#1109=CARTESIAN_POINT('',(340.414213562373,-18.120664674499,6.73751968503902));
#1110=CARTESIAN_POINT('Origin',(341.914213562373,-18.120664674499,6.73751968503902));
#1111=CARTESIAN_POINT('',(340.414213562373,-18.120664674499,9.58751968503902));
#1112=CARTESIAN_POINT('',(340.414213562373,-18.120664674499,-15.412480314961));
#1113=CARTESIAN_POINT('Origin',(341.914213562373,-18.120664674499,9.58751968503902));
#1114=CARTESIAN_POINT('Origin',(341.914213562373,-18.120664674499,9.58751968503902));
#1115=CARTESIAN_POINT('Origin',(338.429565,-18.9999999999999,6.73751968503902));
#1116=CARTESIAN_POINT('',(338.429565,-18.9999999999999,6.73751968503905));
#1117=CARTESIAN_POINT('',(338.429565,-74.479163,6.73751968503904));
#1118=CARTESIAN_POINT('',(338.429565,-46.5,6.73751968503904));
#1119=CARTESIAN_POINT('',(338.429564999999,-74.479163,8.53751968503893));
#1120=CARTESIAN_POINT('',(338.429565,-74.479163,6.73751968503902));
#1121=CARTESIAN_POINT('',(338.429564999999,-19.0000000000022,8.53751968503902));
#1122=CARTESIAN_POINT('',(338.429565,-19.0000000000011,8.53751968503902));
#1123=CARTESIAN_POINT('',(338.429565,-18.9999999999999,6.73751968503902));
#1124=CARTESIAN_POINT('Origin',(338.429565,-74.479163,6.73751968503902));
#1125=CARTESIAN_POINT('',(311.429565,-74.479163,6.73751968503904));
#1126=CARTESIAN_POINT('',(259.2147825,-74.479163,6.73751968503903));
#1127=CARTESIAN_POINT('',(311.429565,-74.479163,8.53751968503893));
#1128=CARTESIAN_POINT('',(311.429565,-74.479163,6.73751968503902));
#1129=CARTESIAN_POINT('',(324.929565,-74.479163,8.53751968503893));
#1130=CARTESIAN_POINT('Origin',(311.429565,-74.479163,6.73751968503902));
#1131=CARTESIAN_POINT('',(311.429565,-18.9999999999999,6.73751968503904));
#1132=CARTESIAN_POINT('',(311.429565,-74.2395815,6.73751968503904));
#1133=CARTESIAN_POINT('',(311.429565,-19.0000000000022,8.53751968503902));
#1134=CARTESIAN_POINT('',(311.429565,-18.9999999999999,6.73751968503902));
#1135=CARTESIAN_POINT('',(311.429565,-46.7395815000011,8.53751968503898));
#1136=CARTESIAN_POINT('Origin',(311.429565,-19.0000000000022,8.53751968503902));
#1137=CARTESIAN_POINT('',(338.429564999999,-19.0000000000022,8.53751968503902));
#1138=CARTESIAN_POINT('Origin',(328.254565,-14.,7.16));
#1139=CARTESIAN_POINT('',(329.079565,-14.,7.16000000000003));
#1140=CARTESIAN_POINT('',(328.254565,-14.,7.985));
#1141=CARTESIAN_POINT('Origin',(328.254565,-14.,7.16));
#1142=CARTESIAN_POINT('',(329.079565,-19.,7.16000000000003));
#1143=CARTESIAN_POINT('',(329.079565,-14.,7.16000000000003));
#1144=CARTESIAN_POINT('',(328.254565,-19.,7.985));
#1145=CARTESIAN_POINT('Origin',(328.254565,-19.0000000000045,7.16));
#1146=CARTESIAN_POINT('',(328.254565,-14.,7.985));
#1147=CARTESIAN_POINT('Origin',(328.254565,-14.,7.985));
#1148=CARTESIAN_POINT('',(321.604565,-14.,7.98500000000006));
#1149=CARTESIAN_POINT('',(334.6272825,-14.,7.98499999999995));
#1150=CARTESIAN_POINT('',(321.604565,-19.,7.98500000000006));
#1151=CARTESIAN_POINT('',(173.6272825,-19.0000000000023,7.98500000000129));
#1152=CARTESIAN_POINT('',(321.604565,-14.,7.98500000000006));
#1153=CARTESIAN_POINT('Origin',(321.604565,-14.,7.16000000000009));
#1154=CARTESIAN_POINT('',(320.779565,-14.,7.15999999999999));
#1155=CARTESIAN_POINT('Origin',(321.604565,-14.,7.16000000000009));
#1156=CARTESIAN_POINT('',(320.779565,-19.,7.15999999999999));
#1157=CARTESIAN_POINT('Origin',(321.604565,-19.0000000000045,7.16000000000009));
#1158=CARTESIAN_POINT('',(320.779565,-14.,7.15999999999999));
#1159=CARTESIAN_POINT('Origin',(320.779565,-14.,7.15999999999999));
#1160=CARTESIAN_POINT('',(320.779565,-19.,6.73751968503905));
#1161=CARTESIAN_POINT('',(320.779565,-14.,6.73751968503905));
#1162=CARTESIAN_POINT('',(320.779565,-44.,6.73751968503904));
#1163=CARTESIAN_POINT('',(320.779565,-14.,6.94875984253096));
#1164=CARTESIAN_POINT('',(320.779565,-19.,6.73751968503902));
#1165=CARTESIAN_POINT('Origin',(19.,-19.0000000000045,6.73751968503902));
#1166=CARTESIAN_POINT('',(99.4999999999996,-19.0000000000033,6.73751968503902));
#1167=CARTESIAN_POINT('',(329.079565,-19.,6.73751968503905));
#1168=CARTESIAN_POINT('',(329.079565,-19.,6.73751968503902));
#1169=CARTESIAN_POINT('',(99.4999999999996,-19.0000000000033,6.73751968503902));
#1170=CARTESIAN_POINT('Origin',(308.703315,-124.789162999542,6.73751968503902));
#1171=CARTESIAN_POINT('',(180.,-124.789162999542,9.73751968503902));
#1172=CARTESIAN_POINT('',(180.,-124.789162999542,7.73751968503901));
#1173=CARTESIAN_POINT('',(180.,-124.789162999542,7.73751968503902));
#1174=CARTESIAN_POINT('',(307.703315,-124.789162999542,9.73751968503902));
#1175=CARTESIAN_POINT('',(244.3516575,-124.789162999542,9.73751968503902));
#1176=CARTESIAN_POINT('',(307.703315,-124.789162999542,7.73751968503903));
#1177=CARTESIAN_POINT('',(307.703315,-124.789162999542,6.73751968503902));
#1178=CARTESIAN_POINT('',(236.435141678514,-124.789162999542,7.73751968503902));
#1179=CARTESIAN_POINT('Origin',(100.00478249999,-25.589163,9.73751968503902));
#1180=CARTESIAN_POINT('',(180.,-26.589163,9.73751968503902));
#1181=CARTESIAN_POINT('',(180.,-25.589163,10.737519685039));
#1182=CARTESIAN_POINT('Origin',(180.,-25.589163,9.73751968503902));
#1183=CARTESIAN_POINT('',(307.703315,-26.589163,9.73751968503902));
#1184=CARTESIAN_POINT('',(100.00478249999,-26.589163,9.73751968503902));
#1185=CARTESIAN_POINT('',(307.703315,-25.589163,10.737519685039));
#1186=CARTESIAN_POINT('Origin',(307.703315,-25.589163,9.73751968503902));
#1187=CARTESIAN_POINT('',(100.00478249999,-25.589163,10.737519685039));
#1188=CARTESIAN_POINT('Origin',(309.703315,-50.2945815,9.73751968503902));
#1189=CARTESIAN_POINT('',(308.703315,-123.789162999542,9.73751968503902));
#1190=CARTESIAN_POINT('',(309.703315,-123.789162999542,10.737519685039));
#1191=CARTESIAN_POINT('Origin',(309.703315,-123.789162999542,9.73751968503902));
#1192=CARTESIAN_POINT('',(309.703315,-27.589163,10.737519685039));
#1193=CARTESIAN_POINT('',(309.703315,-50.2945815,10.737519685039));
#1194=CARTESIAN_POINT('',(308.703315,-27.589163,9.73751968503902));
#1195=CARTESIAN_POINT('Origin',(309.703315,-27.589163,9.73751968503902));
#1196=CARTESIAN_POINT('',(308.703315,-50.2945815,9.73751968503902));
#1197=CARTESIAN_POINT('Origin',(244.3516575,-125.789162999542,9.73751968503902));
#1198=CARTESIAN_POINT('',(180.,-125.789162999542,10.737519685039));
#1199=CARTESIAN_POINT('Origin',(180.,-125.789162999542,9.73751968503902));
#1200=CARTESIAN_POINT('',(307.703315,-125.789162999542,10.737519685039));
#1201=CARTESIAN_POINT('',(244.3516575,-125.789162999542,10.737519685039));
#1202=CARTESIAN_POINT('Origin',(307.703315,-125.789162999542,9.73751968503902));
#1203=CARTESIAN_POINT('Origin',(307.703315,-123.789162999542,6.73751968503902));
#1204=CARTESIAN_POINT('',(308.703315,-123.789162999542,7.73751968503903));
#1205=CARTESIAN_POINT('Origin',(307.703315,-123.789162999542,7.73751968503903));
#1206=CARTESIAN_POINT('Origin',(307.703315,-123.789162999542,9.73751968503902));
#1207=CARTESIAN_POINT('',(308.703315,-123.789162999542,6.73751968503902));
#1208=CARTESIAN_POINT('Origin',(307.703315,-123.789162999542,9.73751968503902));
#1209=CARTESIAN_POINT('Origin',(307.703315,-123.789162999542,10.737519685039));
#1210=CARTESIAN_POINT('Origin',(307.703315,-27.589163,9.73751968503902));
#1211=CARTESIAN_POINT('Origin',(307.703315,-27.589163,9.73751968503902));
#1212=CARTESIAN_POINT('Origin',(307.703315,-27.589163,10.737519685039));
#1213=CARTESIAN_POINT('Origin',(341.,-18.9999999999999,8.73751968503902));
#1214=CARTESIAN_POINT('',(341.,-16.,10.737519685039));
#1215=CARTESIAN_POINT('',(341.,-14.,8.73751968503902));
#1216=CARTESIAN_POINT('Origin',(341.,-16.,8.73751968503902));
#1217=CARTESIAN_POINT('',(344.,-18.9999999999999,10.737519685039));
#1218=CARTESIAN_POINT('Origin',(341.,-18.9999999999999,10.737519685039));
#1219=CARTESIAN_POINT('',(346.,-18.9999999999999,8.73751968503902));
#1220=CARTESIAN_POINT('Origin',(344.,-18.9999999999999,8.73751968503902));
#1221=CARTESIAN_POINT('Origin',(341.,-18.9999999999999,8.73751968503902));
#1222=CARTESIAN_POINT('Origin',(344.,-101.5,8.73751968503902));
#1223=CARTESIAN_POINT('',(344.,-129.,10.737519685039));
#1224=CARTESIAN_POINT('',(344.,-101.5,10.737519685039));
#1225=CARTESIAN_POINT('',(346.,-129.,8.73751968503902));
#1226=CARTESIAN_POINT('Origin',(344.,-129.,8.73751968503902));
#1227=CARTESIAN_POINT('',(346.,-101.5,8.73751968503902));
#1228=CARTESIAN_POINT('Origin',(341.,-129.,8.73751968503902));
#1229=CARTESIAN_POINT('',(341.,-132.,10.737519685039));
#1230=CARTESIAN_POINT('Origin',(341.,-129.,10.737519685039));
#1231=CARTESIAN_POINT('',(341.,-134.,8.73751968503902));
#1232=CARTESIAN_POINT('Origin',(341.,-132.,8.73751968503902));
#1233=CARTESIAN_POINT('Origin',(341.,-129.,8.73751968503902));
#1234=CARTESIAN_POINT('Origin',(308.703315,-26.589163,6.73751968503902));
#1235=CARTESIAN_POINT('',(308.703315,-27.589163,7.73751968503904));
#1236=CARTESIAN_POINT('',(308.703315,-51.2054113264828,7.73751968503904));
#1237=CARTESIAN_POINT('',(308.703315,-27.589163,6.73751968503902));
#1238=CARTESIAN_POINT('Origin',(307.703315,-27.589163,6.73751968503902));
#1239=CARTESIAN_POINT('',(307.703315,-26.589163,7.73751968503904));
#1240=CARTESIAN_POINT('Origin',(307.703315,-27.589163,7.73751968503904));
#1241=CARTESIAN_POINT('',(307.703315,-26.589163,6.73751968503902));
#1242=CARTESIAN_POINT('Origin',(20.0095649999795,-26.589163,6.73751968503902));
#1243=CARTESIAN_POINT('',(180.,-26.589163,7.73751968503903));
#1244=CARTESIAN_POINT('',(180.,-26.589163,7.73751968503902));
#1245=CARTESIAN_POINT('',(92.0882666785036,-26.589163,7.73751968503901));
#1246=CARTESIAN_POINT('Origin',(307.703315,-123.789162999542,7.73751968503903));
#1247=CARTESIAN_POINT('',(307.703315,-123.789162999542,6.73751968503903));
#1248=CARTESIAN_POINT('Origin',(307.703315,-123.789162999542,7.73751968503903));
#1249=CARTESIAN_POINT('Origin',(307.703315,-123.789162999542,7.73751968503903));
#1250=CARTESIAN_POINT('Origin',(307.703315,-27.589163,7.73751968503904));
#1251=CARTESIAN_POINT('',(307.703315,-27.589163,6.73751968503904));
#1252=CARTESIAN_POINT('Origin',(307.703315,-27.589163,7.73751968503904));
#1253=CARTESIAN_POINT('Origin',(307.703315,-27.589163,7.73751968503904));
#1254=CARTESIAN_POINT('Origin',(307.703315,-51.2054113264828,7.73751968503904));
#1255=CARTESIAN_POINT('',(307.703315,-51.2054113264828,6.73751968503904));
#1256=CARTESIAN_POINT('Origin',(236.435141678514,-123.789162999542,7.73751968503902));
#1257=CARTESIAN_POINT('',(180.,-123.789162999542,6.73751968503901));
#1258=CARTESIAN_POINT('Origin',(180.,-123.789162999542,7.73751968503901));
#1259=CARTESIAN_POINT('',(236.435141678514,-123.789162999542,6.73751968503902));
#1260=CARTESIAN_POINT('Origin',(329.079565,-14.,6.22427669529707));
#1261=CARTESIAN_POINT('',(329.079565,-14.,6.73751968503905));
#1262=CARTESIAN_POINT('',(329.079565,-44.,6.73751968503904));
#1263=CARTESIAN_POINT('',(329.079565,-14.,6.48089819016714));
#1264=CARTESIAN_POINT('Origin',(341.,-18.9999999999999,6.73751968503902));
#1265=CARTESIAN_POINT('',(346.,-18.9999999999999,6.73751968503905));
#1266=CARTESIAN_POINT('',(341.,-14.,6.73751968503905));
#1267=CARTESIAN_POINT('Origin',(341.,-18.9999999999999,6.73751968503902));
#1268=CARTESIAN_POINT('',(341.,-14.,6.73751968503902));
#1269=CARTESIAN_POINT('',(346.,-18.9999999999999,6.73751968503902));
#1270=CARTESIAN_POINT('Origin',(346.,-129.,6.73751968503902));
#1271=CARTESIAN_POINT('',(346.,-129.,6.73751968503904));
#1272=CARTESIAN_POINT('',(346.,-101.5,6.73751968503904));
#1273=CARTESIAN_POINT('',(346.,-129.,6.73751968503902));
#1274=CARTESIAN_POINT('Origin',(341.,-129.,6.73751968503902));
#1275=CARTESIAN_POINT('',(341.,-134.,6.73751968503903));
#1276=CARTESIAN_POINT('Origin',(341.,-129.,6.73751968503902));
#1277=CARTESIAN_POINT('',(341.,-134.,6.73751968503902));
#1278=CARTESIAN_POINT('Origin',(260.5,-16.,8.73751968503902));
#1279=CARTESIAN_POINT('',(180.,-16.,10.737519685039));
#1280=CARTESIAN_POINT('',(180.,-14.,8.73751968503902));
#1281=CARTESIAN_POINT('Origin',(180.,-16.,8.73751968503902));
#1282=CARTESIAN_POINT('',(260.5,-16.,10.737519685039));
#1283=CARTESIAN_POINT('',(260.5,-14.,8.73751968503902));
#1284=CARTESIAN_POINT('Origin',(180.,-74.,10.737519685039));
#1285=CARTESIAN_POINT('',(180.,-132.,10.737519685039));
#1286=CARTESIAN_POINT('',(180.,-74.,10.737519685039));
#1287=CARTESIAN_POINT('',(99.5,-132.,10.737519685039));
#1288=CARTESIAN_POINT('',(180.,-74.,10.737519685039));
#1289=CARTESIAN_POINT('Origin',(341.,-14.,6.73751968503902));
#1290=CARTESIAN_POINT('',(180.,-14.,6.73751968503903));
#1291=CARTESIAN_POINT('',(180.,-14.,7.73751968503902));
#1292=CARTESIAN_POINT('',(260.5,-14.,6.73751968503904));
#1293=CARTESIAN_POINT('',(260.5,-14.,6.73751968503904));
#1294=CARTESIAN_POINT('Origin',(180.,-74.,6.73751968503902));
#1295=CARTESIAN_POINT('',(180.,-134.,6.73751968503901));
#1296=CARTESIAN_POINT('',(180.,-74.,6.73751968503902));
#1297=CARTESIAN_POINT('',(180.,-27.589163,6.73751968503903));
#1298=CARTESIAN_POINT('',(92.0882666785036,-27.589163,6.73751968503901));
#1299=CARTESIAN_POINT('',(180.,-74.,6.73751968503902));
#1300=CARTESIAN_POINT('',(99.5,-134.,6.737519685039));
#1301=CARTESIAN_POINT('Origin',(92.0882666785036,-27.589163,7.73751968503901));
#1302=CARTESIAN_POINT('Origin',(180.,-27.589163,7.73751968503903));
#1303=CARTESIAN_POINT('Origin',(19.,-134.,6.73751968503902));
#1304=CARTESIAN_POINT('',(180.,-134.,8.73751968503902));
#1305=CARTESIAN_POINT('',(180.,-134.,7.73751968503902));
#1306=CARTESIAN_POINT('',(99.5,-134.,8.73751968503902));
#1307=CARTESIAN_POINT('Origin',(99.5,-132.,8.73751968503902));
#1308=CARTESIAN_POINT('Origin',(180.,-132.,8.73751968503902));
#1309=CARTESIAN_POINT('Origin',(180.,-74.,8.73751968503902));
#1310=CARTESIAN_POINT('Origin',(180.,-74.,8.73751968503902));
#1311=CARTESIAN_POINT('',(0.,0.,0.));
#1312=CARTESIAN_POINT('',(0.,0.,0.));
#1313=CARTESIAN_POINT('',(0.,0.,0.));
#1314=UNCERTAINTY_MEASURE_WITH_UNIT(LENGTH_MEASURE(0.01),#1324,
'DISTANCE_ACCURACY_VALUE',
'Maximum model space distance between geometric entities at asserted c
onnectivities');
#1315=UNCERTAINTY_MEASURE_WITH_UNIT(LENGTH_MEASURE(0.01),#1324,
'DISTANCE_ACCURACY_VALUE',
'Maximum model space distance between geometric entities at asserted c
onnectivities');
#1316=UNCERTAINTY_MEASURE_WITH_UNIT(LENGTH_MEASURE(0.01),#1324,
'DISTANCE_ACCURACY_VALUE',
'Maximum model space distance between geometric entities at asserted c
onnectivities');
#1317=UNCERTAINTY_MEASURE_WITH_UNIT(LENGTH_MEASURE(0.01),#1324,
'DISTANCE_ACCURACY_VALUE',
'Maximum model space distance between geometric entities at asserted c
onnectivities');
#1318=UNCERTAINTY_MEASURE_WITH_UNIT(LENGTH_MEASURE(0.01),#1324,
'DISTANCE_ACCURACY_VALUE',
'Maximum model space distance between geometric entities at asserted c
onnectivities');
#1319=(
GEOMETRIC_REPRESENTATION_CONTEXT(3)
GLOBAL_UNCERTAINTY_ASSIGNED_CONTEXT((#1314))
GLOBAL_UNIT_ASSIGNED_CONTEXT((#1324,#1326,#1327))
REPRESENTATION_CONTEXT('','3D')
);
#1320=(
GEOMETRIC_REPRESENTATION_CONTEXT(3)
GLOBAL_UNCERTAINTY_ASSIGNED_CONTEXT((#1315))
GLOBAL_UNIT_ASSIGNED_CONTEXT((#1324,#1326,#1327))
REPRESENTATION_CONTEXT('','3D')
);
#1321=(
GEOMETRIC_REPRESENTATION_CONTEXT(3)
GLOBAL_UNCERTAINTY_ASSIGNED_CONTEXT((#1316))
GLOBAL_UNIT_ASSIGNED_CONTEXT((#1324,#1326,#1327))
REPRESENTATION_CONTEXT('','3D')
);
#1322=(
GEOMETRIC_REPRESENTATION_CONTEXT(3)
GLOBAL_UNCERTAINTY_ASSIGNED_CONTEXT((#1317))
GLOBAL_UNIT_ASSIGNED_CONTEXT((#1324,#1326,#1327))
REPRESENTATION_CONTEXT('','3D')
);
#1323=(
GEOMETRIC_REPRESENTATION_CONTEXT(3)
GLOBAL_UNCERTAINTY_ASSIGNED_CONTEXT((#1318))
GLOBAL_UNIT_ASSIGNED_CONTEXT((#1324,#1326,#1327))
REPRESENTATION_CONTEXT('','3D')
);
#1324=(
LENGTH_UNIT()
NAMED_UNIT(*)
SI_UNIT(.MILLI.,.METRE.)
);
#1325=(
LENGTH_UNIT()
NAMED_UNIT(*)
SI_UNIT($,.METRE.)
);
#1326=(
NAMED_UNIT(*)
PLANE_ANGLE_UNIT()
SI_UNIT($,.RADIAN.)
);
#1327=(
NAMED_UNIT(*)
SI_UNIT($,.STERADIAN.)
SOLID_ANGLE_UNIT()
);
#1328=SHAPE_DEFINITION_REPRESENTATION(#1332,#1339);
#1329=SHAPE_DEFINITION_REPRESENTATION(#1333,#1340);
#1330=SHAPE_DEFINITION_REPRESENTATION(#1334,#1341);
#1331=SHAPE_DEFINITION_REPRESENTATION(#1335,#1342);
#1332=PRODUCT_DEFINITION_SHAPE('',$,#1344);
#1333=PRODUCT_DEFINITION_SHAPE('',$,#1345);
#1334=PRODUCT_DEFINITION_SHAPE('',$,#1346);
#1335=PRODUCT_DEFINITION_SHAPE('',$,#1347);
#1336=PRODUCT_DEFINITION_SHAPE($,$,#20);
#1337=PRODUCT_DEFINITION_SHAPE($,$,#21);
#1338=PRODUCT_DEFINITION_SHAPE($,$,#22);
#1339=SHAPE_REPRESENTATION('',(#768,#853,#854,#855),#1319);
#1340=SHAPE_REPRESENTATION('',(#769),#1320);
#1341=SHAPE_REPRESENTATION('',(#770),#1321);
#1342=SHAPE_REPRESENTATION('',(#771),#1322);
#1343=PRODUCT_DEFINITION_CONTEXT('part definition',#1357,'design');
#1344=PRODUCT_DEFINITION('.step 1','Keeb v7',#1348,#1343);
#1345=PRODUCT_DEFINITION('My-keebs_PCB','My-keebs_PCB',#1349,#1343);
#1346=PRODUCT_DEFINITION('Component39','Component39',#1350,#1343);
#1347=PRODUCT_DEFINITION('Component40','Component40',#1351,#1343);
#1348=PRODUCT_DEFINITION_FORMATION('',$,#1359);
#1349=PRODUCT_DEFINITION_FORMATION('',$,#1360);
#1350=PRODUCT_DEFINITION_FORMATION('',$,#1361);
#1351=PRODUCT_DEFINITION_FORMATION('',$,#1362);
#1352=PRODUCT_RELATED_PRODUCT_CATEGORY('Keeb v7','Keeb v7',(#1359));
#1353=PRODUCT_RELATED_PRODUCT_CATEGORY('My-keebs_PCB','My-keebs_PCB',(#1360));
#1354=PRODUCT_RELATED_PRODUCT_CATEGORY('Component39','Component39',(#1361));
#1355=PRODUCT_RELATED_PRODUCT_CATEGORY('Component40','Component40',(#1362));
#1356=APPLICATION_PROTOCOL_DEFINITION('international standard',
'automotive_design',2009,#1357);
#1357=APPLICATION_CONTEXT(
'Core Data for Automotive Mechanical Design Process');
#1358=PRODUCT_CONTEXT('part definition',#1357,'mechanical');
#1359=PRODUCT('.step 1','Keeb v7','KiCad electronic assembly',(#1358));
#1360=PRODUCT('My-keebs_PCB','My-keebs_PCB',$,(#1358));
#1361=PRODUCT('Component39','Component39',$,(#1358));
#1362=PRODUCT('Component40','Component40',$,(#1358));
#1363=PRESENTATION_STYLE_ASSIGNMENT((#1365));
#1364=PRESENTATION_STYLE_ASSIGNMENT((#1366));
#1365=SURFACE_STYLE_USAGE(.BOTH.,#1367);
#1366=SURFACE_STYLE_USAGE(.BOTH.,#1368);
#1367=SURFACE_SIDE_STYLE('',(#1369));
#1368=SURFACE_SIDE_STYLE('',(#1370));
#1369=SURFACE_STYLE_FILL_AREA(#1371);
#1370=SURFACE_STYLE_FILL_AREA(#1372);
#1371=FILL_AREA_STYLE('Steel - Satin',(#1373));
#1372=FILL_AREA_STYLE('Opaque(246,246,243)',(#1374));
#1373=FILL_AREA_STYLE_COLOUR('Steel - Satin',#1375);
#1374=FILL_AREA_STYLE_COLOUR('Opaque(246,246,243)',#1376);
#1375=COLOUR_RGB('Steel - Satin',0.627450980392157,0.627450980392157,0.627450980392157);
#1376=COLOUR_RGB('Opaque(246,246,243)',0.964705882352941,0.964705882352941,
0.952941176470588);
ENDSEC;
END-ISO-10303-21;
