ISO-10303-21;
HEADER;
/* Generated by software containing ST-Developer
 * from STEP Tools, Inc. (www.steptools.com) 
 */

FILE_DESCRIPTION(
/* description */ ('KiCad electronic assembly'),
/* implementation_level */ '2;1');

FILE_NAME(
/* name */ 'Keeb case-right(step).step',
/* time_stamp */ '2026-09-05T16:31:12+05:30',
/* author */ (''),
/* organization */ (''),
/* preprocessor_version */ 'ST-DEVELOPER v20.1',
/* originating_system */ 'Autodesk Translation Framework v15.8.0.0',
/* authorisation */ '');

FILE_SCHEMA (('AUTOMOTIVE_DESIGN { 1 0 10303 214 3 1 1 }'));
ENDSEC;

DATA;
#10=MECHANICAL_DESIGN_GEOMETRIC_PRESENTATION_REPRESENTATION('',(#48),#1170);
#11=ITEM_DEFINED_TRANSFORMATION($,$,#654,#721);
#12=ITEM_DEFINED_TRANSFORMATION($,$,#719,#722);
#13=ITEM_DEFINED_TRANSFORMATION($,$,#720,#723);
#14=(
REPRESENTATION_RELATIONSHIP($,$,#1187,#1186)
REPRESENTATION_RELATIONSHIP_WITH_TRANSFORMATION(#11)
SHAPE_REPRESENTATION_RELATIONSHIP()
);
#15=(
REPRESENTATION_RELATIONSHIP($,$,#1188,#1186)
REPRESENTATION_RELATIONSHIP_WITH_TRANSFORMATION(#12)
SHAPE_REPRESENTATION_RELATIONSHIP()
);
#16=(
REPRESENTATION_RELATIONSHIP($,$,#1189,#1186)
REPRESENTATION_RELATIONSHIP_WITH_TRANSFORMATION(#13)
SHAPE_REPRESENTATION_RELATIONSHIP()
);
#17=CONTEXT_DEPENDENT_SHAPE_REPRESENTATION(#14,#1183);
#18=CONTEXT_DEPENDENT_SHAPE_REPRESENTATION(#15,#1184);
#19=CONTEXT_DEPENDENT_SHAPE_REPRESENTATION(#16,#1185);
#20=NEXT_ASSEMBLY_USAGE_OCCURRENCE('My-keebs_PCB:1','My-keebs_PCB:1',
'My-keebs_PCB:1',#1191,#1192,'My-keebs_PCB:1');
#21=NEXT_ASSEMBLY_USAGE_OCCURRENCE('Component39:1','Component39:1',
'Component39:1',#1191,#1193,'Component39:1');
#22=NEXT_ASSEMBLY_USAGE_OCCURRENCE('Component40:1','Component40:1',
'Component40:1',#1191,#1194,'Component40:1');
#23=DERIVED_UNIT_ELEMENT(#27,1.);
#24=DERIVED_UNIT_ELEMENT(#1172,-3.);
#25=DERIVED_UNIT_ELEMENT(#27,1.);
#26=DERIVED_UNIT_ELEMENT(#1172,-3.);
#27=(
MASS_UNIT()
NAMED_UNIT(*)
SI_UNIT(.KILO.,.GRAM.)
);
#28=DERIVED_UNIT((#23,#24));
#29=DERIVED_UNIT((#25,#26));
#30=MEASURE_REPRESENTATION_ITEM('density measure',
POSITIVE_RATIO_MEASURE(7850.),#28);
#31=MEASURE_REPRESENTATION_ITEM('density measure',
POSITIVE_RATIO_MEASURE(7850.),#29);
#32=PROPERTY_DEFINITION_REPRESENTATION(#42,#36);
#33=PROPERTY_DEFINITION_REPRESENTATION(#43,#37);
#34=PROPERTY_DEFINITION_REPRESENTATION(#44,#38);
#35=PROPERTY_DEFINITION_REPRESENTATION(#45,#39);
#36=REPRESENTATION('material name',(#40),#1168);
#37=REPRESENTATION('density',(#30),#1168);
#38=REPRESENTATION('material name',(#41),#1169);
#39=REPRESENTATION('density',(#31),#1169);
#40=DESCRIPTIVE_REPRESENTATION_ITEM('Steel','Steel');
#41=DESCRIPTIVE_REPRESENTATION_ITEM('Steel','Steel');
#42=PROPERTY_DEFINITION('material property','material name',#1193);
#43=PROPERTY_DEFINITION('material property','density of part',#1193);
#44=PROPERTY_DEFINITION('material property','material name',#1194);
#45=PROPERTY_DEFINITION('material property','density of part',#1194);
#46=SHAPE_REPRESENTATION_RELATIONSHIP('SRR','None',#1187,#47);
#47=ADVANCED_BREP_SHAPE_REPRESENTATION('',(#49),#1167);
#48=STYLED_ITEM('',(#1211),#49);
#49=MANIFOLD_SOLID_BREP('Body2',#652);
#50=B_SPLINE_SURFACE_WITH_KNOTS('',3,3,((#1061,#1062,#1063,#1064,#1065,
#1066),(#1067,#1068,#1069,#1070,#1071,#1072),(#1073,#1074,#1075,#1076,#1077,
#1078),(#1079,#1080,#1081,#1082,#1083,#1084),(#1085,#1086,#1087,#1088,#1089,
#1090)),.UNSPECIFIED.,.F.,.F.,.F.,(4,1,4),(4,1,1,4),(0.,0.571428571428571,
1.),(-1.12572566943729E-34,0.673198425769241,1.12199737628207,1.5707963267949),
 .UNSPECIFIED.);
#51=B_SPLINE_SURFACE_WITH_KNOTS('',3,3,((#1096,#1097,#1098,#1099,#1100,
#1101),(#1102,#1103,#1104,#1105,#1106,#1107),(#1108,#1109,#1110,#1111,#1112,
#1113),(#1114,#1115,#1116,#1117,#1118,#1119),(#1120,#1121,#1122,#1123,#1124,
#1125)),.UNSPECIFIED.,.F.,.F.,.F.,(4,1,4),(4,1,1,4),(0.,0.571428571428571,
1.),(-1.57079632679489,-0.897597901025653,-0.448798950512826,2.33075035777971E-15),
 .UNSPECIFIED.);
#52=FACE_BOUND('',#116,.T.);
#53=FACE_BOUND('',#125,.T.);
#54=FACE_BOUND('',#128,.T.);
#55=FACE_BOUND('',#136,.T.);
#56=FACE_BOUND('',#146,.T.);
#57=FACE_BOUND('',#147,.T.);
#58=PLANE('',#665);
#59=PLANE('',#666);
#60=PLANE('',#669);
#61=PLANE('',#671);
#62=PLANE('',#674);
#63=PLANE('',#677);
#64=PLANE('',#680);
#65=PLANE('',#681);
#66=PLANE('',#682);
#67=PLANE('',#687);
#68=PLANE('',#691);
#69=PLANE('',#694);
#70=PLANE('',#699);
#71=PLANE('',#700);
#72=PLANE('',#710);
#73=PLANE('',#711);
#74=PLANE('',#714);
#75=PLANE('',#717);
#76=PLANE('',#718);
#77=FACE_OUTER_BOUND('',#111,.T.);
#78=FACE_OUTER_BOUND('',#112,.T.);
#79=FACE_OUTER_BOUND('',#113,.T.);
#80=FACE_OUTER_BOUND('',#114,.T.);
#81=FACE_OUTER_BOUND('',#115,.T.);
#82=FACE_OUTER_BOUND('',#117,.T.);
#83=FACE_OUTER_BOUND('',#118,.T.);
#84=FACE_OUTER_BOUND('',#119,.T.);
#85=FACE_OUTER_BOUND('',#120,.T.);
#86=FACE_OUTER_BOUND('',#121,.T.);
#87=FACE_OUTER_BOUND('',#122,.T.);
#88=FACE_OUTER_BOUND('',#123,.T.);
#89=FACE_OUTER_BOUND('',#124,.T.);
#90=FACE_OUTER_BOUND('',#126,.T.);
#91=FACE_OUTER_BOUND('',#127,.T.);
#92=FACE_OUTER_BOUND('',#129,.T.);
#93=FACE_OUTER_BOUND('',#130,.T.);
#94=FACE_OUTER_BOUND('',#131,.T.);
#95=FACE_OUTER_BOUND('',#132,.T.);
#96=FACE_OUTER_BOUND('',#133,.T.);
#97=FACE_OUTER_BOUND('',#134,.T.);
#98=FACE_OUTER_BOUND('',#135,.T.);
#99=FACE_OUTER_BOUND('',#137,.T.);
#100=FACE_OUTER_BOUND('',#138,.T.);
#101=FACE_OUTER_BOUND('',#139,.T.);
#102=FACE_OUTER_BOUND('',#140,.T.);
#103=FACE_OUTER_BOUND('',#141,.T.);
#104=FACE_OUTER_BOUND('',#142,.T.);
#105=FACE_OUTER_BOUND('',#143,.T.);
#106=FACE_OUTER_BOUND('',#144,.T.);
#107=FACE_OUTER_BOUND('',#145,.T.);
#108=FACE_OUTER_BOUND('',#148,.T.);
#109=FACE_OUTER_BOUND('',#149,.T.);
#110=FACE_OUTER_BOUND('',#150,.T.);
#111=EDGE_LOOP('',(#433,#434,#435,#436,#437,#438,#439,#440));
#112=EDGE_LOOP('',(#441,#442,#443,#444,#445,#446,#447,#448));
#113=EDGE_LOOP('',(#449,#450,#451,#452,#453));
#114=EDGE_LOOP('',(#454,#455,#456,#457,#458,#459,#460,#461,#462,#463,#464,
#465,#466,#467));
#115=EDGE_LOOP('',(#468,#469,#470,#471,#472));
#116=EDGE_LOOP('',(#473));
#117=EDGE_LOOP('',(#474,#475,#476,#477,#478,#479,#480,#481,#482,#483));
#118=EDGE_LOOP('',(#484,#485,#486,#487));
#119=EDGE_LOOP('',(#488,#489,#490,#491));
#120=EDGE_LOOP('',(#492,#493,#494,#495));
#121=EDGE_LOOP('',(#496,#497,#498,#499));
#122=EDGE_LOOP('',(#500,#501,#502,#503));
#123=EDGE_LOOP('',(#504,#505,#506,#507));
#124=EDGE_LOOP('',(#508));
#125=EDGE_LOOP('',(#509));
#126=EDGE_LOOP('',(#510,#511,#512,#513));
#127=EDGE_LOOP('',(#514));
#128=EDGE_LOOP('',(#515));
#129=EDGE_LOOP('',(#516,#517,#518,#519));
#130=EDGE_LOOP('',(#520));
#131=EDGE_LOOP('',(#521,#522,#523,#524));
#132=EDGE_LOOP('',(#525));
#133=EDGE_LOOP('',(#526,#527,#528,#529));
#134=EDGE_LOOP('',(#530,#531,#532,#533));
#135=EDGE_LOOP('',(#534,#535,#536,#537,#538));
#136=EDGE_LOOP('',(#539));
#137=EDGE_LOOP('',(#540,#541,#542,#543));
#138=EDGE_LOOP('',(#544,#545,#546,#547));
#139=EDGE_LOOP('',(#548,#549,#550,#551));
#140=EDGE_LOOP('',(#552,#553,#554,#555));
#141=EDGE_LOOP('',(#556,#557,#558,#559));
#142=EDGE_LOOP('',(#560,#561,#562,#563));
#143=EDGE_LOOP('',(#564,#565,#566,#567,#568,#569,#570,#571,#572,#573));
#144=EDGE_LOOP('',(#574,#575,#576,#577));
#145=EDGE_LOOP('',(#578,#579,#580,#581,#582,#583));
#146=EDGE_LOOP('',(#584));
#147=EDGE_LOOP('',(#585));
#148=EDGE_LOOP('',(#586,#587,#588,#589));
#149=EDGE_LOOP('',(#590,#591,#592,#593));
#150=EDGE_LOOP('',(#594,#595,#596,#597,#598,#599,#600,#601,#602,#603,#604));
#151=CIRCLE('',#657,1.49999999999999);
#152=CIRCLE('',#659,1.49999999999999);
#153=CIRCLE('',#662,1.49999999999999);
#154=CIRCLE('',#663,1.49999999999999);
#155=CIRCLE('',#664,1.49999999999999);
#156=CIRCLE('',#667,4.99999999999996);
#157=CIRCLE('',#668,4.99999999999993);
#158=CIRCLE('',#670,1.99999999999999);
#159=CIRCLE('',#672,0.825000000000051);
#160=CIRCLE('',#673,0.825000000000143);
#161=CIRCLE('',#676,0.825000000000143);
#162=CIRCLE('',#679,0.825000000000051);
#163=CIRCLE('',#683,2.00000000000003);
#164=CIRCLE('',#684,1.40000000000001);
#165=CIRCLE('',#688,1.99999999999999);
#166=CIRCLE('',#689,1.40000000000001);
#167=CIRCLE('',#692,1.40000000000001);
#168=CIRCLE('',#695,1.40000000000001);
#169=CIRCLE('',#703,1.00000000000001);
#170=CIRCLE('',#704,0.999999999999999);
#171=CIRCLE('',#706,1.);
#172=CIRCLE('',#707,1.);
#173=CIRCLE('',#713,1.);
#174=CIRCLE('',#716,1.);
#175=LINE('',#926,#229);
#176=LINE('',#930,#230);
#177=LINE('',#934,#231);
#178=LINE('',#940,#232);
#179=LINE('',#944,#233);
#180=LINE('',#948,#234);
#181=LINE('',#951,#235);
#182=LINE('',#953,#236);
#183=LINE('',#954,#237);
#184=LINE('',#957,#238);
#185=LINE('',#959,#239);
#186=LINE('',#961,#240);
#187=LINE('',#965,#241);
#188=LINE('',#969,#242);
#189=LINE('',#971,#243);
#190=LINE('',#972,#244);
#191=LINE('',#975,#245);
#192=LINE('',#977,#246);
#193=LINE('',#978,#247);
#194=LINE('',#983,#248);
#195=LINE('',#987,#249);
#196=LINE('',#991,#250);
#197=LINE('',#993,#251);
#198=LINE('',#994,#252);
#199=LINE('',#997,#253);
#200=LINE('',#999,#254);
#201=LINE('',#1000,#255);
#202=LINE('',#1004,#256);
#203=LINE('',#1007,#257);
#204=LINE('',#1008,#258);
#205=LINE('',#1012,#259);
#206=LINE('',#1014,#260);
#207=LINE('',#1017,#261);
#208=LINE('',#1018,#262);
#209=LINE('',#1026,#263);
#210=LINE('',#1034,#264);
#211=LINE('',#1039,#265);
#212=LINE('',#1044,#266);
#213=LINE('',#1049,#267);
#214=LINE('',#1050,#268);
#215=LINE('',#1052,#269);
#216=LINE('',#1055,#270);
#217=LINE('',#1056,#271);
#218=LINE('',#1060,#272);
#219=LINE('',#1132,#273);
#220=LINE('',#1135,#274);
#221=LINE('',#1136,#275);
#222=LINE('',#1139,#276);
#223=LINE('',#1140,#277);
#224=LINE('',#1144,#278);
#225=LINE('',#1147,#279);
#226=LINE('',#1148,#280);
#227=LINE('',#1152,#281);
#228=LINE('',#1154,#282);
#229=VECTOR('',#732,1.49999999999999);
#230=VECTOR('',#735,10.);
#231=VECTOR('',#738,10.);
#232=VECTOR('',#745,1.49999999999999);
#233=VECTOR('',#748,10.);
#234=VECTOR('',#751,10.);
#235=VECTOR('',#756,10.);
#236=VECTOR('',#757,10.);
#237=VECTOR('',#758,10.);
#238=VECTOR('',#761,10.);
#239=VECTOR('',#762,10.);
#240=VECTOR('',#763,10.);
#241=VECTOR('',#766,10.);
#242=VECTOR('',#769,10.);
#243=VECTOR('',#770,10.);
#244=VECTOR('',#771,10.);
#245=VECTOR('',#774,10.);
#246=VECTOR('',#775,10.);
#247=VECTOR('',#776,10.);
#248=VECTOR('',#781,10.);
#249=VECTOR('',#784,10.);
#250=VECTOR('',#787,10.);
#251=VECTOR('',#788,10.);
#252=VECTOR('',#789,10.);
#253=VECTOR('',#792,10.);
#254=VECTOR('',#793,10.);
#255=VECTOR('',#794,10.);
#256=VECTOR('',#799,10.);
#257=VECTOR('',#802,10.);
#258=VECTOR('',#803,10.);
#259=VECTOR('',#808,10.);
#260=VECTOR('',#811,10.);
#261=VECTOR('',#814,10.);
#262=VECTOR('',#815,10.);
#263=VECTOR('',#824,2.00000000000003);
#264=VECTOR('',#835,1.99999999999999);
#265=VECTOR('',#842,1.40000000000001);
#266=VECTOR('',#849,1.40000000000001);
#267=VECTOR('',#854,10.);
#268=VECTOR('',#855,10.);
#269=VECTOR('',#858,10.);
#270=VECTOR('',#861,10.);
#271=VECTOR('',#862,10.);
#272=VECTOR('',#867,10.);
#273=VECTOR('',#882,10.);
#274=VECTOR('',#885,10.);
#275=VECTOR('',#886,10.);
#276=VECTOR('',#889,10.);
#277=VECTOR('',#890,10.);
#278=VECTOR('',#895,10.);
#279=VECTOR('',#898,10.);
#280=VECTOR('',#899,10.);
#281=VECTOR('',#904,10.);
#282=VECTOR('',#907,10.);
#283=ELLIPSE('',#656,1.50366284712174,1.49999999999999);
#284=ELLIPSE('',#658,1.50366284712174,1.49999999999999);
#285=ELLIPSE('',#661,1.50366284712174,1.49999999999999);
#286=ELLIPSE('',#686,2.00488379616237,2.00000000000003);
#287=ELLIPSE('',#698,5.00781750311017,4.99999999999993);
#288=ELLIPSE('',#702,5.00781750311021,5.);
#289=ELLIPSE('',#705,4.00976759232465,3.99999999999996);
#290=ELLIPSE('',#708,4.00976759232462,3.99999999999993);
#291=VERTEX_POINT('',#923);
#292=VERTEX_POINT('',#925);
#293=VERTEX_POINT('',#927);
#294=VERTEX_POINT('',#929);
#295=VERTEX_POINT('',#931);
#296=VERTEX_POINT('',#933);
#297=VERTEX_POINT('',#937);
#298=VERTEX_POINT('',#939);
#299=VERTEX_POINT('',#941);
#300=VERTEX_POINT('',#943);
#301=VERTEX_POINT('',#945);
#302=VERTEX_POINT('',#947);
#303=VERTEX_POINT('',#952);
#304=VERTEX_POINT('',#956);
#305=VERTEX_POINT('',#958);
#306=VERTEX_POINT('',#960);
#307=VERTEX_POINT('',#962);
#308=VERTEX_POINT('',#964);
#309=VERTEX_POINT('',#966);
#310=VERTEX_POINT('',#968);
#311=VERTEX_POINT('',#970);
#312=VERTEX_POINT('',#974);
#313=VERTEX_POINT('',#976);
#314=VERTEX_POINT('',#979);
#315=VERTEX_POINT('',#982);
#316=VERTEX_POINT('',#984);
#317=VERTEX_POINT('',#986);
#318=VERTEX_POINT('',#988);
#319=VERTEX_POINT('',#990);
#320=VERTEX_POINT('',#992);
#321=VERTEX_POINT('',#996);
#322=VERTEX_POINT('',#998);
#323=VERTEX_POINT('',#1002);
#324=VERTEX_POINT('',#1006);
#325=VERTEX_POINT('',#1010);
#326=VERTEX_POINT('',#1016);
#327=VERTEX_POINT('',#1020);
#328=VERTEX_POINT('',#1022);
#329=VERTEX_POINT('',#1025);
#330=VERTEX_POINT('',#1029);
#331=VERTEX_POINT('',#1031);
#332=VERTEX_POINT('',#1036);
#333=VERTEX_POINT('',#1041);
#334=VERTEX_POINT('',#1046);
#335=VERTEX_POINT('',#1047);
#336=VERTEX_POINT('',#1054);
#337=VERTEX_POINT('',#1058);
#338=VERTEX_POINT('',#1091);
#339=VERTEX_POINT('',#1093);
#340=VERTEX_POINT('',#1126);
#341=VERTEX_POINT('',#1128);
#342=VERTEX_POINT('',#1134);
#343=VERTEX_POINT('',#1138);
#344=VERTEX_POINT('',#1142);
#345=VERTEX_POINT('',#1146);
#346=VERTEX_POINT('',#1150);
#347=EDGE_CURVE('',#291,#291,#283,.T.);
#348=EDGE_CURVE('',#291,#292,#175,.T.);
#349=EDGE_CURVE('',#293,#292,#151,.T.);
#350=EDGE_CURVE('',#294,#293,#176,.T.);
#351=EDGE_CURVE('',#295,#294,#284,.T.);
#352=EDGE_CURVE('',#296,#295,#177,.T.);
#353=EDGE_CURVE('',#292,#296,#152,.T.);
#354=EDGE_CURVE('',#297,#297,#285,.T.);
#355=EDGE_CURVE('',#297,#298,#178,.T.);
#356=EDGE_CURVE('',#299,#298,#153,.T.);
#357=EDGE_CURVE('',#300,#299,#179,.T.);
#358=EDGE_CURVE('',#301,#300,#154,.T.);
#359=EDGE_CURVE('',#302,#301,#180,.T.);
#360=EDGE_CURVE('',#298,#302,#155,.T.);
#361=EDGE_CURVE('',#293,#302,#181,.T.);
#362=EDGE_CURVE('',#303,#301,#182,.T.);
#363=EDGE_CURVE('',#303,#294,#183,.T.);
#364=EDGE_CURVE('',#304,#296,#184,.T.);
#365=EDGE_CURVE('',#305,#304,#185,.T.);
#366=EDGE_CURVE('',#306,#305,#186,.T.);
#367=EDGE_CURVE('',#307,#306,#156,.T.);
#368=EDGE_CURVE('',#308,#307,#187,.T.);
#369=EDGE_CURVE('',#309,#308,#157,.T.);
#370=EDGE_CURVE('',#310,#309,#188,.T.);
#371=EDGE_CURVE('',#311,#310,#189,.T.);
#372=EDGE_CURVE('',#299,#311,#190,.T.);
#373=EDGE_CURVE('',#300,#312,#191,.T.);
#374=EDGE_CURVE('',#313,#312,#192,.T.);
#375=EDGE_CURVE('',#313,#303,#193,.T.);
#376=EDGE_CURVE('',#314,#314,#158,.T.);
#377=EDGE_CURVE('',#311,#315,#194,.T.);
#378=EDGE_CURVE('',#315,#316,#159,.T.);
#379=EDGE_CURVE('',#316,#317,#195,.T.);
#380=EDGE_CURVE('',#317,#318,#160,.T.);
#381=EDGE_CURVE('',#318,#319,#196,.T.);
#382=EDGE_CURVE('',#319,#320,#197,.T.);
#383=EDGE_CURVE('',#312,#320,#198,.T.);
#384=EDGE_CURVE('',#321,#319,#199,.T.);
#385=EDGE_CURVE('',#322,#318,#200,.T.);
#386=EDGE_CURVE('',#321,#322,#201,.T.);
#387=EDGE_CURVE('',#322,#323,#161,.T.);
#388=EDGE_CURVE('',#323,#317,#202,.T.);
#389=EDGE_CURVE('',#323,#324,#203,.T.);
#390=EDGE_CURVE('',#324,#316,#204,.T.);
#391=EDGE_CURVE('',#324,#325,#162,.T.);
#392=EDGE_CURVE('',#325,#315,#205,.T.);
#393=EDGE_CURVE('',#325,#310,#206,.T.);
#394=EDGE_CURVE('',#295,#326,#207,.T.);
#395=EDGE_CURVE('',#304,#326,#208,.T.);
#396=EDGE_CURVE('',#327,#327,#163,.T.);
#397=EDGE_CURVE('',#328,#328,#164,.T.);
#398=EDGE_CURVE('',#327,#329,#209,.T.);
#399=EDGE_CURVE('',#329,#329,#286,.T.);
#400=EDGE_CURVE('',#330,#330,#165,.T.);
#401=EDGE_CURVE('',#331,#331,#166,.T.);
#402=EDGE_CURVE('',#330,#314,#210,.T.);
#403=EDGE_CURVE('',#332,#332,#167,.T.);
#404=EDGE_CURVE('',#332,#331,#211,.T.);
#405=EDGE_CURVE('',#333,#333,#168,.T.);
#406=EDGE_CURVE('',#333,#328,#212,.T.);
#407=EDGE_CURVE('',#334,#335,#287,.T.);
#408=EDGE_CURVE('',#334,#309,#213,.T.);
#409=EDGE_CURVE('',#335,#308,#214,.T.);
#410=EDGE_CURVE('',#326,#313,#215,.T.);
#411=EDGE_CURVE('',#335,#336,#216,.T.);
#412=EDGE_CURVE('',#336,#307,#217,.T.);
#413=EDGE_CURVE('',#336,#337,#288,.T.);
#414=EDGE_CURVE('',#306,#337,#218,.T.);
#415=EDGE_CURVE('',#336,#338,#169,.T.);
#416=EDGE_CURVE('',#339,#337,#170,.T.);
#417=EDGE_CURVE('',#339,#338,#289,.T.);
#418=EDGE_CURVE('',#340,#334,#171,.T.);
#419=EDGE_CURVE('',#341,#335,#172,.T.);
#420=EDGE_CURVE('',#341,#340,#290,.T.);
#421=EDGE_CURVE('',#338,#341,#219,.T.);
#422=EDGE_CURVE('',#320,#342,#220,.T.);
#423=EDGE_CURVE('',#342,#321,#221,.T.);
#424=EDGE_CURVE('',#342,#343,#222,.T.);
#425=EDGE_CURVE('',#343,#334,#223,.T.);
#426=EDGE_CURVE('',#343,#344,#173,.T.);
#427=EDGE_CURVE('',#340,#344,#224,.T.);
#428=EDGE_CURVE('',#344,#345,#225,.T.);
#429=EDGE_CURVE('',#345,#339,#226,.T.);
#430=EDGE_CURVE('',#345,#346,#174,.T.);
#431=EDGE_CURVE('',#337,#346,#227,.T.);
#432=EDGE_CURVE('',#346,#305,#228,.T.);
#433=ORIENTED_EDGE('',*,*,#347,.F.);
#434=ORIENTED_EDGE('',*,*,#348,.T.);
#435=ORIENTED_EDGE('',*,*,#349,.F.);
#436=ORIENTED_EDGE('',*,*,#350,.F.);
#437=ORIENTED_EDGE('',*,*,#351,.F.);
#438=ORIENTED_EDGE('',*,*,#352,.F.);
#439=ORIENTED_EDGE('',*,*,#353,.F.);
#440=ORIENTED_EDGE('',*,*,#348,.F.);
#441=ORIENTED_EDGE('',*,*,#354,.F.);
#442=ORIENTED_EDGE('',*,*,#355,.T.);
#443=ORIENTED_EDGE('',*,*,#356,.F.);
#444=ORIENTED_EDGE('',*,*,#357,.F.);
#445=ORIENTED_EDGE('',*,*,#358,.F.);
#446=ORIENTED_EDGE('',*,*,#359,.F.);
#447=ORIENTED_EDGE('',*,*,#360,.F.);
#448=ORIENTED_EDGE('',*,*,#355,.F.);
#449=ORIENTED_EDGE('',*,*,#350,.T.);
#450=ORIENTED_EDGE('',*,*,#361,.T.);
#451=ORIENTED_EDGE('',*,*,#359,.T.);
#452=ORIENTED_EDGE('',*,*,#362,.F.);
#453=ORIENTED_EDGE('',*,*,#363,.T.);
#454=ORIENTED_EDGE('',*,*,#349,.T.);
#455=ORIENTED_EDGE('',*,*,#353,.T.);
#456=ORIENTED_EDGE('',*,*,#364,.F.);
#457=ORIENTED_EDGE('',*,*,#365,.F.);
#458=ORIENTED_EDGE('',*,*,#366,.F.);
#459=ORIENTED_EDGE('',*,*,#367,.F.);
#460=ORIENTED_EDGE('',*,*,#368,.F.);
#461=ORIENTED_EDGE('',*,*,#369,.F.);
#462=ORIENTED_EDGE('',*,*,#370,.F.);
#463=ORIENTED_EDGE('',*,*,#371,.F.);
#464=ORIENTED_EDGE('',*,*,#372,.F.);
#465=ORIENTED_EDGE('',*,*,#356,.T.);
#466=ORIENTED_EDGE('',*,*,#360,.T.);
#467=ORIENTED_EDGE('',*,*,#361,.F.);
#468=ORIENTED_EDGE('',*,*,#358,.T.);
#469=ORIENTED_EDGE('',*,*,#373,.T.);
#470=ORIENTED_EDGE('',*,*,#374,.F.);
#471=ORIENTED_EDGE('',*,*,#375,.T.);
#472=ORIENTED_EDGE('',*,*,#362,.T.);
#473=ORIENTED_EDGE('',*,*,#376,.T.);
#474=ORIENTED_EDGE('',*,*,#357,.T.);
#475=ORIENTED_EDGE('',*,*,#372,.T.);
#476=ORIENTED_EDGE('',*,*,#377,.T.);
#477=ORIENTED_EDGE('',*,*,#378,.T.);
#478=ORIENTED_EDGE('',*,*,#379,.T.);
#479=ORIENTED_EDGE('',*,*,#380,.T.);
#480=ORIENTED_EDGE('',*,*,#381,.T.);
#481=ORIENTED_EDGE('',*,*,#382,.T.);
#482=ORIENTED_EDGE('',*,*,#383,.F.);
#483=ORIENTED_EDGE('',*,*,#373,.F.);
#484=ORIENTED_EDGE('',*,*,#384,.T.);
#485=ORIENTED_EDGE('',*,*,#381,.F.);
#486=ORIENTED_EDGE('',*,*,#385,.F.);
#487=ORIENTED_EDGE('',*,*,#386,.F.);
#488=ORIENTED_EDGE('',*,*,#387,.F.);
#489=ORIENTED_EDGE('',*,*,#385,.T.);
#490=ORIENTED_EDGE('',*,*,#380,.F.);
#491=ORIENTED_EDGE('',*,*,#388,.F.);
#492=ORIENTED_EDGE('',*,*,#389,.F.);
#493=ORIENTED_EDGE('',*,*,#388,.T.);
#494=ORIENTED_EDGE('',*,*,#379,.F.);
#495=ORIENTED_EDGE('',*,*,#390,.F.);
#496=ORIENTED_EDGE('',*,*,#391,.F.);
#497=ORIENTED_EDGE('',*,*,#390,.T.);
#498=ORIENTED_EDGE('',*,*,#378,.F.);
#499=ORIENTED_EDGE('',*,*,#392,.F.);
#500=ORIENTED_EDGE('',*,*,#371,.T.);
#501=ORIENTED_EDGE('',*,*,#393,.F.);
#502=ORIENTED_EDGE('',*,*,#392,.T.);
#503=ORIENTED_EDGE('',*,*,#377,.F.);
#504=ORIENTED_EDGE('',*,*,#352,.T.);
#505=ORIENTED_EDGE('',*,*,#394,.T.);
#506=ORIENTED_EDGE('',*,*,#395,.F.);
#507=ORIENTED_EDGE('',*,*,#364,.T.);
#508=ORIENTED_EDGE('',*,*,#396,.T.);
#509=ORIENTED_EDGE('',*,*,#397,.T.);
#510=ORIENTED_EDGE('',*,*,#396,.F.);
#511=ORIENTED_EDGE('',*,*,#398,.T.);
#512=ORIENTED_EDGE('',*,*,#399,.T.);
#513=ORIENTED_EDGE('',*,*,#398,.F.);
#514=ORIENTED_EDGE('',*,*,#400,.T.);
#515=ORIENTED_EDGE('',*,*,#401,.T.);
#516=ORIENTED_EDGE('',*,*,#400,.F.);
#517=ORIENTED_EDGE('',*,*,#402,.T.);
#518=ORIENTED_EDGE('',*,*,#376,.F.);
#519=ORIENTED_EDGE('',*,*,#402,.F.);
#520=ORIENTED_EDGE('',*,*,#403,.T.);
#521=ORIENTED_EDGE('',*,*,#403,.F.);
#522=ORIENTED_EDGE('',*,*,#404,.T.);
#523=ORIENTED_EDGE('',*,*,#401,.F.);
#524=ORIENTED_EDGE('',*,*,#404,.F.);
#525=ORIENTED_EDGE('',*,*,#405,.T.);
#526=ORIENTED_EDGE('',*,*,#405,.F.);
#527=ORIENTED_EDGE('',*,*,#406,.T.);
#528=ORIENTED_EDGE('',*,*,#397,.F.);
#529=ORIENTED_EDGE('',*,*,#406,.F.);
#530=ORIENTED_EDGE('',*,*,#407,.F.);
#531=ORIENTED_EDGE('',*,*,#408,.T.);
#532=ORIENTED_EDGE('',*,*,#369,.T.);
#533=ORIENTED_EDGE('',*,*,#409,.F.);
#534=ORIENTED_EDGE('',*,*,#351,.T.);
#535=ORIENTED_EDGE('',*,*,#363,.F.);
#536=ORIENTED_EDGE('',*,*,#375,.F.);
#537=ORIENTED_EDGE('',*,*,#410,.F.);
#538=ORIENTED_EDGE('',*,*,#394,.F.);
#539=ORIENTED_EDGE('',*,*,#399,.F.);
#540=ORIENTED_EDGE('',*,*,#411,.F.);
#541=ORIENTED_EDGE('',*,*,#409,.T.);
#542=ORIENTED_EDGE('',*,*,#368,.T.);
#543=ORIENTED_EDGE('',*,*,#412,.F.);
#544=ORIENTED_EDGE('',*,*,#413,.F.);
#545=ORIENTED_EDGE('',*,*,#412,.T.);
#546=ORIENTED_EDGE('',*,*,#367,.T.);
#547=ORIENTED_EDGE('',*,*,#414,.T.);
#548=ORIENTED_EDGE('',*,*,#415,.F.);
#549=ORIENTED_EDGE('',*,*,#413,.T.);
#550=ORIENTED_EDGE('',*,*,#416,.F.);
#551=ORIENTED_EDGE('',*,*,#417,.T.);
#552=ORIENTED_EDGE('',*,*,#418,.T.);
#553=ORIENTED_EDGE('',*,*,#407,.T.);
#554=ORIENTED_EDGE('',*,*,#419,.F.);
#555=ORIENTED_EDGE('',*,*,#420,.T.);
#556=ORIENTED_EDGE('',*,*,#415,.T.);
#557=ORIENTED_EDGE('',*,*,#421,.T.);
#558=ORIENTED_EDGE('',*,*,#419,.T.);
#559=ORIENTED_EDGE('',*,*,#411,.T.);
#560=ORIENTED_EDGE('',*,*,#422,.F.);
#561=ORIENTED_EDGE('',*,*,#382,.F.);
#562=ORIENTED_EDGE('',*,*,#384,.F.);
#563=ORIENTED_EDGE('',*,*,#423,.F.);
#564=ORIENTED_EDGE('',*,*,#424,.F.);
#565=ORIENTED_EDGE('',*,*,#423,.T.);
#566=ORIENTED_EDGE('',*,*,#386,.T.);
#567=ORIENTED_EDGE('',*,*,#387,.T.);
#568=ORIENTED_EDGE('',*,*,#389,.T.);
#569=ORIENTED_EDGE('',*,*,#391,.T.);
#570=ORIENTED_EDGE('',*,*,#393,.T.);
#571=ORIENTED_EDGE('',*,*,#370,.T.);
#572=ORIENTED_EDGE('',*,*,#408,.F.);
#573=ORIENTED_EDGE('',*,*,#425,.F.);
#574=ORIENTED_EDGE('',*,*,#426,.F.);
#575=ORIENTED_EDGE('',*,*,#425,.T.);
#576=ORIENTED_EDGE('',*,*,#418,.F.);
#577=ORIENTED_EDGE('',*,*,#427,.T.);
#578=ORIENTED_EDGE('',*,*,#428,.F.);
#579=ORIENTED_EDGE('',*,*,#427,.F.);
#580=ORIENTED_EDGE('',*,*,#420,.F.);
#581=ORIENTED_EDGE('',*,*,#421,.F.);
#582=ORIENTED_EDGE('',*,*,#417,.F.);
#583=ORIENTED_EDGE('',*,*,#429,.F.);
#584=ORIENTED_EDGE('',*,*,#347,.T.);
#585=ORIENTED_EDGE('',*,*,#354,.T.);
#586=ORIENTED_EDGE('',*,*,#430,.F.);
#587=ORIENTED_EDGE('',*,*,#429,.T.);
#588=ORIENTED_EDGE('',*,*,#416,.T.);
#589=ORIENTED_EDGE('',*,*,#431,.T.);
#590=ORIENTED_EDGE('',*,*,#432,.F.);
#591=ORIENTED_EDGE('',*,*,#431,.F.);
#592=ORIENTED_EDGE('',*,*,#414,.F.);
#593=ORIENTED_EDGE('',*,*,#366,.T.);
#594=ORIENTED_EDGE('',*,*,#422,.T.);
#595=ORIENTED_EDGE('',*,*,#424,.T.);
#596=ORIENTED_EDGE('',*,*,#426,.T.);
#597=ORIENTED_EDGE('',*,*,#428,.T.);
#598=ORIENTED_EDGE('',*,*,#430,.T.);
#599=ORIENTED_EDGE('',*,*,#432,.T.);
#600=ORIENTED_EDGE('',*,*,#365,.T.);
#601=ORIENTED_EDGE('',*,*,#395,.T.);
#602=ORIENTED_EDGE('',*,*,#410,.T.);
#603=ORIENTED_EDGE('',*,*,#374,.T.);
#604=ORIENTED_EDGE('',*,*,#383,.T.);
#605=CYLINDRICAL_SURFACE('',#655,1.49999999999999);
#606=CYLINDRICAL_SURFACE('',#660,1.49999999999999);
#607=CYLINDRICAL_SURFACE('',#675,0.825000000000143);
#608=CYLINDRICAL_SURFACE('',#678,0.825000000000051);
#609=CYLINDRICAL_SURFACE('',#685,2.00000000000003);
#610=CYLINDRICAL_SURFACE('',#690,1.99999999999999);
#611=CYLINDRICAL_SURFACE('',#693,1.40000000000001);
#612=CYLINDRICAL_SURFACE('',#696,1.40000000000001);
#613=CYLINDRICAL_SURFACE('',#697,4.99999999999993);
#614=CYLINDRICAL_SURFACE('',#701,4.99999999999996);
#615=CYLINDRICAL_SURFACE('',#709,1.);
#616=CYLINDRICAL_SURFACE('',#712,1.);
#617=CYLINDRICAL_SURFACE('',#715,1.);
#618=ADVANCED_FACE('',(#77),#605,.F.);
#619=ADVANCED_FACE('',(#78),#606,.F.);
#620=ADVANCED_FACE('',(#79),#58,.T.);
#621=ADVANCED_FACE('',(#80),#59,.T.);
#622=ADVANCED_FACE('',(#81,#52),#60,.F.);
#623=ADVANCED_FACE('',(#82),#61,.T.);
#624=ADVANCED_FACE('',(#83),#62,.F.);
#625=ADVANCED_FACE('',(#84),#607,.F.);
#626=ADVANCED_FACE('',(#85),#63,.F.);
#627=ADVANCED_FACE('',(#86),#608,.F.);
#628=ADVANCED_FACE('',(#87),#64,.F.);
#629=ADVANCED_FACE('',(#88),#65,.T.);
#630=ADVANCED_FACE('',(#89,#53),#66,.F.);
#631=ADVANCED_FACE('',(#90),#609,.T.);
#632=ADVANCED_FACE('',(#91,#54),#67,.F.);
#633=ADVANCED_FACE('',(#92),#610,.T.);
#634=ADVANCED_FACE('',(#93),#68,.F.);
#635=ADVANCED_FACE('',(#94),#611,.T.);
#636=ADVANCED_FACE('',(#95),#69,.F.);
#637=ADVANCED_FACE('',(#96),#612,.T.);
#638=ADVANCED_FACE('',(#97),#613,.T.);
#639=ADVANCED_FACE('',(#98,#55),#70,.T.);
#640=ADVANCED_FACE('',(#99),#71,.T.);
#641=ADVANCED_FACE('',(#100),#614,.T.);
#642=ADVANCED_FACE('',(#101),#50,.F.);
#643=ADVANCED_FACE('',(#102),#51,.F.);
#644=ADVANCED_FACE('',(#103),#615,.T.);
#645=ADVANCED_FACE('',(#104),#72,.T.);
#646=ADVANCED_FACE('',(#105),#73,.T.);
#647=ADVANCED_FACE('',(#106),#616,.T.);
#648=ADVANCED_FACE('',(#107,#56,#57),#74,.F.);
#649=ADVANCED_FACE('',(#108),#617,.T.);
#650=ADVANCED_FACE('',(#109),#75,.T.);
#651=ADVANCED_FACE('',(#110),#76,.T.);
#652=CLOSED_SHELL('',(#618,#619,#620,#621,#622,#623,#624,#625,#626,#627,
#628,#629,#630,#631,#632,#633,#634,#635,#636,#637,#638,#639,#640,#641,#642,
#643,#644,#645,#646,#647,#648,#649,#650,#651));
#653=AXIS2_PLACEMENT_3D('',#920,#724,#725);
#654=AXIS2_PLACEMENT_3D('',#921,#726,#727);
#655=AXIS2_PLACEMENT_3D('',#922,#728,#729);
#656=AXIS2_PLACEMENT_3D('',#924,#730,#731);
#657=AXIS2_PLACEMENT_3D('',#928,#733,#734);
#658=AXIS2_PLACEMENT_3D('',#932,#736,#737);
#659=AXIS2_PLACEMENT_3D('',#935,#739,#740);
#660=AXIS2_PLACEMENT_3D('',#936,#741,#742);
#661=AXIS2_PLACEMENT_3D('',#938,#743,#744);
#662=AXIS2_PLACEMENT_3D('',#942,#746,#747);
#663=AXIS2_PLACEMENT_3D('',#946,#749,#750);
#664=AXIS2_PLACEMENT_3D('',#949,#752,#753);
#665=AXIS2_PLACEMENT_3D('',#950,#754,#755);
#666=AXIS2_PLACEMENT_3D('',#955,#759,#760);
#667=AXIS2_PLACEMENT_3D('',#963,#764,#765);
#668=AXIS2_PLACEMENT_3D('',#967,#767,#768);
#669=AXIS2_PLACEMENT_3D('',#973,#772,#773);
#670=AXIS2_PLACEMENT_3D('',#980,#777,#778);
#671=AXIS2_PLACEMENT_3D('',#981,#779,#780);
#672=AXIS2_PLACEMENT_3D('',#985,#782,#783);
#673=AXIS2_PLACEMENT_3D('',#989,#785,#786);
#674=AXIS2_PLACEMENT_3D('',#995,#790,#791);
#675=AXIS2_PLACEMENT_3D('',#1001,#795,#796);
#676=AXIS2_PLACEMENT_3D('',#1003,#797,#798);
#677=AXIS2_PLACEMENT_3D('',#1005,#800,#801);
#678=AXIS2_PLACEMENT_3D('',#1009,#804,#805);
#679=AXIS2_PLACEMENT_3D('',#1011,#806,#807);
#680=AXIS2_PLACEMENT_3D('',#1013,#809,#810);
#681=AXIS2_PLACEMENT_3D('',#1015,#812,#813);
#682=AXIS2_PLACEMENT_3D('',#1019,#816,#817);
#683=AXIS2_PLACEMENT_3D('',#1021,#818,#819);
#684=AXIS2_PLACEMENT_3D('',#1023,#820,#821);
#685=AXIS2_PLACEMENT_3D('',#1024,#822,#823);
#686=AXIS2_PLACEMENT_3D('',#1027,#825,#826);
#687=AXIS2_PLACEMENT_3D('',#1028,#827,#828);
#688=AXIS2_PLACEMENT_3D('',#1030,#829,#830);
#689=AXIS2_PLACEMENT_3D('',#1032,#831,#832);
#690=AXIS2_PLACEMENT_3D('',#1033,#833,#834);
#691=AXIS2_PLACEMENT_3D('',#1035,#836,#837);
#692=AXIS2_PLACEMENT_3D('',#1037,#838,#839);
#693=AXIS2_PLACEMENT_3D('',#1038,#840,#841);
#694=AXIS2_PLACEMENT_3D('',#1040,#843,#844);
#695=AXIS2_PLACEMENT_3D('',#1042,#845,#846);
#696=AXIS2_PLACEMENT_3D('',#1043,#847,#848);
#697=AXIS2_PLACEMENT_3D('',#1045,#850,#851);
#698=AXIS2_PLACEMENT_3D('',#1048,#852,#853);
#699=AXIS2_PLACEMENT_3D('',#1051,#856,#857);
#700=AXIS2_PLACEMENT_3D('',#1053,#859,#860);
#701=AXIS2_PLACEMENT_3D('',#1057,#863,#864);
#702=AXIS2_PLACEMENT_3D('',#1059,#865,#866);
#703=AXIS2_PLACEMENT_3D('',#1092,#868,#869);
#704=AXIS2_PLACEMENT_3D('',#1094,#870,#871);
#705=AXIS2_PLACEMENT_3D('',#1095,#872,#873);
#706=AXIS2_PLACEMENT_3D('',#1127,#874,#875);
#707=AXIS2_PLACEMENT_3D('',#1129,#876,#877);
#708=AXIS2_PLACEMENT_3D('',#1130,#878,#879);
#709=AXIS2_PLACEMENT_3D('',#1131,#880,#881);
#710=AXIS2_PLACEMENT_3D('',#1133,#883,#884);
#711=AXIS2_PLACEMENT_3D('',#1137,#887,#888);
#712=AXIS2_PLACEMENT_3D('',#1141,#891,#892);
#713=AXIS2_PLACEMENT_3D('',#1143,#893,#894);
#714=AXIS2_PLACEMENT_3D('',#1145,#896,#897);
#715=AXIS2_PLACEMENT_3D('',#1149,#900,#901);
#716=AXIS2_PLACEMENT_3D('',#1151,#902,#903);
#717=AXIS2_PLACEMENT_3D('',#1153,#905,#906);
#718=AXIS2_PLACEMENT_3D('',#1155,#908,#909);
#719=AXIS2_PLACEMENT_3D('',#1156,#910,#911);
#720=AXIS2_PLACEMENT_3D('',#1157,#912,#913);
#721=AXIS2_PLACEMENT_3D('',#1158,#914,#915);
#722=AXIS2_PLACEMENT_3D('',#1159,#916,#917);
#723=AXIS2_PLACEMENT_3D('',#1160,#918,#919);
#724=DIRECTION('axis',(0.,0.,1.));
#725=DIRECTION('refdir',(1.,0.,0.));
#726=DIRECTION('axis',(0.,0.,1.));
#727=DIRECTION('refdir',(1.,0.,0.));
#728=DIRECTION('center_axis',(0.,0.,1.));
#729=DIRECTION('ref_axis',(1.,0.,0.));
#730=DIRECTION('center_axis',(-1.39961283013352E-18,0.0697564737441253,
0.997564050259824));
#731=DIRECTION('ref_axis',(0.,0.997564050259824,-0.0697564737441253));
#732=DIRECTION('',(0.,0.,1.));
#733=DIRECTION('center_axis',(0.,0.,-1.));
#734=DIRECTION('ref_axis',(1.,0.,0.));
#735=DIRECTION('',(0.,0.,1.));
#736=DIRECTION('center_axis',(0.,-0.0697564737441253,-0.997564050259824));
#737=DIRECTION('ref_axis',(0.,0.997564050259824,-0.0697564737441253));
#738=DIRECTION('',(0.,0.,-1.));
#739=DIRECTION('center_axis',(0.,0.,-1.));
#740=DIRECTION('ref_axis',(1.,0.,0.));
#741=DIRECTION('center_axis',(0.,0.,1.));
#742=DIRECTION('ref_axis',(1.,0.,0.));
#743=DIRECTION('center_axis',(-1.39961283013352E-18,0.0697564737441253,
0.997564050259824));
#744=DIRECTION('ref_axis',(0.,0.997564050259824,-0.0697564737441253));
#745=DIRECTION('',(0.,0.,1.));
#746=DIRECTION('center_axis',(0.,0.,-1.));
#747=DIRECTION('ref_axis',(1.,0.,0.));
#748=DIRECTION('',(0.,0.,1.));
#749=DIRECTION('center_axis',(0.,0.,-1.));
#750=DIRECTION('ref_axis',(1.,0.,0.));
#751=DIRECTION('',(0.,0.,-1.));
#752=DIRECTION('center_axis',(0.,0.,-1.));
#753=DIRECTION('ref_axis',(1.,0.,0.));
#754=DIRECTION('center_axis',(-1.,0.,0.));
#755=DIRECTION('ref_axis',(0.,-1.,0.));
#756=DIRECTION('',(0.,1.,0.));
#757=DIRECTION('',(0.,1.,0.));
#758=DIRECTION('',(0.,-0.997564050259824,0.0697564737441253));
#759=DIRECTION('center_axis',(0.,0.,1.));
#760=DIRECTION('ref_axis',(-1.,0.,0.));
#761=DIRECTION('',(1.,-3.5527136788005E-15,0.));
#762=DIRECTION('',(2.01858731750028E-17,1.,0.));
#763=DIRECTION('',(-1.,0.,0.));
#764=DIRECTION('center_axis',(0.,0.,-1.));
#765=DIRECTION('ref_axis',(0.,-1.,0.));
#766=DIRECTION('',(0.,-1.,0.));
#767=DIRECTION('center_axis',(0.,0.,-1.));
#768=DIRECTION('ref_axis',(1.,0.,0.));
#769=DIRECTION('',(1.,0.,0.));
#770=DIRECTION('',(0.,1.,0.));
#771=DIRECTION('',(-1.,-1.42108547152018E-14,0.));
#772=DIRECTION('center_axis',(0.,0.,-1.));
#773=DIRECTION('ref_axis',(1.,0.,0.));
#774=DIRECTION('',(-1.,-1.42108547152018E-14,0.));
#775=DIRECTION('',(2.01858731750028E-17,1.,0.));
#776=DIRECTION('',(1.,0.,0.));
#777=DIRECTION('center_axis',(0.,0.,-1.));
#778=DIRECTION('ref_axis',(1.,0.,0.));
#779=DIRECTION('center_axis',(1.42108547152018E-14,-1.,0.));
#780=DIRECTION('ref_axis',(1.,1.42108547152018E-14,0.));
#781=DIRECTION('',(-0.707106781186548,-1.0048591735576E-14,-0.707106781186548));
#782=DIRECTION('center_axis',(-1.42108547152018E-14,1.,0.));
#783=DIRECTION('ref_axis',(0.707106781187084,0.,-0.707106781186011));
#784=DIRECTION('',(-1.,-1.42108547152018E-14,-5.00716337995504E-15));
#785=DIRECTION('center_axis',(-1.42108547152018E-14,1.,0.));
#786=DIRECTION('ref_axis',(-8.61263922133305E-14,0.,-1.));
#787=DIRECTION('',(-0.707106781186585,-1.00485917355766E-14,0.70710678118651));
#788=DIRECTION('',(-1.,-1.42108547152018E-14,0.));
#789=DIRECTION('',(0.,0.,1.));
#790=DIRECTION('center_axis',(-0.70710678118651,0.,-0.707106781186585));
#791=DIRECTION('ref_axis',(0.707106781186585,0.,-0.70710678118651));
#792=DIRECTION('',(0.,-1.,0.));
#793=DIRECTION('',(0.,-1.,0.));
#794=DIRECTION('',(0.707106781186585,0.,-0.70710678118651));
#795=DIRECTION('center_axis',(0.,-1.,0.));
#796=DIRECTION('ref_axis',(-8.61263922133305E-14,0.,-1.));
#797=DIRECTION('center_axis',(0.,-1.,0.));
#798=DIRECTION('ref_axis',(-8.61263922133305E-14,0.,-1.));
#799=DIRECTION('',(0.,-1.,0.));
#800=DIRECTION('center_axis',(5.00716337995504E-15,0.,-1.));
#801=DIRECTION('ref_axis',(1.,0.,5.00716337995504E-15));
#802=DIRECTION('',(1.,0.,5.00716337995504E-15));
#803=DIRECTION('',(0.,-1.,0.));
#804=DIRECTION('center_axis',(0.,-1.,0.));
#805=DIRECTION('ref_axis',(0.707106781187084,0.,-0.707106781186011));
#806=DIRECTION('center_axis',(0.,-1.,0.));
#807=DIRECTION('ref_axis',(0.707106781187084,0.,-0.707106781186011));
#808=DIRECTION('',(0.,-1.,0.));
#809=DIRECTION('center_axis',(0.707106781186548,0.,-0.707106781186548));
#810=DIRECTION('ref_axis',(0.707106781186548,0.,0.707106781186548));
#811=DIRECTION('',(0.707106781186548,0.,0.707106781186548));
#812=DIRECTION('center_axis',(3.5527136788005E-15,1.,0.));
#813=DIRECTION('ref_axis',(-1.,3.5527136788005E-15,0.));
#814=DIRECTION('',(-1.,3.5527136788005E-15,-2.48429941306619E-16));
#815=DIRECTION('',(0.,0.,-1.));
#816=DIRECTION('center_axis',(0.,0.,-1.));
#817=DIRECTION('ref_axis',(1.,0.,0.));
#818=DIRECTION('center_axis',(0.,0.,1.));
#819=DIRECTION('ref_axis',(1.,0.,0.));
#820=DIRECTION('center_axis',(0.,0.,-1.));
#821=DIRECTION('ref_axis',(1.,0.,0.));
#822=DIRECTION('center_axis',(0.,0.,1.));
#823=DIRECTION('ref_axis',(1.,0.,0.));
#824=DIRECTION('',(0.,0.,-1.));
#825=DIRECTION('center_axis',(0.,0.0697564737441253,0.997564050259824));
#826=DIRECTION('ref_axis',(0.,0.997564050259824,-0.0697564737441253));
#827=DIRECTION('center_axis',(0.,0.,-1.));
#828=DIRECTION('ref_axis',(1.,0.,0.));
#829=DIRECTION('center_axis',(0.,0.,1.));
#830=DIRECTION('ref_axis',(1.,0.,0.));
#831=DIRECTION('center_axis',(0.,0.,-1.));
#832=DIRECTION('ref_axis',(1.,0.,0.));
#833=DIRECTION('center_axis',(0.,0.,1.));
#834=DIRECTION('ref_axis',(1.,0.,0.));
#835=DIRECTION('',(0.,0.,-1.));
#836=DIRECTION('center_axis',(0.,0.,-1.));
#837=DIRECTION('ref_axis',(1.,0.,0.));
#838=DIRECTION('center_axis',(0.,0.,1.));
#839=DIRECTION('ref_axis',(1.,0.,0.));
#840=DIRECTION('center_axis',(0.,0.,1.));
#841=DIRECTION('ref_axis',(1.,0.,0.));
#842=DIRECTION('',(0.,0.,-1.));
#843=DIRECTION('center_axis',(0.,0.,-1.));
#844=DIRECTION('ref_axis',(1.,0.,0.));
#845=DIRECTION('center_axis',(0.,0.,1.));
#846=DIRECTION('ref_axis',(1.,0.,0.));
#847=DIRECTION('center_axis',(0.,0.,1.));
#848=DIRECTION('ref_axis',(1.,0.,0.));
#849=DIRECTION('',(0.,0.,-1.));
#850=DIRECTION('center_axis',(0.,0.,1.));
#851=DIRECTION('ref_axis',(1.,0.,0.));
#852=DIRECTION('center_axis',(0.,-0.0558541216009411,-0.998438940096082));
#853=DIRECTION('ref_axis',(0.,0.998438940096082,-0.0558541216009411));
#854=DIRECTION('',(0.,0.,1.));
#855=DIRECTION('',(0.,0.,1.));
#856=DIRECTION('center_axis',(0.,0.0697564737441253,0.997564050259824));
#857=DIRECTION('ref_axis',(8.3902922510363E-19,-0.997564050259824,0.0697564737441253));
#858=DIRECTION('',(2.0136701402487E-17,0.997564050259824,-0.0697564737441253));
#859=DIRECTION('center_axis',(1.,0.,0.));
#860=DIRECTION('ref_axis',(0.,1.,0.));
#861=DIRECTION('',(0.,-0.997564050259824,0.0697564737441253));
#862=DIRECTION('',(0.,0.,1.));
#863=DIRECTION('center_axis',(0.,0.,1.));
#864=DIRECTION('ref_axis',(0.,-1.,0.));
#865=DIRECTION('center_axis',(0.,-0.0558541216009412,-0.998438940096082));
#866=DIRECTION('ref_axis',(0.,-0.998438940096082,0.0558541216009412));
#867=DIRECTION('',(0.,0.,-1.));
#868=DIRECTION('center_axis',(0.,0.997564050259824,-0.0697564737441247));
#869=DIRECTION('ref_axis',(1.,0.,0.));
#870=DIRECTION('center_axis',(-1.,0.,0.));
#871=DIRECTION('ref_axis',(0.,-0.0697564737441248,-0.997564050259824));
#872=DIRECTION('center_axis',(-1.39961283013352E-18,0.0697564737441253,
0.997564050259824));
#873=DIRECTION('ref_axis',(0.,-0.997564050259824,0.0697564737441253));
#874=DIRECTION('center_axis',(1.,0.,0.));
#875=DIRECTION('ref_axis',(0.,-0.0697564737441247,-0.997564050259824));
#876=DIRECTION('center_axis',(-1.32902229256412E-14,-0.997564050259824,
0.0697564737441247));
#877=DIRECTION('ref_axis',(0.,-0.0697564737441247,-0.997564050259824));
#878=DIRECTION('center_axis',(-1.39961283013352E-18,0.0697564737441253,
0.997564050259824));
#879=DIRECTION('ref_axis',(0.,0.997564050259824,-0.0697564737441253));
#880=DIRECTION('center_axis',(0.,0.997564050259824,-0.0697564737441253));
#881=DIRECTION('ref_axis',(0.707106781186577,-0.0493252756161298,-0.705384304606611));
#882=DIRECTION('',(0.,0.997564050259824,-0.0697564737441253));
#883=DIRECTION('center_axis',(0.,0.,1.));
#884=DIRECTION('ref_axis',(-1.,0.,0.));
#885=DIRECTION('',(2.01858731750028E-17,1.,0.));
#886=DIRECTION('',(1.,0.,0.));
#887=DIRECTION('center_axis',(0.,1.,0.));
#888=DIRECTION('ref_axis',(-1.,0.,0.));
#889=DIRECTION('',(0.,0.,-1.));
#890=DIRECTION('',(1.,0.,1.40303054201781E-18));
#891=DIRECTION('center_axis',(1.,0.,1.40303054201781E-18));
#892=DIRECTION('ref_axis',(0.,0.6819983600625,-0.731353701619169));
#893=DIRECTION('center_axis',(-1.,2.01858731750028E-17,0.));
#894=DIRECTION('ref_axis',(0.,0.6819983600625,-0.731353701619169));
#895=DIRECTION('',(-1.,0.,-1.40303054201781E-18));
#896=DIRECTION('center_axis',(-1.39961283013352E-18,0.0697564737441253,
0.997564050259824));
#897=DIRECTION('ref_axis',(8.3902922510363E-19,-0.997564050259824,0.0697564737441253));
#898=DIRECTION('',(-2.0136701402487E-17,-0.997564050259824,0.0697564737441253));
#899=DIRECTION('',(1.,0.,1.40303054201781E-18));
#900=DIRECTION('center_axis',(1.,0.,1.40303054201781E-18));
#901=DIRECTION('ref_axis',(0.,-0.731353701619169,-0.6819983600625));
#902=DIRECTION('center_axis',(-1.,2.01858731750028E-17,0.));
#903=DIRECTION('ref_axis',(0.,-0.731353701619169,-0.6819983600625));
#904=DIRECTION('',(-1.,0.,-1.40303054201781E-18));
#905=DIRECTION('center_axis',(0.,-1.,0.));
#906=DIRECTION('ref_axis',(1.,0.,0.));
#907=DIRECTION('',(0.,0.,1.));
#908=DIRECTION('center_axis',(-1.,2.01858731750028E-17,0.));
#909=DIRECTION('ref_axis',(0.,0.,1.));
#910=DIRECTION('axis',(0.,0.,1.));
#911=DIRECTION('refdir',(1.,0.,0.));
#912=DIRECTION('axis',(0.,0.,1.));
#913=DIRECTION('refdir',(1.,0.,0.));
#914=DIRECTION('',(0.,0.,1.));
#915=DIRECTION('',(1.,0.,0.));
#916=DIRECTION('',(0.,0.,1.));
#917=DIRECTION('',(1.,0.,0.));
#918=DIRECTION('',(0.,0.,1.));
#919=DIRECTION('',(1.,0.,0.));
#920=CARTESIAN_POINT('',(0.,0.,0.));
#921=CARTESIAN_POINT('',(0.,0.,0.));
#922=CARTESIAN_POINT('Origin',(341.914213562373,-129.949091799245,-15.412480314961));
#923=CARTESIAN_POINT('',(340.414213562373,-129.949091799245,-7.38204966273336));
#924=CARTESIAN_POINT('Origin',(341.914213562373,-129.949091799245,-7.38204966273336));
#925=CARTESIAN_POINT('',(340.414213562373,-129.949091799245,5.24));
#926=CARTESIAN_POINT('',(340.414213562373,-129.949091799245,-15.412480314961));
#927=CARTESIAN_POINT('',(341.,-128.759884684242,5.24));
#928=CARTESIAN_POINT('Origin',(341.914213562373,-129.949091799245,5.24));
#929=CARTESIAN_POINT('',(341.,-128.759884684242,-3.46520712502604));
#930=CARTESIAN_POINT('',(341.,-128.759884684242,-15.412480314961));
#931=CARTESIAN_POINT('',(340.752652218058,-129.000000000001,-3.44841662649623));
#932=CARTESIAN_POINT('Origin',(341.914213562373,-129.949091799245,-3.38204966273336));
#933=CARTESIAN_POINT('',(340.752652218058,-129.000000000001,5.24));
#934=CARTESIAN_POINT('',(340.752652218058,-129.000000000001,-15.412480314961));
#935=CARTESIAN_POINT('Origin',(341.914213562373,-129.949091799245,5.24));
#936=CARTESIAN_POINT('Origin',(341.914213562373,-18.120664674499,-15.412480314961));
#937=CARTESIAN_POINT('',(340.414213562373,-18.120664674499,-15.201855056224));
#938=CARTESIAN_POINT('Origin',(341.914213562373,-18.120664674499,-15.201855056224));
#939=CARTESIAN_POINT('',(340.414213562373,-18.120664674499,5.24));
#940=CARTESIAN_POINT('',(340.414213562373,-18.120664674499,-15.412480314961));
#941=CARTESIAN_POINT('',(340.69898955614,-18.9999999999999,5.24));
#942=CARTESIAN_POINT('Origin',(341.914213562373,-18.120664674499,5.24));
#943=CARTESIAN_POINT('',(340.69898955614,-18.9999999999999,-6.49));
#944=CARTESIAN_POINT('',(340.69898955614,-18.9999999999999,-15.412480314961));
#945=CARTESIAN_POINT('',(341.,-19.3098717895016,-6.49));
#946=CARTESIAN_POINT('Origin',(341.914213562373,-18.120664674499,-6.49));
#947=CARTESIAN_POINT('',(341.,-19.3098717895016,5.24));
#948=CARTESIAN_POINT('',(341.,-19.3098717895016,-15.412480314961));
#949=CARTESIAN_POINT('Origin',(341.914213562373,-18.120664674499,5.24));
#950=CARTESIAN_POINT('Origin',(341.,-18.9999999999999,1.51));
#951=CARTESIAN_POINT('',(341.,-46.5,5.24));
#952=CARTESIAN_POINT('',(341.,-85.5033312835597,-6.49));
#953=CARTESIAN_POINT('',(341.,-124.,-6.49));
#954=CARTESIAN_POINT('',(341.,-16.9401476640471,-11.28440484721));
#955=CARTESIAN_POINT('Origin',(180.,-74.,5.24));
#956=CARTESIAN_POINT('',(180.,-129.000000000001,5.24));
#957=CARTESIAN_POINT('',(260.5,-129.000000000001,5.24));
#958=CARTESIAN_POINT('',(180.,-134.,5.24));
#959=CARTESIAN_POINT('',(180.,-73.9999796829752,5.24));
#960=CARTESIAN_POINT('',(341.,-134.,5.24));
#961=CARTESIAN_POINT('',(99.5,-134.,5.24));
#962=CARTESIAN_POINT('',(346.,-129.,5.24));
#963=CARTESIAN_POINT('Origin',(341.,-129.,5.24));
#964=CARTESIAN_POINT('',(346.,-18.9999999999999,5.24));
#965=CARTESIAN_POINT('',(346.,-101.5,5.24));
#966=CARTESIAN_POINT('',(341.,-14.,5.24));
#967=CARTESIAN_POINT('Origin',(341.,-18.9999999999999,5.24));
#968=CARTESIAN_POINT('',(328.437014493661,-14.,5.24));
#969=CARTESIAN_POINT('',(260.5,-14.,5.24));
#970=CARTESIAN_POINT('',(328.437014493661,-19.0000000000001,5.24));
#971=CARTESIAN_POINT('',(328.437014493661,-44.,5.24));
#972=CARTESIAN_POINT('',(99.4999999999996,-19.0000000000034,5.24));
#973=CARTESIAN_POINT('Origin',(180.,-74.,-6.49));
#974=CARTESIAN_POINT('',(180.,-19.0000000000022,-6.49));
#975=CARTESIAN_POINT('',(341.,-18.9999999999999,-6.49));
#976=CARTESIAN_POINT('',(180.,-85.5033312835597,-6.49));
#977=CARTESIAN_POINT('',(180.,-73.9999796829752,-6.49));
#978=CARTESIAN_POINT('',(97.,-85.5033312835597,-6.49));
#979=CARTESIAN_POINT('',(310.,-83.,-6.49));
#980=CARTESIAN_POINT('Origin',(312.,-83.,-6.49));
#981=CARTESIAN_POINT('Origin',(19.,-19.0000000000045,1.51));
#982=CARTESIAN_POINT('',(328.173651399183,-19.,4.97663690552148));
#983=CARTESIAN_POINT('',(250.013579323007,-19.0000000000012,-73.1834351706545));
#984=CARTESIAN_POINT('',(327.590288304703,-19.,4.73500000000001));
#985=CARTESIAN_POINT('Origin',(327.590288304703,-19.0000000000045,5.55999999999998));
#986=CARTESIAN_POINT('',(322.268841695297,-19.,4.73499999999999));
#987=CARTESIAN_POINT('',(170.634420847649,-19.0000000000023,4.73499999999923));
#988=CARTESIAN_POINT('',(321.685478600817,-19.,4.97663690552161));
#989=CARTESIAN_POINT('Origin',(322.268841695297,-19.0000000000045,5.56000000000013));
#990=CARTESIAN_POINT('',(321.422115506339,-19.0000000000002,5.24));
#991=CARTESIAN_POINT('',(246.548629829337,-19.0000000000013,80.1134856769936));
#992=CARTESIAN_POINT('',(180.,-19.0000000000022,5.24));
#993=CARTESIAN_POINT('',(99.4999999999996,-19.0000000000034,5.24));
#994=CARTESIAN_POINT('',(180.,-19.0000000000022,-1.79398477773742));
#995=CARTESIAN_POINT('Origin',(321.021201905521,-14.,5.64091360081749));
#996=CARTESIAN_POINT('',(321.422115506339,-14.,5.24));
#997=CARTESIAN_POINT('',(321.422115506339,-44.,5.24));
#998=CARTESIAN_POINT('',(321.685478600817,-14.,4.97663690552161));
#999=CARTESIAN_POINT('',(321.685478600817,-14.,4.97663690552161));
#1000=CARTESIAN_POINT('',(327.048629829346,-14.,-0.386514323006458));
#1001=CARTESIAN_POINT('Origin',(322.268841695297,-14.,5.56000000000013));
#1002=CARTESIAN_POINT('',(322.268841695297,-14.,4.73499999999999));
#1003=CARTESIAN_POINT('Origin',(322.268841695297,-14.,5.56000000000013));
#1004=CARTESIAN_POINT('',(322.268841695297,-14.,4.73499999999999));
#1005=CARTESIAN_POINT('Origin',(322.268841695297,-14.,4.73499999999999));
#1006=CARTESIAN_POINT('',(327.590288304703,-14.,4.73500000000001));
#1007=CARTESIAN_POINT('',(331.634420847649,-14.,4.73500000000003));
#1008=CARTESIAN_POINT('',(327.590288304703,-14.,4.73500000000001));
#1009=CARTESIAN_POINT('Origin',(327.590288304703,-14.,5.55999999999998));
#1010=CARTESIAN_POINT('',(328.173651399183,-14.,4.97663690552148));
#1011=CARTESIAN_POINT('Origin',(327.590288304703,-14.,5.55999999999998));
#1012=CARTESIAN_POINT('',(328.173651399183,-14.,4.97663690552148));
#1013=CARTESIAN_POINT('Origin',(328.173651399183,-14.,4.97663690552148));
#1014=CARTESIAN_POINT('',(330.513579323007,-14.,7.31656482934552));
#1015=CARTESIAN_POINT('Origin',(341.,-129.000000000001,1.51));
#1016=CARTESIAN_POINT('',(180.,-129.000000000001,-3.44841662649627));
#1017=CARTESIAN_POINT('',(177.5,-129.000000000001,-3.44841662649627));
#1018=CARTESIAN_POINT('',(180.,-129.000000000001,-1.79398477773742));
#1019=CARTESIAN_POINT('Origin',(336.,-124.,-0.0400000000000011));
#1020=CARTESIAN_POINT('',(334.,-124.,-0.0400000000000011));
#1021=CARTESIAN_POINT('Origin',(336.,-124.,-0.0400000000000011));
#1022=CARTESIAN_POINT('',(334.6,-124.,-0.0400000000000011));
#1023=CARTESIAN_POINT('Origin',(336.,-124.,-0.0400000000000011));
#1024=CARTESIAN_POINT('Origin',(336.,-124.,-9.49));
#1025=CARTESIAN_POINT('',(334.,-124.,-3.79805068621386));
#1026=CARTESIAN_POINT('',(334.,-124.,-9.49));
#1027=CARTESIAN_POINT('Origin',(336.,-124.,-3.79805068621386));
#1028=CARTESIAN_POINT('Origin',(312.,-83.,-0.0400000000000011));
#1029=CARTESIAN_POINT('',(310.,-83.,-0.0400000000000011));
#1030=CARTESIAN_POINT('Origin',(312.,-83.,-0.0400000000000011));
#1031=CARTESIAN_POINT('',(310.6,-83.,-0.0400000000000011));
#1032=CARTESIAN_POINT('Origin',(312.,-83.,-0.0400000000000011));
#1033=CARTESIAN_POINT('Origin',(312.,-83.,-9.49));
#1034=CARTESIAN_POINT('',(310.,-83.,-9.49));
#1035=CARTESIAN_POINT('Origin',(312.,-83.,4.51));
#1036=CARTESIAN_POINT('',(310.6,-83.,4.51));
#1037=CARTESIAN_POINT('Origin',(312.,-83.,4.51));
#1038=CARTESIAN_POINT('Origin',(312.,-83.,-9.49));
#1039=CARTESIAN_POINT('',(310.6,-83.,-9.49));
#1040=CARTESIAN_POINT('Origin',(336.,-124.,4.51));
#1041=CARTESIAN_POINT('',(334.6,-124.,4.51));
#1042=CARTESIAN_POINT('Origin',(336.,-124.,4.51));
#1043=CARTESIAN_POINT('Origin',(336.,-124.,-9.49));
#1044=CARTESIAN_POINT('',(334.6,-124.,-9.49));
#1045=CARTESIAN_POINT('Origin',(341.,-18.9999999999999,1.51));
#1046=CARTESIAN_POINT('',(341.,-14.,-14.4176312899753));
#1047=CARTESIAN_POINT('',(346.,-18.9999999999999,-14.1379240422013));
#1048=CARTESIAN_POINT('Origin',(341.,-18.9999999999999,-14.1379240422013));
#1049=CARTESIAN_POINT('',(341.,-14.,1.51));
#1050=CARTESIAN_POINT('',(346.,-18.9999999999999,1.51));
#1051=CARTESIAN_POINT('Origin',(14.,-14.,-11.49));
#1052=CARTESIAN_POINT('',(180.,-44.0764004875597,-9.38685319916871));
#1053=CARTESIAN_POINT('Origin',(346.,-129.,1.51));
#1054=CARTESIAN_POINT('',(346.,-129.,-6.44597472841513));
#1055=CARTESIAN_POINT('',(346.,-71.7419361816563,-10.44984858929));
#1056=CARTESIAN_POINT('',(346.,-129.,1.51));
#1057=CARTESIAN_POINT('Origin',(341.,-129.,1.51));
#1058=CARTESIAN_POINT('',(341.,-134.,-6.16626748064109));
#1059=CARTESIAN_POINT('Origin',(341.,-129.,-6.44597472841513));
#1060=CARTESIAN_POINT('',(341.,-134.,1.51));
#1061=CARTESIAN_POINT('Ctrl Pts',(341.,-133.069756473744,-7.16383153090091));
#1062=CARTESIAN_POINT('Ctrl Pts',(341.897597901026,-133.069756473744,-7.16383153090091));
#1063=CARTESIAN_POINT('Ctrl Pts',(343.387966458797,-132.544841833519,-7.20053713823431));
#1064=CARTESIAN_POINT('Ctrl Pts',(344.726168061371,-130.862629388802,-7.31816889150513));
#1065=CARTESIAN_POINT('Ctrl Pts',(345.,-129.668155074428,-7.40169467225768));
#1066=CARTESIAN_POINT('Ctrl Pts',(345.,-129.069756473744,-7.44353877867495));
#1067=CARTESIAN_POINT('Ctrl Pts',(341.,-133.354961585589,-7.14388804667962));
#1068=CARTESIAN_POINT('Ctrl Pts',(341.962143013917,-133.354961585589,-7.14388804667962));
#1069=CARTESIAN_POINT('Ctrl Pts',(343.559131572572,-132.794966215291,-7.18281688575164));
#1070=CARTESIAN_POINT('Ctrl Pts',(344.999339344243,-130.994366334707,-7.3089121452519));
#1071=CARTESIAN_POINT('Ctrl Pts',(345.29716849579,-129.712884662386,-7.39848476536501));
#1072=CARTESIAN_POINT('Ctrl Pts',(345.299199300342,-129.069756473744,-7.44353877867493));
#1073=CARTESIAN_POINT('Ctrl Pts',(341.,-133.833498679621,-6.88159818508756));
#1074=CARTESIAN_POINT('Ctrl Pts',(342.07335654803,-133.833498679621,-6.88159818508755));
#1075=CARTESIAN_POINT('Ctrl Pts',(343.856299189312,-133.210959782524,-6.92224224769392));
#1076=CARTESIAN_POINT('Ctrl Pts',(345.471732958069,-131.205264343192,-7.05282201878721));
#1077=CARTESIAN_POINT('Ctrl Pts',(345.811692063637,-129.772448738166,-7.1460244843676));
#1078=CARTESIAN_POINT('Ctrl Pts',(345.816955564781,-129.052224381002,-7.19281817158233));
#1079=CARTESIAN_POINT('Ctrl Pts',(341.,-134.,-6.38069364588611));
#1080=CARTESIAN_POINT('Ctrl Pts',(342.118784114962,-134.,-6.38069364588611));
#1081=CARTESIAN_POINT('Ctrl Pts',(343.976191200633,-133.348493629933,-6.41859534784903));
#1082=CARTESIAN_POINT('Ctrl Pts',(345.651022793304,-131.254324858177,-6.54008572444651));
#1083=CARTESIAN_POINT('Ctrl Pts',(345.997636150877,-129.763670061894,-6.62650919623689));
#1084=CARTESIAN_POINT('Ctrl Pts',(346.,-129.015653316104,-6.66982757782809));
#1085=CARTESIAN_POINT('Ctrl Pts',(341.,-134.,-6.16626748064109));
#1086=CARTESIAN_POINT('Ctrl Pts',(342.121997376282,-134.,-6.16626748064109));
#1087=CARTESIAN_POINT('Ctrl Pts',(343.984958073496,-133.343856699719,-6.20297308797449));
#1088=CARTESIAN_POINT('Ctrl Pts',(345.657710076714,-131.241091143822,-6.3206048412453));
#1089=CARTESIAN_POINT('Ctrl Pts',(346.,-129.747998250855,-6.40413062199786));
#1090=CARTESIAN_POINT('Ctrl Pts',(346.,-129.,-6.44597472841513));
#1091=CARTESIAN_POINT('',(345.,-129.069756473744,-7.44353877867495));
#1092=CARTESIAN_POINT('Origin',(345.,-129.,-6.44597472841513));
#1093=CARTESIAN_POINT('',(341.,-133.069756473744,-7.16383153090091));
#1094=CARTESIAN_POINT('Origin',(341.,-133.,-6.16626748064109));
#1095=CARTESIAN_POINT('Origin',(341.,-129.069756473744,-7.44353877867495));
#1096=CARTESIAN_POINT('Ctrl Pts',(345.,-19.069756473744,-15.1354880924611));
#1097=CARTESIAN_POINT('Ctrl Pts',(345.,-18.1721585727184,-15.198254252087));
#1098=CARTESIAN_POINT('Ctrl Pts',(344.475117056243,-16.6817764475937,-15.3024719226746));
#1099=CARTESIAN_POINT('Ctrl Pts',(342.792888969704,-15.3435787718337,-15.3960478198907));
#1100=CARTESIAN_POINT('Ctrl Pts',(341.598398600684,-15.0697564737441,-15.4151953402351));
#1101=CARTESIAN_POINT('Ctrl Pts',(341.,-15.0697564737441,-15.4151953402351));
#1102=CARTESIAN_POINT('Ctrl Pts',(345.299199300342,-19.069756473744,-15.1354880924611));
#1103=CARTESIAN_POINT('Ctrl Pts',(345.30224550717,-18.1050641907807,-15.203069112426));
#1104=CARTESIAN_POINT('Ctrl Pts',(344.743693076885,-16.5002454562718,-15.3151518459206));
#1105=CARTESIAN_POINT('Ctrl Pts',(342.933474561017,-15.0538331038616,-15.4164737309371));
#1106=CARTESIAN_POINT('Ctrl Pts',(341.645503851982,-14.7580206538209,-15.436994032291));
#1107=CARTESIAN_POINT('Ctrl Pts',(341.,-14.7580206538209,-15.436994032291));
#1108=CARTESIAN_POINT('Ctrl Pts',(345.816962346041,-19.0522247752451,-14.8847731233149));
#1109=CARTESIAN_POINT('Ctrl Pts',(345.824857597757,-17.9718882394981,-14.954963654137));
#1110=CARTESIAN_POINT('Ctrl Pts',(345.205695288932,-16.1675675060925,-15.0721343473703));
#1111=CARTESIAN_POINT('Ctrl Pts',(343.175603070731,-14.5355589254204,-15.177893470078));
#1112=CARTESIAN_POINT('Ctrl Pts',(341.726130765453,-14.2004801505307,-15.1996414442751));
#1113=CARTESIAN_POINT('Ctrl Pts',(341.,-14.2004801505307,-15.1996414442751));
#1114=CARTESIAN_POINT('Ctrl Pts',(346.,-19.0156533161038,-14.3617768916142));
#1115=CARTESIAN_POINT('Ctrl Pts',(346.003545773685,-17.8936281974195,-14.426754464001));
#1116=CARTESIAN_POINT('Ctrl Pts',(345.35360042004,-16.0265695802238,-14.5348582212807));
#1117=CARTESIAN_POINT('Ctrl Pts',(343.248527405693,-14.3443232736275,-14.6320654652181));
#1118=CARTESIAN_POINT('Ctrl Pts',(341.75059534815,-14.,-14.6520040752431));
#1119=CARTESIAN_POINT('Ctrl Pts',(341.,-14.,-14.6520040752431));
#1120=CARTESIAN_POINT('Ctrl Pts',(346.,-18.9999999999999,-14.1379240422013));
#1121=CARTESIAN_POINT('Ctrl Pts',(346.,-17.8780026237179,-14.2006902018272));
#1122=CARTESIAN_POINT('Ctrl Pts',(345.343896320304,-16.015024967312,-14.3049078724148));
#1123=CARTESIAN_POINT('Ctrl Pts',(343.24111121213,-14.3422778726119,-14.3984837696309));
#1124=CARTESIAN_POINT('Ctrl Pts',(341.747998250855,-14.,-14.4176312899753));
#1125=CARTESIAN_POINT('Ctrl Pts',(341.,-14.,-14.4176312899753));
#1126=CARTESIAN_POINT('',(341.,-15.0697564737441,-15.4151953402351));
#1127=CARTESIAN_POINT('Origin',(341.,-15.,-14.4176312899753));
#1128=CARTESIAN_POINT('',(345.,-19.069756473744,-15.1354880924611));
#1129=CARTESIAN_POINT('Origin',(345.,-18.9999999999999,-14.1379240422013));
#1130=CARTESIAN_POINT('Origin',(341.,-19.0697564737441,-15.1354880924611));
#1131=CARTESIAN_POINT('Origin',(345.,-71.7419361816563,-10.44984858929));
#1132=CARTESIAN_POINT('',(345.,-71.8116926554004,-11.4474126395498));
#1133=CARTESIAN_POINT('Origin',(180.,-74.,5.24));
#1134=CARTESIAN_POINT('',(180.,-14.,5.24));
#1135=CARTESIAN_POINT('',(180.,-73.9999796829752,5.24));
#1136=CARTESIAN_POINT('',(260.5,-14.,5.24));
#1137=CARTESIAN_POINT('Origin',(341.,-14.,1.51));
#1138=CARTESIAN_POINT('',(180.,-14.,-14.4176312899753));
#1139=CARTESIAN_POINT('',(180.,-14.,-1.79398477773742));
#1140=CARTESIAN_POINT('',(177.5,-14.,-14.4176312899753));
#1141=CARTESIAN_POINT('Origin',(177.5,-15.,-14.4176312899753));
#1142=CARTESIAN_POINT('',(180.,-15.0697564737441,-15.4151953402351));
#1143=CARTESIAN_POINT('Origin',(180.,-15.,-14.4176312899753));
#1144=CARTESIAN_POINT('',(177.5,-15.0697564737441,-15.4151953402351));
#1145=CARTESIAN_POINT('Origin',(14.,-14.,-15.49));
#1146=CARTESIAN_POINT('',(180.,-133.069756473744,-7.16383153090091));
#1147=CARTESIAN_POINT('',(180.,-44.2155735885197,-13.3771212679103));
#1148=CARTESIAN_POINT('',(16.5,-133.069756473744,-7.16383153090091));
#1149=CARTESIAN_POINT('Origin',(16.5,-133.,-6.16626748064109));
#1150=CARTESIAN_POINT('',(180.,-134.,-6.16626748064109));
#1151=CARTESIAN_POINT('Origin',(180.,-133.,-6.16626748064109));
#1152=CARTESIAN_POINT('',(16.5,-134.,-6.16626748064109));
#1153=CARTESIAN_POINT('Origin',(19.,-134.,1.51));
#1154=CARTESIAN_POINT('',(180.,-134.,-1.79398477773742));
#1155=CARTESIAN_POINT('Origin',(180.,-73.9999593659504,-5.09796955547483));
#1156=CARTESIAN_POINT('',(0.,0.,0.));
#1157=CARTESIAN_POINT('',(0.,0.,0.));
#1158=CARTESIAN_POINT('',(0.,0.,0.));
#1159=CARTESIAN_POINT('',(0.,0.,0.));
#1160=CARTESIAN_POINT('',(0.,0.,0.));
#1161=UNCERTAINTY_MEASURE_WITH_UNIT(LENGTH_MEASURE(0.01),#1171,
'DISTANCE_ACCURACY_VALUE',
'Maximum model space distance between geometric entities at asserted c
onnectivities');
#1162=UNCERTAINTY_MEASURE_WITH_UNIT(LENGTH_MEASURE(0.01),#1171,
'DISTANCE_ACCURACY_VALUE',
'Maximum model space distance between geometric entities at asserted c
onnectivities');
#1163=UNCERTAINTY_MEASURE_WITH_UNIT(LENGTH_MEASURE(0.01),#1171,
'DISTANCE_ACCURACY_VALUE',
'Maximum model space distance between geometric entities at asserted c
onnectivities');
#1164=UNCERTAINTY_MEASURE_WITH_UNIT(LENGTH_MEASURE(0.01),#1171,
'DISTANCE_ACCURACY_VALUE',
'Maximum model space distance between geometric entities at asserted c
onnectivities');
#1165=UNCERTAINTY_MEASURE_WITH_UNIT(LENGTH_MEASURE(0.01),#1171,
'DISTANCE_ACCURACY_VALUE',
'Maximum model space distance between geometric entities at asserted c
onnectivities');
#1166=(
GEOMETRIC_REPRESENTATION_CONTEXT(3)
GLOBAL_UNCERTAINTY_ASSIGNED_CONTEXT((#1161))
GLOBAL_UNIT_ASSIGNED_CONTEXT((#1171,#1173,#1174))
REPRESENTATION_CONTEXT('','3D')
);
#1167=(
GEOMETRIC_REPRESENTATION_CONTEXT(3)
GLOBAL_UNCERTAINTY_ASSIGNED_CONTEXT((#1162))
GLOBAL_UNIT_ASSIGNED_CONTEXT((#1171,#1173,#1174))
REPRESENTATION_CONTEXT('','3D')
);
#1168=(
GEOMETRIC_REPRESENTATION_CONTEXT(3)
GLOBAL_UNCERTAINTY_ASSIGNED_CONTEXT((#1163))
GLOBAL_UNIT_ASSIGNED_CONTEXT((#1171,#1173,#1174))
REPRESENTATION_CONTEXT('','3D')
);
#1169=(
GEOMETRIC_REPRESENTATION_CONTEXT(3)
GLOBAL_UNCERTAINTY_ASSIGNED_CONTEXT((#1164))
GLOBAL_UNIT_ASSIGNED_CONTEXT((#1171,#1173,#1174))
REPRESENTATION_CONTEXT('','3D')
);
#1170=(
GEOMETRIC_REPRESENTATION_CONTEXT(3)
GLOBAL_UNCERTAINTY_ASSIGNED_CONTEXT((#1165))
GLOBAL_UNIT_ASSIGNED_CONTEXT((#1171,#1173,#1174))
REPRESENTATION_CONTEXT('','3D')
);
#1171=(
LENGTH_UNIT()
NAMED_UNIT(*)
SI_UNIT(.MILLI.,.METRE.)
);
#1172=(
LENGTH_UNIT()
NAMED_UNIT(*)
SI_UNIT($,.METRE.)
);
#1173=(
NAMED_UNIT(*)
PLANE_ANGLE_UNIT()
SI_UNIT($,.RADIAN.)
);
#1174=(
NAMED_UNIT(*)
SI_UNIT($,.STERADIAN.)
SOLID_ANGLE_UNIT()
);
#1175=SHAPE_DEFINITION_REPRESENTATION(#1179,#1186);
#1176=SHAPE_DEFINITION_REPRESENTATION(#1180,#1187);
#1177=SHAPE_DEFINITION_REPRESENTATION(#1181,#1188);
#1178=SHAPE_DEFINITION_REPRESENTATION(#1182,#1189);
#1179=PRODUCT_DEFINITION_SHAPE('',$,#1191);
#1180=PRODUCT_DEFINITION_SHAPE('',$,#1192);
#1181=PRODUCT_DEFINITION_SHAPE('',$,#1193);
#1182=PRODUCT_DEFINITION_SHAPE('',$,#1194);
#1183=PRODUCT_DEFINITION_SHAPE($,$,#20);
#1184=PRODUCT_DEFINITION_SHAPE($,$,#21);
#1185=PRODUCT_DEFINITION_SHAPE($,$,#22);
#1186=SHAPE_REPRESENTATION('',(#653,#721,#722,#723),#1166);
#1187=SHAPE_REPRESENTATION('',(#654),#1167);
#1188=SHAPE_REPRESENTATION('',(#719),#1168);
#1189=SHAPE_REPRESENTATION('',(#720),#1169);
#1190=PRODUCT_DEFINITION_CONTEXT('part definition',#1204,'design');
#1191=PRODUCT_DEFINITION('.step 1','Keeb v7',#1195,#1190);
#1192=PRODUCT_DEFINITION('My-keebs_PCB','My-keebs_PCB',#1196,#1190);
#1193=PRODUCT_DEFINITION('Component39','Component39',#1197,#1190);
#1194=PRODUCT_DEFINITION('Component40','Component40',#1198,#1190);
#1195=PRODUCT_DEFINITION_FORMATION('',$,#1206);
#1196=PRODUCT_DEFINITION_FORMATION('',$,#1207);
#1197=PRODUCT_DEFINITION_FORMATION('',$,#1208);
#1198=PRODUCT_DEFINITION_FORMATION('',$,#1209);
#1199=PRODUCT_RELATED_PRODUCT_CATEGORY('Keeb v7','Keeb v7',(#1206));
#1200=PRODUCT_RELATED_PRODUCT_CATEGORY('My-keebs_PCB','My-keebs_PCB',(#1207));
#1201=PRODUCT_RELATED_PRODUCT_CATEGORY('Component39','Component39',(#1208));
#1202=PRODUCT_RELATED_PRODUCT_CATEGORY('Component40','Component40',(#1209));
#1203=APPLICATION_PROTOCOL_DEFINITION('international standard',
'automotive_design',2009,#1204);
#1204=APPLICATION_CONTEXT(
'Core Data for Automotive Mechanical Design Process');
#1205=PRODUCT_CONTEXT('part definition',#1204,'mechanical');
#1206=PRODUCT('.step 1','Keeb v7','KiCad electronic assembly',(#1205));
#1207=PRODUCT('My-keebs_PCB','My-keebs_PCB',$,(#1205));
#1208=PRODUCT('Component39','Component39',$,(#1205));
#1209=PRODUCT('Component40','Component40',$,(#1205));
#1210=PRESENTATION_STYLE_ASSIGNMENT((#1212));
#1211=PRESENTATION_STYLE_ASSIGNMENT((#1213));
#1212=SURFACE_STYLE_USAGE(.BOTH.,#1214);
#1213=SURFACE_STYLE_USAGE(.BOTH.,#1215);
#1214=SURFACE_SIDE_STYLE('',(#1216));
#1215=SURFACE_SIDE_STYLE('',(#1217));
#1216=SURFACE_STYLE_FILL_AREA(#1218);
#1217=SURFACE_STYLE_FILL_AREA(#1219);
#1218=FILL_AREA_STYLE('Steel - Satin',(#1220));
#1219=FILL_AREA_STYLE('Opaque(246,246,243)',(#1221));
#1220=FILL_AREA_STYLE_COLOUR('Steel - Satin',#1222);
#1221=FILL_AREA_STYLE_COLOUR('Opaque(246,246,243)',#1223);
#1222=COLOUR_RGB('Steel - Satin',0.627450980392157,0.627450980392157,0.627450980392157);
#1223=COLOUR_RGB('Opaque(246,246,243)',0.964705882352941,0.964705882352941,
0.952941176470588);
ENDSEC;
END-ISO-10303-21;
