ISO-10303-21;
HEADER;
/* Generated by software containing ST-Developer
 * from STEP Tools, Inc. (www.steptools.com) 
 */

FILE_DESCRIPTION(
/* description */ ('KiCad electronic assembly'),
/* implementation_level */ '2;1');

FILE_NAME(
/* name */ 'Keeb top frame-left(step).step',
/* time_stamp */ '2026-09-05T16:28:06+05:30',
/* author */ (''),
/* organization */ (''),
/* preprocessor_version */ 'ST-DEVELOPER v20.1',
/* originating_system */ 'Autodesk Translation Framework v15.8.0.0',
/* authorisation */ '');

FILE_SCHEMA (('AUTOMOTIVE_DESIGN { 1 0 10303 214 3 1 1 }'));
ENDSEC;

DATA;
#10=MECHANICAL_DESIGN_GEOMETRIC_PRESENTATION_REPRESENTATION('',(#25),#989);
#11=ITEM_DEFINED_TRANSFORMATION($,$,#563,#633);
#12=ITEM_DEFINED_TRANSFORMATION($,$,#564,#634);
#13=ITEM_DEFINED_TRANSFORMATION($,$,#565,#635);
#14=(
REPRESENTATION_RELATIONSHIP($,$,#1006,#1005)
REPRESENTATION_RELATIONSHIP_WITH_TRANSFORMATION(#11)
SHAPE_REPRESENTATION_RELATIONSHIP()
);
#15=(
REPRESENTATION_RELATIONSHIP($,$,#1007,#1005)
REPRESENTATION_RELATIONSHIP_WITH_TRANSFORMATION(#12)
SHAPE_REPRESENTATION_RELATIONSHIP()
);
#16=(
REPRESENTATION_RELATIONSHIP($,$,#1008,#1005)
REPRESENTATION_RELATIONSHIP_WITH_TRANSFORMATION(#13)
SHAPE_REPRESENTATION_RELATIONSHIP()
);
#17=CONTEXT_DEPENDENT_SHAPE_REPRESENTATION(#14,#1002);
#18=CONTEXT_DEPENDENT_SHAPE_REPRESENTATION(#15,#1003);
#19=CONTEXT_DEPENDENT_SHAPE_REPRESENTATION(#16,#1004);
#20=NEXT_ASSEMBLY_USAGE_OCCURRENCE('My-keebs_PCB:1','My-keebs_PCB:1',
'My-keebs_PCB:1',#1010,#1011,'My-keebs_PCB:1');
#21=NEXT_ASSEMBLY_USAGE_OCCURRENCE('Component39:1','Component39:1',
'Component39:1',#1010,#1012,'Component39:1');
#22=NEXT_ASSEMBLY_USAGE_OCCURRENCE('Component40:1','Component40:1',
'Component40:1',#1010,#1013,'Component40:1');
#23=SHAPE_REPRESENTATION_RELATIONSHIP('SRR','None',#1008,#24);
#24=ADVANCED_BREP_SHAPE_REPRESENTATION('',(#26),#988);
#25=STYLED_ITEM('',(#1030),#26);
#26=MANIFOLD_SOLID_BREP('Body2',#538);
#27=TOROIDAL_SURFACE('',#610,3.,2.);
#28=TOROIDAL_SURFACE('',#616,3.,2.);
#29=TOROIDAL_SURFACE('',#625,2.,0.999999999999994);
#30=TOROIDAL_SURFACE('',#627,2.00000000000001,0.999999999999996);
#31=SPHERICAL_SURFACE('',#600,1.);
#32=SPHERICAL_SURFACE('',#604,1.);
#33=FACE_BOUND('',#92,.T.);
#34=FACE_BOUND('',#93,.T.);
#35=PLANE('',#569);
#36=PLANE('',#573);
#37=PLANE('',#574);
#38=PLANE('',#578);
#39=PLANE('',#584);
#40=PLANE('',#587);
#41=PLANE('',#590);
#42=PLANE('',#593);
#43=PLANE('',#596);
#44=PLANE('',#621);
#45=PLANE('',#622);
#46=PLANE('',#632);
#47=FACE_OUTER_BOUND('',#80,.T.);
#48=FACE_OUTER_BOUND('',#81,.T.);
#49=FACE_OUTER_BOUND('',#82,.T.);
#50=FACE_OUTER_BOUND('',#83,.T.);
#51=FACE_OUTER_BOUND('',#84,.T.);
#52=FACE_OUTER_BOUND('',#85,.T.);
#53=FACE_OUTER_BOUND('',#86,.T.);
#54=FACE_OUTER_BOUND('',#87,.T.);
#55=FACE_OUTER_BOUND('',#88,.T.);
#56=FACE_OUTER_BOUND('',#89,.T.);
#57=FACE_OUTER_BOUND('',#90,.T.);
#58=FACE_OUTER_BOUND('',#91,.T.);
#59=FACE_OUTER_BOUND('',#94,.T.);
#60=FACE_OUTER_BOUND('',#95,.T.);
#61=FACE_OUTER_BOUND('',#96,.T.);
#62=FACE_OUTER_BOUND('',#97,.T.);
#63=FACE_OUTER_BOUND('',#98,.T.);
#64=FACE_OUTER_BOUND('',#99,.T.);
#65=FACE_OUTER_BOUND('',#100,.T.);
#66=FACE_OUTER_BOUND('',#101,.T.);
#67=FACE_OUTER_BOUND('',#102,.T.);
#68=FACE_OUTER_BOUND('',#103,.T.);
#69=FACE_OUTER_BOUND('',#104,.T.);
#70=FACE_OUTER_BOUND('',#105,.T.);
#71=FACE_OUTER_BOUND('',#106,.T.);
#72=FACE_OUTER_BOUND('',#107,.T.);
#73=FACE_OUTER_BOUND('',#108,.T.);
#74=FACE_OUTER_BOUND('',#109,.T.);
#75=FACE_OUTER_BOUND('',#110,.T.);
#76=FACE_OUTER_BOUND('',#111,.T.);
#77=FACE_OUTER_BOUND('',#112,.T.);
#78=FACE_OUTER_BOUND('',#113,.T.);
#79=FACE_OUTER_BOUND('',#114,.T.);
#80=EDGE_LOOP('',(#344,#345,#346,#347));
#81=EDGE_LOOP('',(#348));
#82=EDGE_LOOP('',(#349,#350,#351,#352));
#83=EDGE_LOOP('',(#353));
#84=EDGE_LOOP('',(#354,#355,#356,#357,#358,#359,#360));
#85=EDGE_LOOP('',(#361,#362,#363,#364,#365,#366,#367));
#86=EDGE_LOOP('',(#368,#369,#370,#371));
#87=EDGE_LOOP('',(#372,#373,#374,#375));
#88=EDGE_LOOP('',(#376,#377,#378,#379));
#89=EDGE_LOOP('',(#380,#381,#382,#383));
#90=EDGE_LOOP('',(#384,#385,#386,#387));
#91=EDGE_LOOP('',(#388,#389,#390,#391,#392,#393,#394,#395,#396,#397));
#92=EDGE_LOOP('',(#398));
#93=EDGE_LOOP('',(#399));
#94=EDGE_LOOP('',(#400,#401,#402,#403));
#95=EDGE_LOOP('',(#404,#405,#406,#407));
#96=EDGE_LOOP('',(#408,#409,#410,#411));
#97=EDGE_LOOP('',(#412,#413,#414,#415));
#98=EDGE_LOOP('',(#416,#417,#418));
#99=EDGE_LOOP('',(#419,#420,#421,#422));
#100=EDGE_LOOP('',(#423,#424,#425));
#101=EDGE_LOOP('',(#426,#427,#428,#429));
#102=EDGE_LOOP('',(#430,#431,#432,#433));
#103=EDGE_LOOP('',(#434,#435,#436,#437));
#104=EDGE_LOOP('',(#438,#439,#440,#441));
#105=EDGE_LOOP('',(#442,#443,#444,#445));
#106=EDGE_LOOP('',(#446,#447,#448,#449));
#107=EDGE_LOOP('',(#450,#451,#452,#453));
#108=EDGE_LOOP('',(#454,#455,#456,#457));
#109=EDGE_LOOP('',(#458,#459,#460,#461,#462,#463,#464,#465,#466,#467,#468,
#469));
#110=EDGE_LOOP('',(#470,#471,#472,#473));
#111=EDGE_LOOP('',(#474,#475,#476,#477));
#112=EDGE_LOOP('',(#478,#479,#480,#481));
#113=EDGE_LOOP('',(#482,#483,#484,#485));
#114=EDGE_LOOP('',(#486,#487,#488,#489));
#115=LINE('',#831,#154);
#116=LINE('',#838,#155);
#117=LINE('',#844,#156);
#118=LINE('',#848,#157);
#119=LINE('',#852,#158);
#120=LINE('',#855,#159);
#121=LINE('',#861,#160);
#122=LINE('',#865,#161);
#123=LINE('',#869,#162);
#124=LINE('',#870,#163);
#125=LINE('',#873,#164);
#126=LINE('',#876,#165);
#127=LINE('',#879,#166);
#128=LINE('',#880,#167);
#129=LINE('',#883,#168);
#130=LINE('',#887,#169);
#131=LINE('',#889,#170);
#132=LINE('',#890,#171);
#133=LINE('',#893,#172);
#134=LINE('',#897,#173);
#135=LINE('',#901,#174);
#136=LINE('',#904,#175);
#137=LINE('',#906,#176);
#138=LINE('',#907,#177);
#139=LINE('',#910,#178);
#140=LINE('',#912,#179);
#141=LINE('',#913,#180);
#142=LINE('',#916,#181);
#143=LINE('',#919,#182);
#144=LINE('',#925,#183);
#145=LINE('',#935,#184);
#146=LINE('',#938,#185);
#147=LINE('',#941,#186);
#148=LINE('',#950,#187);
#149=LINE('',#956,#188);
#150=LINE('',#958,#189);
#151=LINE('',#964,#190);
#152=LINE('',#973,#191);
#153=LINE('',#975,#192);
#154=VECTOR('',#648,1.5);
#155=VECTOR('',#657,1.5);
#156=VECTOR('',#664,10.);
#157=VECTOR('',#667,10.);
#158=VECTOR('',#670,10.);
#159=VECTOR('',#673,10.);
#160=VECTOR('',#678,10.);
#161=VECTOR('',#681,10.);
#162=VECTOR('',#684,10.);
#163=VECTOR('',#685,10.);
#164=VECTOR('',#688,10.);
#165=VECTOR('',#691,10.);
#166=VECTOR('',#694,10.);
#167=VECTOR('',#695,10.);
#168=VECTOR('',#698,10.);
#169=VECTOR('',#703,10.);
#170=VECTOR('',#704,10.);
#171=VECTOR('',#705,10.);
#172=VECTOR('',#708,10.);
#173=VECTOR('',#713,10.);
#174=VECTOR('',#716,10.);
#175=VECTOR('',#719,10.);
#176=VECTOR('',#720,10.);
#177=VECTOR('',#721,10.);
#178=VECTOR('',#724,10.);
#179=VECTOR('',#725,10.);
#180=VECTOR('',#726,10.);
#181=VECTOR('',#729,10.);
#182=VECTOR('',#734,10.);
#183=VECTOR('',#741,10.);
#184=VECTOR('',#758,10.);
#185=VECTOR('',#761,10.);
#186=VECTOR('',#764,10.);
#187=VECTOR('',#777,10.);
#188=VECTOR('',#786,10.);
#189=VECTOR('',#789,10.);
#190=VECTOR('',#796,10.);
#191=VECTOR('',#811,10.);
#192=VECTOR('',#814,10.);
#193=CIRCLE('',#567,1.5);
#194=CIRCLE('',#568,1.5);
#195=CIRCLE('',#571,1.5);
#196=CIRCLE('',#572,1.5);
#197=CIRCLE('',#575,1.);
#198=CIRCLE('',#576,1.);
#199=CIRCLE('',#577,2.);
#200=CIRCLE('',#579,2.);
#201=CIRCLE('',#580,1.);
#202=CIRCLE('',#581,1.);
#203=CIRCLE('',#583,0.999999999999996);
#204=CIRCLE('',#586,1.);
#205=CIRCLE('',#589,1.);
#206=CIRCLE('',#591,5.);
#207=CIRCLE('',#592,5.);
#208=CIRCLE('',#595,5.);
#209=CIRCLE('',#598,1.00000000000001);
#210=CIRCLE('',#599,1.);
#211=CIRCLE('',#601,0.999999999999995);
#212=CIRCLE('',#603,1.00000000000001);
#213=CIRCLE('',#605,0.999999999999998);
#214=CIRCLE('',#607,0.999999999999996);
#215=CIRCLE('',#609,2.);
#216=CIRCLE('',#611,2.);
#217=CIRCLE('',#612,3.);
#218=CIRCLE('',#613,5.);
#219=CIRCLE('',#615,2.);
#220=CIRCLE('',#617,1.99999999999999);
#221=CIRCLE('',#618,3.);
#222=CIRCLE('',#623,2.00000000000001);
#223=CIRCLE('',#624,2.);
#224=CIRCLE('',#626,0.999999999999994);
#225=CIRCLE('',#628,0.999999999999996);
#226=CIRCLE('',#629,1.);
#227=VERTEX_POINT('',#828);
#228=VERTEX_POINT('',#830);
#229=VERTEX_POINT('',#835);
#230=VERTEX_POINT('',#837);
#231=VERTEX_POINT('',#842);
#232=VERTEX_POINT('',#843);
#233=VERTEX_POINT('',#845);
#234=VERTEX_POINT('',#847);
#235=VERTEX_POINT('',#849);
#236=VERTEX_POINT('',#851);
#237=VERTEX_POINT('',#853);
#238=VERTEX_POINT('',#857);
#239=VERTEX_POINT('',#858);
#240=VERTEX_POINT('',#860);
#241=VERTEX_POINT('',#862);
#242=VERTEX_POINT('',#864);
#243=VERTEX_POINT('',#866);
#244=VERTEX_POINT('',#868);
#245=VERTEX_POINT('',#872);
#246=VERTEX_POINT('',#874);
#247=VERTEX_POINT('',#878);
#248=VERTEX_POINT('',#882);
#249=VERTEX_POINT('',#886);
#250=VERTEX_POINT('',#888);
#251=VERTEX_POINT('',#892);
#252=VERTEX_POINT('',#896);
#253=VERTEX_POINT('',#898);
#254=VERTEX_POINT('',#900);
#255=VERTEX_POINT('',#902);
#256=VERTEX_POINT('',#905);
#257=VERTEX_POINT('',#909);
#258=VERTEX_POINT('',#911);
#259=VERTEX_POINT('',#915);
#260=VERTEX_POINT('',#921);
#261=VERTEX_POINT('',#923);
#262=VERTEX_POINT('',#933);
#263=VERTEX_POINT('',#937);
#264=VERTEX_POINT('',#939);
#265=VERTEX_POINT('',#943);
#266=VERTEX_POINT('',#948);
#267=VERTEX_POINT('',#952);
#268=VERTEX_POINT('',#961);
#269=VERTEX_POINT('',#963);
#270=VERTEX_POINT('',#969);
#271=EDGE_CURVE('',#227,#227,#193,.T.);
#272=EDGE_CURVE('',#227,#228,#115,.T.);
#273=EDGE_CURVE('',#228,#228,#194,.T.);
#274=EDGE_CURVE('',#229,#229,#195,.T.);
#275=EDGE_CURVE('',#229,#230,#116,.T.);
#276=EDGE_CURVE('',#230,#230,#196,.T.);
#277=EDGE_CURVE('',#231,#232,#117,.T.);
#278=EDGE_CURVE('',#233,#231,#197,.T.);
#279=EDGE_CURVE('',#234,#233,#118,.T.);
#280=EDGE_CURVE('',#235,#234,#198,.T.);
#281=EDGE_CURVE('',#236,#235,#119,.T.);
#282=EDGE_CURVE('',#237,#236,#199,.T.);
#283=EDGE_CURVE('',#232,#237,#120,.T.);
#284=EDGE_CURVE('',#238,#239,#200,.T.);
#285=EDGE_CURVE('',#240,#238,#121,.T.);
#286=EDGE_CURVE('',#241,#240,#201,.T.);
#287=EDGE_CURVE('',#242,#241,#122,.T.);
#288=EDGE_CURVE('',#243,#242,#202,.T.);
#289=EDGE_CURVE('',#244,#243,#123,.T.);
#290=EDGE_CURVE('',#239,#244,#124,.T.);
#291=EDGE_CURVE('',#234,#245,#125,.T.);
#292=EDGE_CURVE('',#245,#246,#203,.T.);
#293=EDGE_CURVE('',#246,#235,#126,.T.);
#294=EDGE_CURVE('',#247,#233,#127,.T.);
#295=EDGE_CURVE('',#245,#247,#128,.T.);
#296=EDGE_CURVE('',#231,#248,#129,.T.);
#297=EDGE_CURVE('',#248,#247,#204,.T.);
#298=EDGE_CURVE('',#249,#241,#130,.T.);
#299=EDGE_CURVE('',#250,#249,#131,.T.);
#300=EDGE_CURVE('',#242,#250,#132,.T.);
#301=EDGE_CURVE('',#240,#251,#133,.T.);
#302=EDGE_CURVE('',#251,#249,#205,.T.);
#303=EDGE_CURVE('',#252,#232,#134,.T.);
#304=EDGE_CURVE('',#253,#252,#206,.T.);
#305=EDGE_CURVE('',#254,#253,#135,.T.);
#306=EDGE_CURVE('',#255,#254,#207,.T.);
#307=EDGE_CURVE('',#244,#255,#136,.T.);
#308=EDGE_CURVE('',#256,#243,#137,.T.);
#309=EDGE_CURVE('',#248,#256,#138,.T.);
#310=EDGE_CURVE('',#257,#253,#139,.T.);
#311=EDGE_CURVE('',#258,#257,#140,.T.);
#312=EDGE_CURVE('',#254,#258,#141,.T.);
#313=EDGE_CURVE('',#252,#259,#142,.T.);
#314=EDGE_CURVE('',#257,#259,#208,.T.);
#315=EDGE_CURVE('',#259,#237,#143,.T.);
#316=EDGE_CURVE('',#260,#248,#209,.T.);
#317=EDGE_CURVE('',#256,#261,#210,.T.);
#318=EDGE_CURVE('',#261,#260,#144,.T.);
#319=EDGE_CURVE('',#260,#247,#211,.T.);
#320=EDGE_CURVE('',#250,#256,#212,.T.);
#321=EDGE_CURVE('',#250,#261,#213,.T.);
#322=EDGE_CURVE('',#249,#262,#214,.F.);
#323=EDGE_CURVE('',#262,#261,#145,.T.);
#324=EDGE_CURVE('',#239,#263,#146,.T.);
#325=EDGE_CURVE('',#263,#264,#215,.T.);
#326=EDGE_CURVE('',#264,#238,#147,.T.);
#327=EDGE_CURVE('',#258,#265,#216,.T.);
#328=EDGE_CURVE('',#265,#264,#217,.T.);
#329=EDGE_CURVE('',#263,#258,#218,.T.);
#330=EDGE_CURVE('',#257,#266,#219,.T.);
#331=EDGE_CURVE('',#266,#265,#148,.T.);
#332=EDGE_CURVE('',#259,#267,#220,.T.);
#333=EDGE_CURVE('',#267,#266,#221,.T.);
#334=EDGE_CURVE('',#236,#267,#149,.T.);
#335=EDGE_CURVE('',#255,#263,#150,.T.);
#336=EDGE_CURVE('',#268,#246,#222,.T.);
#337=EDGE_CURVE('',#269,#268,#151,.T.);
#338=EDGE_CURVE('',#251,#269,#223,.T.);
#339=EDGE_CURVE('',#262,#269,#224,.T.);
#340=EDGE_CURVE('',#270,#245,#225,.F.);
#341=EDGE_CURVE('',#268,#270,#226,.T.);
#342=EDGE_CURVE('',#260,#270,#152,.T.);
#343=EDGE_CURVE('',#270,#262,#153,.T.);
#344=ORIENTED_EDGE('',*,*,#271,.F.);
#345=ORIENTED_EDGE('',*,*,#272,.T.);
#346=ORIENTED_EDGE('',*,*,#273,.T.);
#347=ORIENTED_EDGE('',*,*,#272,.F.);
#348=ORIENTED_EDGE('',*,*,#273,.F.);
#349=ORIENTED_EDGE('',*,*,#274,.F.);
#350=ORIENTED_EDGE('',*,*,#275,.T.);
#351=ORIENTED_EDGE('',*,*,#276,.T.);
#352=ORIENTED_EDGE('',*,*,#275,.F.);
#353=ORIENTED_EDGE('',*,*,#276,.F.);
#354=ORIENTED_EDGE('',*,*,#277,.F.);
#355=ORIENTED_EDGE('',*,*,#278,.F.);
#356=ORIENTED_EDGE('',*,*,#279,.F.);
#357=ORIENTED_EDGE('',*,*,#280,.F.);
#358=ORIENTED_EDGE('',*,*,#281,.F.);
#359=ORIENTED_EDGE('',*,*,#282,.F.);
#360=ORIENTED_EDGE('',*,*,#283,.F.);
#361=ORIENTED_EDGE('',*,*,#284,.F.);
#362=ORIENTED_EDGE('',*,*,#285,.F.);
#363=ORIENTED_EDGE('',*,*,#286,.F.);
#364=ORIENTED_EDGE('',*,*,#287,.F.);
#365=ORIENTED_EDGE('',*,*,#288,.F.);
#366=ORIENTED_EDGE('',*,*,#289,.F.);
#367=ORIENTED_EDGE('',*,*,#290,.F.);
#368=ORIENTED_EDGE('',*,*,#280,.T.);
#369=ORIENTED_EDGE('',*,*,#291,.T.);
#370=ORIENTED_EDGE('',*,*,#292,.T.);
#371=ORIENTED_EDGE('',*,*,#293,.T.);
#372=ORIENTED_EDGE('',*,*,#279,.T.);
#373=ORIENTED_EDGE('',*,*,#294,.F.);
#374=ORIENTED_EDGE('',*,*,#295,.F.);
#375=ORIENTED_EDGE('',*,*,#291,.F.);
#376=ORIENTED_EDGE('',*,*,#278,.T.);
#377=ORIENTED_EDGE('',*,*,#296,.T.);
#378=ORIENTED_EDGE('',*,*,#297,.T.);
#379=ORIENTED_EDGE('',*,*,#294,.T.);
#380=ORIENTED_EDGE('',*,*,#287,.T.);
#381=ORIENTED_EDGE('',*,*,#298,.F.);
#382=ORIENTED_EDGE('',*,*,#299,.F.);
#383=ORIENTED_EDGE('',*,*,#300,.F.);
#384=ORIENTED_EDGE('',*,*,#286,.T.);
#385=ORIENTED_EDGE('',*,*,#301,.T.);
#386=ORIENTED_EDGE('',*,*,#302,.T.);
#387=ORIENTED_EDGE('',*,*,#298,.T.);
#388=ORIENTED_EDGE('',*,*,#277,.T.);
#389=ORIENTED_EDGE('',*,*,#303,.F.);
#390=ORIENTED_EDGE('',*,*,#304,.F.);
#391=ORIENTED_EDGE('',*,*,#305,.F.);
#392=ORIENTED_EDGE('',*,*,#306,.F.);
#393=ORIENTED_EDGE('',*,*,#307,.F.);
#394=ORIENTED_EDGE('',*,*,#289,.T.);
#395=ORIENTED_EDGE('',*,*,#308,.F.);
#396=ORIENTED_EDGE('',*,*,#309,.F.);
#397=ORIENTED_EDGE('',*,*,#296,.F.);
#398=ORIENTED_EDGE('',*,*,#271,.T.);
#399=ORIENTED_EDGE('',*,*,#274,.T.);
#400=ORIENTED_EDGE('',*,*,#305,.T.);
#401=ORIENTED_EDGE('',*,*,#310,.F.);
#402=ORIENTED_EDGE('',*,*,#311,.F.);
#403=ORIENTED_EDGE('',*,*,#312,.F.);
#404=ORIENTED_EDGE('',*,*,#304,.T.);
#405=ORIENTED_EDGE('',*,*,#313,.T.);
#406=ORIENTED_EDGE('',*,*,#314,.F.);
#407=ORIENTED_EDGE('',*,*,#310,.T.);
#408=ORIENTED_EDGE('',*,*,#283,.T.);
#409=ORIENTED_EDGE('',*,*,#315,.F.);
#410=ORIENTED_EDGE('',*,*,#313,.F.);
#411=ORIENTED_EDGE('',*,*,#303,.T.);
#412=ORIENTED_EDGE('',*,*,#316,.T.);
#413=ORIENTED_EDGE('',*,*,#309,.T.);
#414=ORIENTED_EDGE('',*,*,#317,.T.);
#415=ORIENTED_EDGE('',*,*,#318,.T.);
#416=ORIENTED_EDGE('',*,*,#316,.F.);
#417=ORIENTED_EDGE('',*,*,#319,.T.);
#418=ORIENTED_EDGE('',*,*,#297,.F.);
#419=ORIENTED_EDGE('',*,*,#288,.T.);
#420=ORIENTED_EDGE('',*,*,#300,.T.);
#421=ORIENTED_EDGE('',*,*,#320,.T.);
#422=ORIENTED_EDGE('',*,*,#308,.T.);
#423=ORIENTED_EDGE('',*,*,#320,.F.);
#424=ORIENTED_EDGE('',*,*,#321,.T.);
#425=ORIENTED_EDGE('',*,*,#317,.F.);
#426=ORIENTED_EDGE('',*,*,#321,.F.);
#427=ORIENTED_EDGE('',*,*,#299,.T.);
#428=ORIENTED_EDGE('',*,*,#322,.T.);
#429=ORIENTED_EDGE('',*,*,#323,.T.);
#430=ORIENTED_EDGE('',*,*,#284,.T.);
#431=ORIENTED_EDGE('',*,*,#324,.T.);
#432=ORIENTED_EDGE('',*,*,#325,.T.);
#433=ORIENTED_EDGE('',*,*,#326,.T.);
#434=ORIENTED_EDGE('',*,*,#327,.T.);
#435=ORIENTED_EDGE('',*,*,#328,.T.);
#436=ORIENTED_EDGE('',*,*,#325,.F.);
#437=ORIENTED_EDGE('',*,*,#329,.T.);
#438=ORIENTED_EDGE('',*,*,#330,.T.);
#439=ORIENTED_EDGE('',*,*,#331,.T.);
#440=ORIENTED_EDGE('',*,*,#327,.F.);
#441=ORIENTED_EDGE('',*,*,#311,.T.);
#442=ORIENTED_EDGE('',*,*,#332,.T.);
#443=ORIENTED_EDGE('',*,*,#333,.T.);
#444=ORIENTED_EDGE('',*,*,#330,.F.);
#445=ORIENTED_EDGE('',*,*,#314,.T.);
#446=ORIENTED_EDGE('',*,*,#282,.T.);
#447=ORIENTED_EDGE('',*,*,#334,.T.);
#448=ORIENTED_EDGE('',*,*,#332,.F.);
#449=ORIENTED_EDGE('',*,*,#315,.T.);
#450=ORIENTED_EDGE('',*,*,#306,.T.);
#451=ORIENTED_EDGE('',*,*,#312,.T.);
#452=ORIENTED_EDGE('',*,*,#329,.F.);
#453=ORIENTED_EDGE('',*,*,#335,.F.);
#454=ORIENTED_EDGE('',*,*,#290,.T.);
#455=ORIENTED_EDGE('',*,*,#307,.T.);
#456=ORIENTED_EDGE('',*,*,#335,.T.);
#457=ORIENTED_EDGE('',*,*,#324,.F.);
#458=ORIENTED_EDGE('',*,*,#281,.T.);
#459=ORIENTED_EDGE('',*,*,#293,.F.);
#460=ORIENTED_EDGE('',*,*,#336,.F.);
#461=ORIENTED_EDGE('',*,*,#337,.F.);
#462=ORIENTED_EDGE('',*,*,#338,.F.);
#463=ORIENTED_EDGE('',*,*,#301,.F.);
#464=ORIENTED_EDGE('',*,*,#285,.T.);
#465=ORIENTED_EDGE('',*,*,#326,.F.);
#466=ORIENTED_EDGE('',*,*,#328,.F.);
#467=ORIENTED_EDGE('',*,*,#331,.F.);
#468=ORIENTED_EDGE('',*,*,#333,.F.);
#469=ORIENTED_EDGE('',*,*,#334,.F.);
#470=ORIENTED_EDGE('',*,*,#339,.F.);
#471=ORIENTED_EDGE('',*,*,#322,.F.);
#472=ORIENTED_EDGE('',*,*,#302,.F.);
#473=ORIENTED_EDGE('',*,*,#338,.T.);
#474=ORIENTED_EDGE('',*,*,#292,.F.);
#475=ORIENTED_EDGE('',*,*,#340,.F.);
#476=ORIENTED_EDGE('',*,*,#341,.F.);
#477=ORIENTED_EDGE('',*,*,#336,.T.);
#478=ORIENTED_EDGE('',*,*,#319,.F.);
#479=ORIENTED_EDGE('',*,*,#342,.T.);
#480=ORIENTED_EDGE('',*,*,#340,.T.);
#481=ORIENTED_EDGE('',*,*,#295,.T.);
#482=ORIENTED_EDGE('',*,*,#339,.T.);
#483=ORIENTED_EDGE('',*,*,#337,.T.);
#484=ORIENTED_EDGE('',*,*,#341,.T.);
#485=ORIENTED_EDGE('',*,*,#343,.T.);
#486=ORIENTED_EDGE('',*,*,#318,.F.);
#487=ORIENTED_EDGE('',*,*,#323,.F.);
#488=ORIENTED_EDGE('',*,*,#343,.F.);
#489=ORIENTED_EDGE('',*,*,#342,.F.);
#490=CYLINDRICAL_SURFACE('',#566,1.5);
#491=CYLINDRICAL_SURFACE('',#570,1.5);
#492=CYLINDRICAL_SURFACE('',#582,1.);
#493=CYLINDRICAL_SURFACE('',#585,1.);
#494=CYLINDRICAL_SURFACE('',#588,1.);
#495=CYLINDRICAL_SURFACE('',#594,5.);
#496=CYLINDRICAL_SURFACE('',#597,1.);
#497=CYLINDRICAL_SURFACE('',#602,1.);
#498=CYLINDRICAL_SURFACE('',#606,1.);
#499=CYLINDRICAL_SURFACE('',#608,2.);
#500=CYLINDRICAL_SURFACE('',#614,2.);
#501=CYLINDRICAL_SURFACE('',#619,2.);
#502=CYLINDRICAL_SURFACE('',#620,5.);
#503=CYLINDRICAL_SURFACE('',#630,1.);
#504=CYLINDRICAL_SURFACE('',#631,1.);
#505=ADVANCED_FACE('',(#47),#490,.F.);
#506=ADVANCED_FACE('',(#48),#35,.F.);
#507=ADVANCED_FACE('',(#49),#491,.F.);
#508=ADVANCED_FACE('',(#50),#36,.F.);
#509=ADVANCED_FACE('',(#51),#37,.F.);
#510=ADVANCED_FACE('',(#52),#38,.F.);
#511=ADVANCED_FACE('',(#53),#492,.T.);
#512=ADVANCED_FACE('',(#54),#39,.T.);
#513=ADVANCED_FACE('',(#55),#493,.F.);
#514=ADVANCED_FACE('',(#56),#40,.T.);
#515=ADVANCED_FACE('',(#57),#494,.T.);
#516=ADVANCED_FACE('',(#58,#33,#34),#41,.F.);
#517=ADVANCED_FACE('',(#59),#42,.T.);
#518=ADVANCED_FACE('',(#60),#495,.T.);
#519=ADVANCED_FACE('',(#61),#43,.T.);
#520=ADVANCED_FACE('',(#62),#496,.F.);
#521=ADVANCED_FACE('',(#63),#31,.F.);
#522=ADVANCED_FACE('',(#64),#497,.F.);
#523=ADVANCED_FACE('',(#65),#32,.F.);
#524=ADVANCED_FACE('',(#66),#498,.F.);
#525=ADVANCED_FACE('',(#67),#499,.T.);
#526=ADVANCED_FACE('',(#68),#27,.T.);
#527=ADVANCED_FACE('',(#69),#500,.T.);
#528=ADVANCED_FACE('',(#70),#28,.T.);
#529=ADVANCED_FACE('',(#71),#501,.T.);
#530=ADVANCED_FACE('',(#72),#502,.T.);
#531=ADVANCED_FACE('',(#73),#44,.T.);
#532=ADVANCED_FACE('',(#74),#45,.T.);
#533=ADVANCED_FACE('',(#75),#29,.T.);
#534=ADVANCED_FACE('',(#76),#30,.T.);
#535=ADVANCED_FACE('',(#77),#503,.F.);
#536=ADVANCED_FACE('',(#78),#504,.T.);
#537=ADVANCED_FACE('',(#79),#46,.T.);
#538=CLOSED_SHELL('',(#505,#506,#507,#508,#509,#510,#511,#512,#513,#514,
#515,#516,#517,#518,#519,#520,#521,#522,#523,#524,#525,#526,#527,#528,#529,
#530,#531,#532,#533,#534,#535,#536,#537));
#539=DERIVED_UNIT_ELEMENT(#543,1.);
#540=DERIVED_UNIT_ELEMENT(#991,-3.);
#541=DERIVED_UNIT_ELEMENT(#543,1.);
#542=DERIVED_UNIT_ELEMENT(#991,-3.);
#543=(
MASS_UNIT()
NAMED_UNIT(*)
SI_UNIT(.KILO.,.GRAM.)
);
#544=DERIVED_UNIT((#539,#540));
#545=DERIVED_UNIT((#541,#542));
#546=MEASURE_REPRESENTATION_ITEM('density measure',
POSITIVE_RATIO_MEASURE(7850.),#544);
#547=MEASURE_REPRESENTATION_ITEM('density measure',
POSITIVE_RATIO_MEASURE(7850.),#545);
#548=PROPERTY_DEFINITION_REPRESENTATION(#558,#552);
#549=PROPERTY_DEFINITION_REPRESENTATION(#559,#553);
#550=PROPERTY_DEFINITION_REPRESENTATION(#560,#554);
#551=PROPERTY_DEFINITION_REPRESENTATION(#561,#555);
#552=REPRESENTATION('material name',(#556),#987);
#553=REPRESENTATION('density',(#546),#987);
#554=REPRESENTATION('material name',(#557),#988);
#555=REPRESENTATION('density',(#547),#988);
#556=DESCRIPTIVE_REPRESENTATION_ITEM('Steel','Steel');
#557=DESCRIPTIVE_REPRESENTATION_ITEM('Steel','Steel');
#558=PROPERTY_DEFINITION('material property','material name',#1012);
#559=PROPERTY_DEFINITION('material property','density of part',#1012);
#560=PROPERTY_DEFINITION('material property','material name',#1013);
#561=PROPERTY_DEFINITION('material property','density of part',#1013);
#562=AXIS2_PLACEMENT_3D('',#823,#636,#637);
#563=AXIS2_PLACEMENT_3D('',#824,#638,#639);
#564=AXIS2_PLACEMENT_3D('',#825,#640,#641);
#565=AXIS2_PLACEMENT_3D('',#826,#642,#643);
#566=AXIS2_PLACEMENT_3D('',#827,#644,#645);
#567=AXIS2_PLACEMENT_3D('',#829,#646,#647);
#568=AXIS2_PLACEMENT_3D('',#832,#649,#650);
#569=AXIS2_PLACEMENT_3D('',#833,#651,#652);
#570=AXIS2_PLACEMENT_3D('',#834,#653,#654);
#571=AXIS2_PLACEMENT_3D('',#836,#655,#656);
#572=AXIS2_PLACEMENT_3D('',#839,#658,#659);
#573=AXIS2_PLACEMENT_3D('',#840,#660,#661);
#574=AXIS2_PLACEMENT_3D('',#841,#662,#663);
#575=AXIS2_PLACEMENT_3D('',#846,#665,#666);
#576=AXIS2_PLACEMENT_3D('',#850,#668,#669);
#577=AXIS2_PLACEMENT_3D('',#854,#671,#672);
#578=AXIS2_PLACEMENT_3D('',#856,#674,#675);
#579=AXIS2_PLACEMENT_3D('',#859,#676,#677);
#580=AXIS2_PLACEMENT_3D('',#863,#679,#680);
#581=AXIS2_PLACEMENT_3D('',#867,#682,#683);
#582=AXIS2_PLACEMENT_3D('',#871,#686,#687);
#583=AXIS2_PLACEMENT_3D('',#875,#689,#690);
#584=AXIS2_PLACEMENT_3D('',#877,#692,#693);
#585=AXIS2_PLACEMENT_3D('',#881,#696,#697);
#586=AXIS2_PLACEMENT_3D('',#884,#699,#700);
#587=AXIS2_PLACEMENT_3D('',#885,#701,#702);
#588=AXIS2_PLACEMENT_3D('',#891,#706,#707);
#589=AXIS2_PLACEMENT_3D('',#894,#709,#710);
#590=AXIS2_PLACEMENT_3D('',#895,#711,#712);
#591=AXIS2_PLACEMENT_3D('',#899,#714,#715);
#592=AXIS2_PLACEMENT_3D('',#903,#717,#718);
#593=AXIS2_PLACEMENT_3D('',#908,#722,#723);
#594=AXIS2_PLACEMENT_3D('',#914,#727,#728);
#595=AXIS2_PLACEMENT_3D('',#917,#730,#731);
#596=AXIS2_PLACEMENT_3D('',#918,#732,#733);
#597=AXIS2_PLACEMENT_3D('',#920,#735,#736);
#598=AXIS2_PLACEMENT_3D('',#922,#737,#738);
#599=AXIS2_PLACEMENT_3D('',#924,#739,#740);
#600=AXIS2_PLACEMENT_3D('',#926,#742,#743);
#601=AXIS2_PLACEMENT_3D('',#927,#744,#745);
#602=AXIS2_PLACEMENT_3D('',#928,#746,#747);
#603=AXIS2_PLACEMENT_3D('',#929,#748,#749);
#604=AXIS2_PLACEMENT_3D('',#930,#750,#751);
#605=AXIS2_PLACEMENT_3D('',#931,#752,#753);
#606=AXIS2_PLACEMENT_3D('',#932,#754,#755);
#607=AXIS2_PLACEMENT_3D('',#934,#756,#757);
#608=AXIS2_PLACEMENT_3D('',#936,#759,#760);
#609=AXIS2_PLACEMENT_3D('',#940,#762,#763);
#610=AXIS2_PLACEMENT_3D('',#942,#765,#766);
#611=AXIS2_PLACEMENT_3D('',#944,#767,#768);
#612=AXIS2_PLACEMENT_3D('',#945,#769,#770);
#613=AXIS2_PLACEMENT_3D('',#946,#771,#772);
#614=AXIS2_PLACEMENT_3D('',#947,#773,#774);
#615=AXIS2_PLACEMENT_3D('',#949,#775,#776);
#616=AXIS2_PLACEMENT_3D('',#951,#778,#779);
#617=AXIS2_PLACEMENT_3D('',#953,#780,#781);
#618=AXIS2_PLACEMENT_3D('',#954,#782,#783);
#619=AXIS2_PLACEMENT_3D('',#955,#784,#785);
#620=AXIS2_PLACEMENT_3D('',#957,#787,#788);
#621=AXIS2_PLACEMENT_3D('',#959,#790,#791);
#622=AXIS2_PLACEMENT_3D('',#960,#792,#793);
#623=AXIS2_PLACEMENT_3D('',#962,#794,#795);
#624=AXIS2_PLACEMENT_3D('',#965,#797,#798);
#625=AXIS2_PLACEMENT_3D('',#966,#799,#800);
#626=AXIS2_PLACEMENT_3D('',#967,#801,#802);
#627=AXIS2_PLACEMENT_3D('',#968,#803,#804);
#628=AXIS2_PLACEMENT_3D('',#970,#805,#806);
#629=AXIS2_PLACEMENT_3D('',#971,#807,#808);
#630=AXIS2_PLACEMENT_3D('',#972,#809,#810);
#631=AXIS2_PLACEMENT_3D('',#974,#812,#813);
#632=AXIS2_PLACEMENT_3D('',#976,#815,#816);
#633=AXIS2_PLACEMENT_3D('',#977,#817,#818);
#634=AXIS2_PLACEMENT_3D('',#978,#819,#820);
#635=AXIS2_PLACEMENT_3D('',#979,#821,#822);
#636=DIRECTION('axis',(0.,0.,1.));
#637=DIRECTION('refdir',(1.,0.,0.));
#638=DIRECTION('axis',(0.,0.,1.));
#639=DIRECTION('refdir',(1.,0.,0.));
#640=DIRECTION('axis',(0.,0.,1.));
#641=DIRECTION('refdir',(1.,0.,0.));
#642=DIRECTION('axis',(0.,0.,1.));
#643=DIRECTION('refdir',(1.,0.,0.));
#644=DIRECTION('center_axis',(0.,0.,1.));
#645=DIRECTION('ref_axis',(1.,0.,0.));
#646=DIRECTION('center_axis',(-1.22464679914735E-16,-1.224646799147E-16,
1.));
#647=DIRECTION('ref_axis',(1.,0.,0.));
#648=DIRECTION('',(0.,0.,1.));
#649=DIRECTION('center_axis',(0.,0.,1.));
#650=DIRECTION('ref_axis',(1.,0.,0.));
#651=DIRECTION('center_axis',(0.,0.,1.));
#652=DIRECTION('ref_axis',(1.,0.,0.));
#653=DIRECTION('center_axis',(0.,0.,1.));
#654=DIRECTION('ref_axis',(1.,0.,0.));
#655=DIRECTION('center_axis',(-1.22464679914735E-16,-1.224646799147E-16,
1.));
#656=DIRECTION('ref_axis',(1.,0.,0.));
#657=DIRECTION('',(0.,0.,1.));
#658=DIRECTION('center_axis',(0.,0.,1.));
#659=DIRECTION('ref_axis',(1.,0.,0.));
#660=DIRECTION('center_axis',(0.,0.,1.));
#661=DIRECTION('ref_axis',(1.,0.,0.));
#662=DIRECTION('center_axis',(-1.,2.01858731750028E-17,0.));
#663=DIRECTION('ref_axis',(0.,0.,1.));
#664=DIRECTION('',(-2.01858731750028E-17,-1.,-1.224646799147E-16));
#665=DIRECTION('center_axis',(1.,-2.01858731750028E-17,0.));
#666=DIRECTION('ref_axis',(0.,-0.70710678118654,-0.707106781186555));
#667=DIRECTION('',(0.,0.,-1.));
#668=DIRECTION('center_axis',(-1.,2.01858731750028E-17,0.));
#669=DIRECTION('ref_axis',(0.,0.70710678118654,0.707106781186555));
#670=DIRECTION('',(2.01858731750028E-17,1.,0.));
#671=DIRECTION('center_axis',(-1.,2.01858731750028E-17,0.));
#672=DIRECTION('ref_axis',(0.,-0.707106781186546,0.707106781186549));
#673=DIRECTION('',(0.,0.,1.));
#674=DIRECTION('center_axis',(-1.,2.01858731750028E-17,0.));
#675=DIRECTION('ref_axis',(0.,0.,1.));
#676=DIRECTION('center_axis',(-1.,2.01858731750028E-17,0.));
#677=DIRECTION('ref_axis',(0.,0.707106781186548,0.707106781186547));
#678=DIRECTION('',(2.01858731750028E-17,1.,0.));
#679=DIRECTION('center_axis',(-1.,2.01858731750028E-17,0.));
#680=DIRECTION('ref_axis',(0.,-0.70710678118655,0.707106781186545));
#681=DIRECTION('',(0.,0.,1.));
#682=DIRECTION('center_axis',(1.,-2.01858731750028E-17,0.));
#683=DIRECTION('ref_axis',(0.,0.70710678118655,-0.707106781186545));
#684=DIRECTION('',(-2.01858731750028E-17,-1.,-1.224646799147E-16));
#685=DIRECTION('',(0.,0.,-1.));
#686=DIRECTION('center_axis',(-1.,0.,0.));
#687=DIRECTION('ref_axis',(0.,0.70710678118654,0.707106781186555));
#688=DIRECTION('',(-1.,0.,0.));
#689=DIRECTION('center_axis',(1.,0.,0.));
#690=DIRECTION('ref_axis',(0.,1.,0.));
#691=DIRECTION('',(1.,0.,0.));
#692=DIRECTION('center_axis',(0.,1.,0.));
#693=DIRECTION('ref_axis',(-1.,0.,0.));
#694=DIRECTION('',(1.,0.,1.22464679914735E-16));
#695=DIRECTION('',(0.,0.,-1.));
#696=DIRECTION('center_axis',(-1.,0.,-1.22464679914735E-16));
#697=DIRECTION('ref_axis',(0.,-0.70710678118654,-0.707106781186555));
#698=DIRECTION('',(-1.,0.,-1.22464679914735E-16));
#699=DIRECTION('center_axis',(-1.,1.77635683940026E-14,0.));
#700=DIRECTION('ref_axis',(0.,0.,-1.));
#701=DIRECTION('center_axis',(-1.53827095269652E-17,-1.,0.));
#702=DIRECTION('ref_axis',(1.,-1.53827095269652E-17,0.));
#703=DIRECTION('',(1.,-1.53827095269652E-17,0.));
#704=DIRECTION('',(0.,0.,1.));
#705=DIRECTION('',(-1.,1.53827095269652E-17,-1.22464679914735E-16));
#706=DIRECTION('center_axis',(1.,-1.53827095269652E-17,0.));
#707=DIRECTION('ref_axis',(0.,-0.70710678118655,0.707106781186545));
#708=DIRECTION('',(-1.,1.53827095269652E-17,0.));
#709=DIRECTION('center_axis',(1.,0.,0.));
#710=DIRECTION('ref_axis',(0.,0.,1.));
#711=DIRECTION('center_axis',(-1.22464679914735E-16,-1.224646799147E-16,
1.));
#712=DIRECTION('ref_axis',(1.,0.,1.22464679914735E-16));
#713=DIRECTION('',(1.,5.51663614720575E-17,1.22464679914735E-16));
#714=DIRECTION('center_axis',(-1.22464679914735E-16,-1.224646799147E-16,
1.));
#715=DIRECTION('ref_axis',(-1.,0.,0.));
#716=DIRECTION('',(4.03717463500057E-17,-1.,-1.224646799147E-16));
#717=DIRECTION('center_axis',(-1.22464679914735E-16,-1.224646799147E-16,
1.));
#718=DIRECTION('ref_axis',(0.,1.,0.));
#719=DIRECTION('',(-1.,0.,-1.22464679914735E-16));
#720=DIRECTION('',(1.,-1.53827095269652E-17,1.22464679914735E-16));
#721=DIRECTION('',(-4.52229337934963E-17,1.,1.224646799147E-16));
#722=DIRECTION('center_axis',(-1.,-4.03717463500057E-17,0.));
#723=DIRECTION('ref_axis',(4.03717463500057E-17,-1.,0.));
#724=DIRECTION('',(0.,0.,-1.));
#725=DIRECTION('',(4.03717463500057E-17,-1.,0.));
#726=DIRECTION('',(0.,0.,1.));
#727=DIRECTION('center_axis',(0.,0.,1.));
#728=DIRECTION('ref_axis',(-1.,0.,0.));
#729=DIRECTION('',(0.,0.,1.));
#730=DIRECTION('center_axis',(0.,0.,1.));
#731=DIRECTION('ref_axis',(-0.707106781186545,-0.70710678118655,0.));
#732=DIRECTION('center_axis',(5.51663614720574E-17,-1.,0.));
#733=DIRECTION('ref_axis',(1.,5.51663614720575E-17,0.));
#734=DIRECTION('',(1.,5.51663614720575E-17,0.));
#735=DIRECTION('center_axis',(-4.52229337934963E-17,1.,1.224646799147E-16));
#736=DIRECTION('ref_axis',(-0.707106781186549,0.,-0.707106781186546));
#737=DIRECTION('center_axis',(0.,-1.,0.));
#738=DIRECTION('ref_axis',(-1.,0.,0.));
#739=DIRECTION('center_axis',(0.,1.,0.));
#740=DIRECTION('ref_axis',(0.,0.,-1.));
#741=DIRECTION('',(4.52229337934963E-17,-1.,-1.224646799147E-16));
#742=DIRECTION('center_axis',(-0.816496580927736,0.408248290463859,0.408248290463847));
#743=DIRECTION('ref_axis',(-0.577350269189614,-0.577350269189638,-0.577350269189625));
#744=DIRECTION('center_axis',(0.,0.,1.));
#745=DIRECTION('ref_axis',(-0.707106781186545,-0.70710678118655,0.));
#746=DIRECTION('center_axis',(1.,-1.53827095269652E-17,1.22464679914735E-16));
#747=DIRECTION('ref_axis',(0.,0.70710678118655,-0.707106781186545));
#748=DIRECTION('center_axis',(-1.,0.,0.));
#749=DIRECTION('ref_axis',(0.,1.,0.));
#750=DIRECTION('center_axis',(-0.40824829046386,-0.816496580927727,-0.408248290463864));
#751=DIRECTION('ref_axis',(-0.577350269189625,0.577350269189625,-0.577350269189627));
#752=DIRECTION('center_axis',(0.,0.,1.));
#753=DIRECTION('ref_axis',(-0.707106781186548,0.707106781186548,0.));
#754=DIRECTION('center_axis',(0.,0.,1.));
#755=DIRECTION('ref_axis',(-0.707106781186548,0.707106781186548,0.));
#756=DIRECTION('center_axis',(0.,0.,-1.));
#757=DIRECTION('ref_axis',(0.,1.,0.));
#758=DIRECTION('',(0.,0.,-1.));
#759=DIRECTION('center_axis',(-1.,0.,0.));
#760=DIRECTION('ref_axis',(0.,0.707106781186548,0.707106781186547));
#761=DIRECTION('',(-1.,0.,0.));
#762=DIRECTION('center_axis',(1.,0.,0.));
#763=DIRECTION('ref_axis',(0.,1.,0.));
#764=DIRECTION('',(1.,0.,0.));
#765=DIRECTION('center_axis',(0.,0.,1.));
#766=DIRECTION('ref_axis',(1.,0.,0.));
#767=DIRECTION('center_axis',(1.11022302462516E-15,1.,0.));
#768=DIRECTION('ref_axis',(-1.,1.11022302462516E-15,0.));
#769=DIRECTION('center_axis',(0.,0.,-1.));
#770=DIRECTION('ref_axis',(-0.707106781186547,0.707106781186548,0.));
#771=DIRECTION('center_axis',(0.,0.,1.));
#772=DIRECTION('ref_axis',(-0.707106781186547,0.707106781186548,0.));
#773=DIRECTION('center_axis',(4.03717463500057E-17,-1.,0.));
#774=DIRECTION('ref_axis',(-0.707106781186547,0.,0.707106781186548));
#775=DIRECTION('center_axis',(0.,1.,0.));
#776=DIRECTION('ref_axis',(-1.,0.,0.));
#777=DIRECTION('',(-4.03717463500057E-17,1.,0.));
#778=DIRECTION('center_axis',(0.,0.,1.));
#779=DIRECTION('ref_axis',(1.,0.,0.));
#780=DIRECTION('center_axis',(-1.,-5.5511151231258E-15,0.));
#781=DIRECTION('ref_axis',(5.5511151231258E-15,-1.,0.));
#782=DIRECTION('center_axis',(0.,0.,-1.));
#783=DIRECTION('ref_axis',(-0.707106781186545,-0.70710678118655,0.));
#784=DIRECTION('center_axis',(1.,5.51663614720574E-17,0.));
#785=DIRECTION('ref_axis',(0.,-0.707106781186546,0.707106781186549));
#786=DIRECTION('',(-1.,-5.51663614720575E-17,0.));
#787=DIRECTION('center_axis',(0.,0.,1.));
#788=DIRECTION('ref_axis',(0.,1.,0.));
#789=DIRECTION('',(0.,0.,1.));
#790=DIRECTION('center_axis',(0.,1.,0.));
#791=DIRECTION('ref_axis',(-1.,0.,-1.69994475971103E-49));
#792=DIRECTION('center_axis',(0.,0.,1.));
#793=DIRECTION('ref_axis',(1.,0.,0.));
#794=DIRECTION('center_axis',(0.,0.,1.));
#795=DIRECTION('ref_axis',(-0.707106781186544,-0.707106781186551,0.));
#796=DIRECTION('',(4.52229337934963E-17,-1.,0.));
#797=DIRECTION('center_axis',(0.,0.,1.));
#798=DIRECTION('ref_axis',(-0.707106781186548,0.707106781186548,0.));
#799=DIRECTION('center_axis',(0.,0.,-1.));
#800=DIRECTION('ref_axis',(-1.,0.,0.));
#801=DIRECTION('center_axis',(0.,-1.,0.));
#802=DIRECTION('ref_axis',(1.,0.,0.));
#803=DIRECTION('center_axis',(0.,0.,-1.));
#804=DIRECTION('ref_axis',(-1.,0.,0.));
#805=DIRECTION('center_axis',(0.,0.,-1.));
#806=DIRECTION('ref_axis',(-1.,0.,0.));
#807=DIRECTION('center_axis',(0.,1.,0.));
#808=DIRECTION('ref_axis',(0.,0.,1.));
#809=DIRECTION('center_axis',(0.,0.,1.));
#810=DIRECTION('ref_axis',(-0.707106781186541,-0.707106781186554,0.));
#811=DIRECTION('',(0.,0.,1.));
#812=DIRECTION('center_axis',(-4.52229337934963E-17,1.,0.));
#813=DIRECTION('ref_axis',(0.707106781186547,0.,0.707106781186548));
#814=DIRECTION('',(-4.52229337934963E-17,1.,0.));
#815=DIRECTION('center_axis',(1.,4.52229337934963E-17,0.));
#816=DIRECTION('ref_axis',(-4.52229337934963E-17,1.,0.));
#817=DIRECTION('',(0.,0.,1.));
#818=DIRECTION('',(1.,0.,0.));
#819=DIRECTION('',(0.,0.,1.));
#820=DIRECTION('',(1.,0.,0.));
#821=DIRECTION('',(0.,0.,1.));
#822=DIRECTION('',(1.,0.,0.));
#823=CARTESIAN_POINT('',(0.,0.,0.));
#824=CARTESIAN_POINT('',(0.,0.,0.));
#825=CARTESIAN_POINT('',(0.,0.,0.));
#826=CARTESIAN_POINT('',(0.,0.,0.));
#827=CARTESIAN_POINT('Origin',(18.0857864376269,-129.949091799245,-15.412480314961));
#828=CARTESIAN_POINT('',(16.5857864376269,-129.949091799245,6.73751968503902));
#829=CARTESIAN_POINT('Origin',(18.0857864376269,-129.949091799245,6.73751968503902));
#830=CARTESIAN_POINT('',(16.5857864376269,-129.949091799245,9.58751968503902));
#831=CARTESIAN_POINT('',(16.5857864376269,-129.949091799245,-15.412480314961));
#832=CARTESIAN_POINT('Origin',(18.0857864376269,-129.949091799245,9.58751968503902));
#833=CARTESIAN_POINT('Origin',(18.0857864376269,-129.949091799245,9.58751968503902));
#834=CARTESIAN_POINT('Origin',(18.0857864376269,-18.120664674499,-15.412480314961));
#835=CARTESIAN_POINT('',(16.5857864376269,-18.120664674499,6.73751968503902));
#836=CARTESIAN_POINT('Origin',(18.0857864376269,-18.120664674499,6.73751968503902));
#837=CARTESIAN_POINT('',(16.5857864376269,-18.120664674499,9.58751968503902));
#838=CARTESIAN_POINT('',(16.5857864376269,-18.120664674499,-15.412480314961));
#839=CARTESIAN_POINT('Origin',(18.0857864376269,-18.120664674499,9.58751968503902));
#840=CARTESIAN_POINT('Origin',(18.0857864376269,-18.120664674499,9.58751968503902));
#841=CARTESIAN_POINT('Origin',(180.,-74.,8.73751968503902));
#842=CARTESIAN_POINT('',(180.,-123.789162999542,6.73751968503901));
#843=CARTESIAN_POINT('',(180.,-134.,6.73751968503901));
#844=CARTESIAN_POINT('',(180.,-74.,6.73751968503902));
#845=CARTESIAN_POINT('',(180.,-124.789162999542,7.73751968503901));
#846=CARTESIAN_POINT('Origin',(180.,-123.789162999542,7.73751968503901));
#847=CARTESIAN_POINT('',(180.,-124.789162999542,9.73751968503902));
#848=CARTESIAN_POINT('',(180.,-124.789162999542,7.73751968503902));
#849=CARTESIAN_POINT('',(180.,-125.789162999542,10.737519685039));
#850=CARTESIAN_POINT('Origin',(180.,-125.789162999542,9.73751968503902));
#851=CARTESIAN_POINT('',(180.,-132.,10.737519685039));
#852=CARTESIAN_POINT('',(180.,-74.,10.737519685039));
#853=CARTESIAN_POINT('',(180.,-134.,8.73751968503902));
#854=CARTESIAN_POINT('Origin',(180.,-132.,8.73751968503902));
#855=CARTESIAN_POINT('',(180.,-134.,7.73751968503902));
#856=CARTESIAN_POINT('Origin',(180.,-74.,8.73751968503902));
#857=CARTESIAN_POINT('',(180.,-16.,10.737519685039));
#858=CARTESIAN_POINT('',(180.,-14.,8.73751968503902));
#859=CARTESIAN_POINT('Origin',(180.,-16.,8.73751968503902));
#860=CARTESIAN_POINT('',(180.,-25.589163,10.737519685039));
#861=CARTESIAN_POINT('',(180.,-74.,10.737519685039));
#862=CARTESIAN_POINT('',(180.,-26.589163,9.73751968503902));
#863=CARTESIAN_POINT('Origin',(180.,-25.589163,9.73751968503902));
#864=CARTESIAN_POINT('',(180.,-26.589163,7.73751968503903));
#865=CARTESIAN_POINT('',(180.,-26.589163,7.73751968503902));
#866=CARTESIAN_POINT('',(180.,-27.589163,6.73751968503903));
#867=CARTESIAN_POINT('Origin',(180.,-27.589163,7.73751968503903));
#868=CARTESIAN_POINT('',(180.,-14.,6.73751968503903));
#869=CARTESIAN_POINT('',(180.,-74.,6.73751968503902));
#870=CARTESIAN_POINT('',(180.,-14.,7.73751968503902));
#871=CARTESIAN_POINT('Origin',(244.3516575,-125.789162999542,9.73751968503902));
#872=CARTESIAN_POINT('',(21.0095649999795,-124.789162999542,9.73751968503902));
#873=CARTESIAN_POINT('',(244.3516575,-124.789162999542,9.73751968503902));
#874=CARTESIAN_POINT('',(21.0095649999796,-125.789162999542,10.737519685039));
#875=CARTESIAN_POINT('Origin',(21.0095649999796,-125.789162999542,9.73751968503902));
#876=CARTESIAN_POINT('',(244.3516575,-125.789162999542,10.737519685039));
#877=CARTESIAN_POINT('Origin',(308.703315,-124.789162999542,6.73751968503902));
#878=CARTESIAN_POINT('',(21.0095649999795,-124.789162999542,7.737519685039));
#879=CARTESIAN_POINT('',(236.435141678514,-124.789162999542,7.73751968503902));
#880=CARTESIAN_POINT('',(21.0095649999795,-124.789162999542,6.73751968503902));
#881=CARTESIAN_POINT('Origin',(236.435141678514,-123.789162999542,7.73751968503902));
#882=CARTESIAN_POINT('',(21.0095649999796,-123.789162999542,6.737519685039));
#883=CARTESIAN_POINT('',(236.435141678514,-123.789162999542,6.73751968503902));
#884=CARTESIAN_POINT('Origin',(21.0095649999796,-123.789162999542,7.737519685039));
#885=CARTESIAN_POINT('Origin',(20.0095649999795,-26.589163,6.73751968503902));
#886=CARTESIAN_POINT('',(21.0095649999795,-26.589163,9.73751968503902));
#887=CARTESIAN_POINT('',(100.00478249999,-26.589163,9.73751968503902));
#888=CARTESIAN_POINT('',(21.0095649999795,-26.589163,7.73751968503901));
#889=CARTESIAN_POINT('',(21.0095649999795,-26.589163,6.73751968503902));
#890=CARTESIAN_POINT('',(92.0882666785036,-26.589163,7.73751968503901));
#891=CARTESIAN_POINT('Origin',(100.00478249999,-25.589163,9.73751968503902));
#892=CARTESIAN_POINT('',(21.0095649999795,-25.589163,10.737519685039));
#893=CARTESIAN_POINT('',(100.00478249999,-25.589163,10.737519685039));
#894=CARTESIAN_POINT('Origin',(21.0095649999795,-25.589163,9.73751968503902));
#895=CARTESIAN_POINT('Origin',(180.,-74.,6.73751968503902));
#896=CARTESIAN_POINT('',(19.,-134.,6.737519685039));
#897=CARTESIAN_POINT('',(99.5,-134.,6.737519685039));
#898=CARTESIAN_POINT('',(14.,-129.,6.737519685039));
#899=CARTESIAN_POINT('Origin',(19.,-129.,6.73751968503902));
#900=CARTESIAN_POINT('',(14.,-19.,6.73751968503901));
#901=CARTESIAN_POINT('',(14.,-46.5,6.737519685039));
#902=CARTESIAN_POINT('',(19.,-14.,6.73751968503901));
#903=CARTESIAN_POINT('Origin',(19.,-19.,6.73751968503902));
#904=CARTESIAN_POINT('',(260.5,-14.,6.73751968503904));
#905=CARTESIAN_POINT('',(21.0095649999795,-27.589163,6.73751968503901));
#906=CARTESIAN_POINT('',(92.0882666785036,-27.589163,6.73751968503901));
#907=CARTESIAN_POINT('',(21.0095649999796,-100.305411326254,6.737519685039));
#908=CARTESIAN_POINT('Origin',(14.,-19.,6.73751968503902));
#909=CARTESIAN_POINT('',(14.,-129.,8.73751968503902));
#910=CARTESIAN_POINT('',(14.,-129.,6.73751968503902));
#911=CARTESIAN_POINT('',(14.,-19.,8.73751968503902));
#912=CARTESIAN_POINT('',(14.,-46.5,8.73751968503902));
#913=CARTESIAN_POINT('',(14.,-19.,6.73751968503902));
#914=CARTESIAN_POINT('Origin',(19.,-129.,6.73751968503902));
#915=CARTESIAN_POINT('',(19.,-134.,8.73751968503902));
#916=CARTESIAN_POINT('',(19.,-134.,6.73751968503902));
#917=CARTESIAN_POINT('Origin',(19.,-129.,8.73751968503902));
#918=CARTESIAN_POINT('Origin',(19.,-134.,6.73751968503902));
#919=CARTESIAN_POINT('',(99.5,-134.,8.73751968503902));
#920=CARTESIAN_POINT('Origin',(21.0095649999796,-100.305411326254,7.737519685039));
#921=CARTESIAN_POINT('',(20.0095649999795,-123.789162999542,7.737519685039));
#922=CARTESIAN_POINT('Origin',(21.0095649999796,-123.789162999542,7.737519685039));
#923=CARTESIAN_POINT('',(20.0095649999795,-27.589163,7.73751968503901));
#924=CARTESIAN_POINT('Origin',(21.0095649999795,-27.589163,7.73751968503901));
#925=CARTESIAN_POINT('',(20.0095649999795,-100.305411326254,7.737519685039));
#926=CARTESIAN_POINT('Origin',(21.0095649999795,-123.789162999542,7.737519685039));
#927=CARTESIAN_POINT('Origin',(21.0095649999795,-123.789162999542,7.737519685039));
#928=CARTESIAN_POINT('Origin',(92.0882666785036,-27.589163,7.73751968503901));
#929=CARTESIAN_POINT('Origin',(21.0095649999795,-27.589163,7.73751968503901));
#930=CARTESIAN_POINT('Origin',(21.0095649999795,-27.589163,7.73751968503901));
#931=CARTESIAN_POINT('Origin',(21.0095649999795,-27.589163,7.73751968503901));
#932=CARTESIAN_POINT('Origin',(21.0095649999795,-27.589163,6.73751968503902));
#933=CARTESIAN_POINT('',(20.0095649999795,-27.589163,9.73751968503902));
#934=CARTESIAN_POINT('Origin',(21.0095649999795,-27.589163,9.73751968503902));
#935=CARTESIAN_POINT('',(20.0095649999795,-27.589163,6.73751968503902));
#936=CARTESIAN_POINT('Origin',(260.5,-16.,8.73751968503902));
#937=CARTESIAN_POINT('',(19.,-14.,8.73751968503902));
#938=CARTESIAN_POINT('',(260.5,-14.,8.73751968503902));
#939=CARTESIAN_POINT('',(19.,-16.,10.737519685039));
#940=CARTESIAN_POINT('Origin',(19.,-16.,8.73751968503902));
#941=CARTESIAN_POINT('',(260.5,-16.,10.737519685039));
#942=CARTESIAN_POINT('Origin',(19.,-19.,8.73751968503902));
#943=CARTESIAN_POINT('',(16.,-19.,10.737519685039));
#944=CARTESIAN_POINT('Origin',(16.,-19.,8.73751968503902));
#945=CARTESIAN_POINT('Origin',(19.,-19.,10.737519685039));
#946=CARTESIAN_POINT('Origin',(19.,-19.,8.73751968503902));
#947=CARTESIAN_POINT('Origin',(16.,-46.5,8.73751968503902));
#948=CARTESIAN_POINT('',(16.,-129.,10.737519685039));
#949=CARTESIAN_POINT('Origin',(16.,-129.,8.73751968503902));
#950=CARTESIAN_POINT('',(16.,-46.5,10.737519685039));
#951=CARTESIAN_POINT('Origin',(19.,-129.,8.73751968503902));
#952=CARTESIAN_POINT('',(19.,-132.,10.737519685039));
#953=CARTESIAN_POINT('Origin',(19.,-132.,8.73751968503902));
#954=CARTESIAN_POINT('Origin',(19.,-129.,10.737519685039));
#955=CARTESIAN_POINT('Origin',(99.5,-132.,8.73751968503902));
#956=CARTESIAN_POINT('',(99.5,-132.,10.737519685039));
#957=CARTESIAN_POINT('Origin',(19.,-19.,6.73751968503902));
#958=CARTESIAN_POINT('',(19.,-14.,6.73751968503902));
#959=CARTESIAN_POINT('Origin',(341.,-14.,6.73751968503902));
#960=CARTESIAN_POINT('Origin',(180.,-74.,10.737519685039));
#961=CARTESIAN_POINT('',(19.0095649999795,-123.789162999542,10.737519685039));
#962=CARTESIAN_POINT('Origin',(21.0095649999796,-123.789162999542,10.737519685039));
#963=CARTESIAN_POINT('',(19.0095649999795,-27.589163,10.737519685039));
#964=CARTESIAN_POINT('',(19.0095649999795,-99.394581499771,10.737519685039));
#965=CARTESIAN_POINT('Origin',(21.0095649999795,-27.589163,10.737519685039));
#966=CARTESIAN_POINT('Origin',(21.0095649999795,-27.589163,9.73751968503902));
#967=CARTESIAN_POINT('Origin',(19.0095649999795,-27.589163,9.73751968503902));
#968=CARTESIAN_POINT('Origin',(21.0095649999796,-123.789162999542,9.73751968503902));
#969=CARTESIAN_POINT('',(20.0095649999795,-123.789162999542,9.73751968503902));
#970=CARTESIAN_POINT('Origin',(21.0095649999795,-123.789162999542,9.73751968503902));
#971=CARTESIAN_POINT('Origin',(19.0095649999795,-123.789162999542,9.73751968503902));
#972=CARTESIAN_POINT('Origin',(21.0095649999795,-123.789162999542,6.73751968503902));
#973=CARTESIAN_POINT('',(20.0095649999795,-123.789162999542,6.73751968503902));
#974=CARTESIAN_POINT('Origin',(19.0095649999795,-99.394581499771,9.73751968503902));
#975=CARTESIAN_POINT('',(20.0095649999795,-99.394581499771,9.73751968503902));
#976=CARTESIAN_POINT('Origin',(20.0095649999795,-124.789162999542,6.73751968503902));
#977=CARTESIAN_POINT('',(0.,0.,0.));
#978=CARTESIAN_POINT('',(0.,0.,0.));
#979=CARTESIAN_POINT('',(0.,0.,0.));
#980=UNCERTAINTY_MEASURE_WITH_UNIT(LENGTH_MEASURE(0.01),#990,
'DISTANCE_ACCURACY_VALUE',
'Maximum model space distance between geometric entities at asserted c
onnectivities');
#981=UNCERTAINTY_MEASURE_WITH_UNIT(LENGTH_MEASURE(0.01),#990,
'DISTANCE_ACCURACY_VALUE',
'Maximum model space distance between geometric entities at asserted c
onnectivities');
#982=UNCERTAINTY_MEASURE_WITH_UNIT(LENGTH_MEASURE(0.01),#990,
'DISTANCE_ACCURACY_VALUE',
'Maximum model space distance between geometric entities at asserted c
onnectivities');
#983=UNCERTAINTY_MEASURE_WITH_UNIT(LENGTH_MEASURE(0.01),#990,
'DISTANCE_ACCURACY_VALUE',
'Maximum model space distance between geometric entities at asserted c
onnectivities');
#984=UNCERTAINTY_MEASURE_WITH_UNIT(LENGTH_MEASURE(0.01),#990,
'DISTANCE_ACCURACY_VALUE',
'Maximum model space distance between geometric entities at asserted c
onnectivities');
#985=(
GEOMETRIC_REPRESENTATION_CONTEXT(3)
GLOBAL_UNCERTAINTY_ASSIGNED_CONTEXT((#980))
GLOBAL_UNIT_ASSIGNED_CONTEXT((#990,#992,#993))
REPRESENTATION_CONTEXT('','3D')
);
#986=(
GEOMETRIC_REPRESENTATION_CONTEXT(3)
GLOBAL_UNCERTAINTY_ASSIGNED_CONTEXT((#981))
GLOBAL_UNIT_ASSIGNED_CONTEXT((#990,#992,#993))
REPRESENTATION_CONTEXT('','3D')
);
#987=(
GEOMETRIC_REPRESENTATION_CONTEXT(3)
GLOBAL_UNCERTAINTY_ASSIGNED_CONTEXT((#982))
GLOBAL_UNIT_ASSIGNED_CONTEXT((#990,#992,#993))
REPRESENTATION_CONTEXT('','3D')
);
#988=(
GEOMETRIC_REPRESENTATION_CONTEXT(3)
GLOBAL_UNCERTAINTY_ASSIGNED_CONTEXT((#983))
GLOBAL_UNIT_ASSIGNED_CONTEXT((#990,#992,#993))
REPRESENTATION_CONTEXT('','3D')
);
#989=(
GEOMETRIC_REPRESENTATION_CONTEXT(3)
GLOBAL_UNCERTAINTY_ASSIGNED_CONTEXT((#984))
GLOBAL_UNIT_ASSIGNED_CONTEXT((#990,#992,#993))
REPRESENTATION_CONTEXT('','3D')
);
#990=(
LENGTH_UNIT()
NAMED_UNIT(*)
SI_UNIT(.MILLI.,.METRE.)
);
#991=(
LENGTH_UNIT()
NAMED_UNIT(*)
SI_UNIT($,.METRE.)
);
#992=(
NAMED_UNIT(*)
PLANE_ANGLE_UNIT()
SI_UNIT($,.RADIAN.)
);
#993=(
NAMED_UNIT(*)
SI_UNIT($,.STERADIAN.)
SOLID_ANGLE_UNIT()
);
#994=SHAPE_DEFINITION_REPRESENTATION(#998,#1005);
#995=SHAPE_DEFINITION_REPRESENTATION(#999,#1006);
#996=SHAPE_DEFINITION_REPRESENTATION(#1000,#1007);
#997=SHAPE_DEFINITION_REPRESENTATION(#1001,#1008);
#998=PRODUCT_DEFINITION_SHAPE('',$,#1010);
#999=PRODUCT_DEFINITION_SHAPE('',$,#1011);
#1000=PRODUCT_DEFINITION_SHAPE('',$,#1012);
#1001=PRODUCT_DEFINITION_SHAPE('',$,#1013);
#1002=PRODUCT_DEFINITION_SHAPE($,$,#20);
#1003=PRODUCT_DEFINITION_SHAPE($,$,#21);
#1004=PRODUCT_DEFINITION_SHAPE($,$,#22);
#1005=SHAPE_REPRESENTATION('',(#562,#633,#634,#635),#985);
#1006=SHAPE_REPRESENTATION('',(#563),#986);
#1007=SHAPE_REPRESENTATION('',(#564),#987);
#1008=SHAPE_REPRESENTATION('',(#565),#988);
#1009=PRODUCT_DEFINITION_CONTEXT('part definition',#1023,'design');
#1010=PRODUCT_DEFINITION('.step 1','Keeb v7',#1014,#1009);
#1011=PRODUCT_DEFINITION('My-keebs_PCB','My-keebs_PCB',#1015,#1009);
#1012=PRODUCT_DEFINITION('Component39','Component39',#1016,#1009);
#1013=PRODUCT_DEFINITION('Component40','Component40',#1017,#1009);
#1014=PRODUCT_DEFINITION_FORMATION('',$,#1025);
#1015=PRODUCT_DEFINITION_FORMATION('',$,#1026);
#1016=PRODUCT_DEFINITION_FORMATION('',$,#1027);
#1017=PRODUCT_DEFINITION_FORMATION('',$,#1028);
#1018=PRODUCT_RELATED_PRODUCT_CATEGORY('Keeb v7','Keeb v7',(#1025));
#1019=PRODUCT_RELATED_PRODUCT_CATEGORY('My-keebs_PCB','My-keebs_PCB',(#1026));
#1020=PRODUCT_RELATED_PRODUCT_CATEGORY('Component39','Component39',(#1027));
#1021=PRODUCT_RELATED_PRODUCT_CATEGORY('Component40','Component40',(#1028));
#1022=APPLICATION_PROTOCOL_DEFINITION('international standard',
'automotive_design',2009,#1023);
#1023=APPLICATION_CONTEXT(
'Core Data for Automotive Mechanical Design Process');
#1024=PRODUCT_CONTEXT('part definition',#1023,'mechanical');
#1025=PRODUCT('.step 1','Keeb v7','KiCad electronic assembly',(#1024));
#1026=PRODUCT('My-keebs_PCB','My-keebs_PCB',$,(#1024));
#1027=PRODUCT('Component39','Component39',$,(#1024));
#1028=PRODUCT('Component40','Component40',$,(#1024));
#1029=PRESENTATION_STYLE_ASSIGNMENT((#1031));
#1030=PRESENTATION_STYLE_ASSIGNMENT((#1032));
#1031=SURFACE_STYLE_USAGE(.BOTH.,#1033);
#1032=SURFACE_STYLE_USAGE(.BOTH.,#1034);
#1033=SURFACE_SIDE_STYLE('',(#1035));
#1034=SURFACE_SIDE_STYLE('',(#1036));
#1035=SURFACE_STYLE_FILL_AREA(#1037);
#1036=SURFACE_STYLE_FILL_AREA(#1038);
#1037=FILL_AREA_STYLE('Steel - Satin',(#1039));
#1038=FILL_AREA_STYLE('Opaque(246,246,243)',(#1040));
#1039=FILL_AREA_STYLE_COLOUR('Steel - Satin',#1041);
#1040=FILL_AREA_STYLE_COLOUR('Opaque(246,246,243)',#1042);
#1041=COLOUR_RGB('Steel - Satin',0.627450980392157,0.627450980392157,0.627450980392157);
#1042=COLOUR_RGB('Opaque(246,246,243)',0.964705882352941,0.964705882352941,
0.952941176470588);
ENDSEC;
END-ISO-10303-21;
