ISO-10303-21;
HEADER;
/* Generated by software containing ST-Developer
 * from STEP Tools, Inc. (www.steptools.com) 
 */

FILE_DESCRIPTION(
/* description */ ('KiCad electronic assembly'),
/* implementation_level */ '2;1');

FILE_NAME(
/* name */ 'Keeb case-left(step).step',
/* time_stamp */ '2026-09-05T16:30:45+05:30',
/* author */ (''),
/* organization */ (''),
/* preprocessor_version */ 'ST-DEVELOPER v20.1',
/* originating_system */ 'Autodesk Translation Framework v15.8.0.0',
/* authorisation */ '');

FILE_SCHEMA (('AP203_CONFIGURATION_CONTROLLED_3D_DESIGN_OF_MECHANICAL_PARTS_AND_ASSEMBLIES_MIM_LF { 1 0 10303 203 3 1 4 }',
'AUTOMOTIVE_DESIGN { 1 0 10303 214 3 1 1 }'));
ENDSEC;

DATA;
#10=MECHANICAL_DESIGN_GEOMETRIC_PRESENTATION_REPRESENTATION('',(#48),#968);
#11=ITEM_DEFINED_TRANSFORMATION($,$,#532,#589);
#12=ITEM_DEFINED_TRANSFORMATION($,$,#587,#590);
#13=ITEM_DEFINED_TRANSFORMATION($,$,#588,#591);
#14=(
REPRESENTATION_RELATIONSHIP($,$,#985,#984)
REPRESENTATION_RELATIONSHIP_WITH_TRANSFORMATION(#11)
SHAPE_REPRESENTATION_RELATIONSHIP()
);
#15=(
REPRESENTATION_RELATIONSHIP($,$,#986,#984)
REPRESENTATION_RELATIONSHIP_WITH_TRANSFORMATION(#12)
SHAPE_REPRESENTATION_RELATIONSHIP()
);
#16=(
REPRESENTATION_RELATIONSHIP($,$,#987,#984)
REPRESENTATION_RELATIONSHIP_WITH_TRANSFORMATION(#13)
SHAPE_REPRESENTATION_RELATIONSHIP()
);
#17=CONTEXT_DEPENDENT_SHAPE_REPRESENTATION(#14,#981);
#18=CONTEXT_DEPENDENT_SHAPE_REPRESENTATION(#15,#982);
#19=CONTEXT_DEPENDENT_SHAPE_REPRESENTATION(#16,#983);
#20=NEXT_ASSEMBLY_USAGE_OCCURRENCE('My-keebs_PCB:1','My-keebs_PCB:1',
'My-keebs_PCB:1',#989,#990,'My-keebs_PCB:1');
#21=NEXT_ASSEMBLY_USAGE_OCCURRENCE('Component39:1','Component39:1',
'Component39:1',#989,#991,'Component39:1');
#22=NEXT_ASSEMBLY_USAGE_OCCURRENCE('Component40:1','Component40:1',
'Component40:1',#989,#992,'Component40:1');
#23=DERIVED_UNIT_ELEMENT(#27,1.);
#24=DERIVED_UNIT_ELEMENT(#970,-3.);
#25=DERIVED_UNIT_ELEMENT(#27,1.);
#26=DERIVED_UNIT_ELEMENT(#970,-3.);
#27=(
MASS_UNIT()
NAMED_UNIT(*)
SI_UNIT(.KILO.,.GRAM.)
);
#28=DERIVED_UNIT((#23,#24));
#29=DERIVED_UNIT((#25,#26));
#30=MEASURE_REPRESENTATION_ITEM('density measure',
POSITIVE_RATIO_MEASURE(7850.),#28);
#31=MEASURE_REPRESENTATION_ITEM('density measure',
POSITIVE_RATIO_MEASURE(7850.),#29);
#32=PROPERTY_DEFINITION_REPRESENTATION(#42,#36);
#33=PROPERTY_DEFINITION_REPRESENTATION(#43,#37);
#34=PROPERTY_DEFINITION_REPRESENTATION(#44,#38);
#35=PROPERTY_DEFINITION_REPRESENTATION(#45,#39);
#36=REPRESENTATION('material name',(#40),#966);
#37=REPRESENTATION('density',(#30),#966);
#38=REPRESENTATION('material name',(#41),#967);
#39=REPRESENTATION('density',(#31),#967);
#40=DESCRIPTIVE_REPRESENTATION_ITEM('Steel','Steel');
#41=DESCRIPTIVE_REPRESENTATION_ITEM('Steel','Steel');
#42=PROPERTY_DEFINITION('material property','material name',#991);
#43=PROPERTY_DEFINITION('material property','density of part',#991);
#44=PROPERTY_DEFINITION('material property','material name',#992);
#45=PROPERTY_DEFINITION('material property','density of part',#992);
#46=SHAPE_REPRESENTATION_RELATIONSHIP('SRR','None',#985,#47);
#47=ADVANCED_BREP_SHAPE_REPRESENTATION('',(#49),#965);
#48=STYLED_ITEM('',(#1009),#49);
#49=MANIFOLD_SOLID_BREP('Body3',#530);
#50=B_SPLINE_SURFACE_WITH_KNOTS('',3,3,((#841,#842,#843,#844,#845,#846),
(#847,#848,#849,#850,#851,#852),(#853,#854,#855,#856,#857,#858),(#859,#860,
#861,#862,#863,#864),(#865,#866,#867,#868,#869,#870)),.UNSPECIFIED.,.F.,
 .F.,.F.,(4,1,4),(4,1,1,4),(0.,0.571428571428571,1.),(-5.54971723466025E-16,
0.448798950512827,0.897597901025655,1.5707963267949),.UNSPECIFIED.);
#51=B_SPLINE_SURFACE_WITH_KNOTS('',3,3,((#882,#883,#884,#885,#886,#887),
(#888,#889,#890,#891,#892,#893),(#894,#895,#896,#897,#898,#899),(#900,#901,
#902,#903,#904,#905),(#906,#907,#908,#909,#910,#911)),.UNSPECIFIED.,.F.,
 .F.,.F.,(4,1,4),(4,1,1,4),(0.,0.571428571428571,1.),(-1.57079632679489,
-0.897597901025654,-0.448798950512827,6.20760658325636E-17),
 .UNSPECIFIED.);
#52=FACE_BOUND('',#104,.T.);
#53=FACE_BOUND('',#110,.T.);
#54=FACE_BOUND('',#120,.T.);
#55=FACE_BOUND('',#121,.T.);
#56=FACE_BOUND('',#129,.T.);
#57=FACE_BOUND('',#132,.T.);
#58=PLANE('',#543);
#59=PLANE('',#545);
#60=PLANE('',#546);
#61=PLANE('',#547);
#62=PLANE('',#550);
#63=PLANE('',#551);
#64=PLANE('',#553);
#65=PLANE('',#568);
#66=PLANE('',#569);
#67=PLANE('',#570);
#68=PLANE('',#574);
#69=PLANE('',#578);
#70=PLANE('',#581);
#71=PLANE('',#584);
#72=PLANE('',#586);
#73=FACE_OUTER_BOUND('',#101,.T.);
#74=FACE_OUTER_BOUND('',#102,.T.);
#75=FACE_OUTER_BOUND('',#103,.T.);
#76=FACE_OUTER_BOUND('',#105,.T.);
#77=FACE_OUTER_BOUND('',#106,.T.);
#78=FACE_OUTER_BOUND('',#107,.T.);
#79=FACE_OUTER_BOUND('',#108,.T.);
#80=FACE_OUTER_BOUND('',#109,.T.);
#81=FACE_OUTER_BOUND('',#111,.T.);
#82=FACE_OUTER_BOUND('',#112,.T.);
#83=FACE_OUTER_BOUND('',#113,.T.);
#84=FACE_OUTER_BOUND('',#114,.T.);
#85=FACE_OUTER_BOUND('',#115,.T.);
#86=FACE_OUTER_BOUND('',#116,.T.);
#87=FACE_OUTER_BOUND('',#117,.T.);
#88=FACE_OUTER_BOUND('',#118,.T.);
#89=FACE_OUTER_BOUND('',#119,.T.);
#90=FACE_OUTER_BOUND('',#122,.T.);
#91=FACE_OUTER_BOUND('',#123,.T.);
#92=FACE_OUTER_BOUND('',#124,.T.);
#93=FACE_OUTER_BOUND('',#125,.T.);
#94=FACE_OUTER_BOUND('',#126,.T.);
#95=FACE_OUTER_BOUND('',#127,.T.);
#96=FACE_OUTER_BOUND('',#128,.T.);
#97=FACE_OUTER_BOUND('',#130,.T.);
#98=FACE_OUTER_BOUND('',#131,.T.);
#99=FACE_OUTER_BOUND('',#133,.T.);
#100=FACE_OUTER_BOUND('',#134,.T.);
#101=EDGE_LOOP('',(#355,#356,#357,#358,#359,#360,#361,#362));
#102=EDGE_LOOP('',(#363,#364,#365,#366,#367,#368,#369,#370));
#103=EDGE_LOOP('',(#371,#372,#373,#374,#375));
#104=EDGE_LOOP('',(#376));
#105=EDGE_LOOP('',(#377,#378,#379,#380,#381));
#106=EDGE_LOOP('',(#382,#383,#384,#385));
#107=EDGE_LOOP('',(#386,#387,#388,#389,#390,#391,#392,#393,#394,#395,#396));
#108=EDGE_LOOP('',(#397,#398,#399,#400));
#109=EDGE_LOOP('',(#401,#402,#403,#404,#405));
#110=EDGE_LOOP('',(#406));
#111=EDGE_LOOP('',(#407,#408,#409,#410,#411,#412,#413,#414,#415,#416,#417,
#418,#419,#420));
#112=EDGE_LOOP('',(#421,#422,#423,#424));
#113=EDGE_LOOP('',(#425,#426,#427,#428));
#114=EDGE_LOOP('',(#429,#430,#431,#432));
#115=EDGE_LOOP('',(#433,#434,#435,#436));
#116=EDGE_LOOP('',(#437,#438,#439,#440));
#117=EDGE_LOOP('',(#441,#442,#443,#444));
#118=EDGE_LOOP('',(#445,#446,#447,#448));
#119=EDGE_LOOP('',(#449,#450,#451,#452,#453,#454));
#120=EDGE_LOOP('',(#455));
#121=EDGE_LOOP('',(#456));
#122=EDGE_LOOP('',(#457,#458,#459,#460));
#123=EDGE_LOOP('',(#461,#462,#463,#464));
#124=EDGE_LOOP('',(#465));
#125=EDGE_LOOP('',(#466,#467,#468,#469));
#126=EDGE_LOOP('',(#470));
#127=EDGE_LOOP('',(#471,#472,#473,#474));
#128=EDGE_LOOP('',(#475));
#129=EDGE_LOOP('',(#476));
#130=EDGE_LOOP('',(#477,#478,#479,#480));
#131=EDGE_LOOP('',(#481));
#132=EDGE_LOOP('',(#482));
#133=EDGE_LOOP('',(#483,#484,#485,#486));
#134=EDGE_LOOP('',(#487,#488,#489,#490));
#135=CIRCLE('',#535,1.5);
#136=CIRCLE('',#537,1.5);
#137=CIRCLE('',#540,1.5);
#138=CIRCLE('',#541,1.5);
#139=CIRCLE('',#542,1.5);
#140=CIRCLE('',#548,1.);
#141=CIRCLE('',#549,1.);
#142=CIRCLE('',#552,2.);
#143=CIRCLE('',#554,5.);
#144=CIRCLE('',#555,5.00000000000003);
#145=CIRCLE('',#557,0.999999999999998);
#146=CIRCLE('',#558,1.);
#147=CIRCLE('',#562,1.);
#148=CIRCLE('',#563,0.999999999999999);
#149=CIRCLE('',#572,1.4);
#150=CIRCLE('',#573,1.4);
#151=CIRCLE('',#576,1.4);
#152=CIRCLE('',#577,1.4);
#153=CIRCLE('',#580,2.);
#154=CIRCLE('',#583,2.);
#155=LINE('',#760,#195);
#156=LINE('',#764,#196);
#157=LINE('',#768,#197);
#158=LINE('',#774,#198);
#159=LINE('',#778,#199);
#160=LINE('',#782,#200);
#161=LINE('',#786,#201);
#162=LINE('',#788,#202);
#163=LINE('',#790,#203);
#164=LINE('',#791,#204);
#165=LINE('',#795,#205);
#166=LINE('',#796,#206);
#167=LINE('',#799,#207);
#168=LINE('',#801,#208);
#169=LINE('',#802,#209);
#170=LINE('',#805,#210);
#171=LINE('',#806,#211);
#172=LINE('',#808,#212);
#173=LINE('',#810,#213);
#174=LINE('',#812,#214);
#175=LINE('',#816,#215);
#176=LINE('',#819,#216);
#177=LINE('',#821,#217);
#178=LINE('',#827,#218);
#179=LINE('',#831,#219);
#180=LINE('',#834,#220);
#181=LINE('',#837,#221);
#182=LINE('',#840,#222);
#183=LINE('',#880,#223);
#184=LINE('',#881,#224);
#185=LINE('',#918,#225);
#186=LINE('',#919,#226);
#187=LINE('',#921,#227);
#188=LINE('',#922,#228);
#189=LINE('',#926,#229);
#190=LINE('',#931,#230);
#191=LINE('',#938,#231);
#192=LINE('',#944,#232);
#193=LINE('',#949,#233);
#194=LINE('',#952,#234);
#195=VECTOR('',#600,1.5);
#196=VECTOR('',#603,10.);
#197=VECTOR('',#606,10.);
#198=VECTOR('',#613,1.5);
#199=VECTOR('',#616,10.);
#200=VECTOR('',#619,10.);
#201=VECTOR('',#624,10.);
#202=VECTOR('',#625,10.);
#203=VECTOR('',#626,10.);
#204=VECTOR('',#627,10.);
#205=VECTOR('',#632,10.);
#206=VECTOR('',#633,10.);
#207=VECTOR('',#636,10.);
#208=VECTOR('',#637,10.);
#209=VECTOR('',#638,10.);
#210=VECTOR('',#641,10.);
#211=VECTOR('',#642,10.);
#212=VECTOR('',#643,10.);
#213=VECTOR('',#644,10.);
#214=VECTOR('',#645,10.);
#215=VECTOR('',#648,10.);
#216=VECTOR('',#651,10.);
#217=VECTOR('',#654,10.);
#218=VECTOR('',#661,10.);
#219=VECTOR('',#664,10.);
#220=VECTOR('',#667,10.);
#221=VECTOR('',#670,10.);
#222=VECTOR('',#673,10.);
#223=VECTOR('',#684,10.);
#224=VECTOR('',#685,10.);
#225=VECTOR('',#694,10.);
#226=VECTOR('',#695,10.);
#227=VECTOR('',#698,10.);
#228=VECTOR('',#699,10.);
#229=VECTOR('',#706,10.);
#230=VECTOR('',#711,1.4);
#231=VECTOR('',#720,1.4);
#232=VECTOR('',#729,2.);
#233=VECTOR('',#736,2.);
#234=VECTOR('',#741,10.);
#235=ELLIPSE('',#534,1.50366284712176,1.5);
#236=ELLIPSE('',#536,1.50366284712176,1.5);
#237=ELLIPSE('',#539,1.50366284712176,1.5);
#238=ELLIPSE('',#544,2.00488379616234,2.);
#239=ELLIPSE('',#559,5.00781750311025,5.);
#240=ELLIPSE('',#560,4.00976759232469,4.);
#241=ELLIPSE('',#564,5.00781750311028,5.00000000000002);
#242=ELLIPSE('',#565,4.00976759232472,4.00000000000003);
#243=VERTEX_POINT('',#757);
#244=VERTEX_POINT('',#759);
#245=VERTEX_POINT('',#761);
#246=VERTEX_POINT('',#763);
#247=VERTEX_POINT('',#765);
#248=VERTEX_POINT('',#767);
#249=VERTEX_POINT('',#771);
#250=VERTEX_POINT('',#773);
#251=VERTEX_POINT('',#775);
#252=VERTEX_POINT('',#777);
#253=VERTEX_POINT('',#779);
#254=VERTEX_POINT('',#781);
#255=VERTEX_POINT('',#785);
#256=VERTEX_POINT('',#787);
#257=VERTEX_POINT('',#789);
#258=VERTEX_POINT('',#792);
#259=VERTEX_POINT('',#798);
#260=VERTEX_POINT('',#800);
#261=VERTEX_POINT('',#804);
#262=VERTEX_POINT('',#807);
#263=VERTEX_POINT('',#809);
#264=VERTEX_POINT('',#811);
#265=VERTEX_POINT('',#813);
#266=VERTEX_POINT('',#815);
#267=VERTEX_POINT('',#817);
#268=VERTEX_POINT('',#823);
#269=VERTEX_POINT('',#826);
#270=VERTEX_POINT('',#828);
#271=VERTEX_POINT('',#830);
#272=VERTEX_POINT('',#832);
#273=VERTEX_POINT('',#836);
#274=VERTEX_POINT('',#838);
#275=VERTEX_POINT('',#871);
#276=VERTEX_POINT('',#872);
#277=VERTEX_POINT('',#877);
#278=VERTEX_POINT('',#878);
#279=VERTEX_POINT('',#912);
#280=VERTEX_POINT('',#913);
#281=VERTEX_POINT('',#928);
#282=VERTEX_POINT('',#930);
#283=VERTEX_POINT('',#935);
#284=VERTEX_POINT('',#937);
#285=VERTEX_POINT('',#942);
#286=VERTEX_POINT('',#947);
#287=EDGE_CURVE('',#243,#243,#235,.T.);
#288=EDGE_CURVE('',#243,#244,#155,.T.);
#289=EDGE_CURVE('',#245,#244,#135,.T.);
#290=EDGE_CURVE('',#246,#245,#156,.T.);
#291=EDGE_CURVE('',#247,#246,#236,.T.);
#292=EDGE_CURVE('',#248,#247,#157,.T.);
#293=EDGE_CURVE('',#244,#248,#136,.T.);
#294=EDGE_CURVE('',#249,#249,#237,.T.);
#295=EDGE_CURVE('',#249,#250,#158,.T.);
#296=EDGE_CURVE('',#251,#250,#137,.T.);
#297=EDGE_CURVE('',#252,#251,#159,.T.);
#298=EDGE_CURVE('',#253,#252,#138,.T.);
#299=EDGE_CURVE('',#254,#253,#160,.T.);
#300=EDGE_CURVE('',#250,#254,#139,.T.);
#301=EDGE_CURVE('',#255,#246,#161,.T.);
#302=EDGE_CURVE('',#255,#256,#162,.T.);
#303=EDGE_CURVE('',#257,#256,#163,.T.);
#304=EDGE_CURVE('',#247,#257,#164,.T.);
#305=EDGE_CURVE('',#258,#258,#238,.T.);
#306=EDGE_CURVE('',#252,#257,#165,.T.);
#307=EDGE_CURVE('',#251,#248,#166,.T.);
#308=EDGE_CURVE('',#259,#253,#167,.T.);
#309=EDGE_CURVE('',#259,#260,#168,.T.);
#310=EDGE_CURVE('',#260,#254,#169,.T.);
#311=EDGE_CURVE('',#260,#261,#170,.T.);
#312=EDGE_CURVE('',#256,#259,#171,.T.);
#313=EDGE_CURVE('',#262,#255,#172,.T.);
#314=EDGE_CURVE('',#263,#262,#173,.T.);
#315=EDGE_CURVE('',#264,#263,#174,.T.);
#316=EDGE_CURVE('',#265,#264,#140,.T.);
#317=EDGE_CURVE('',#266,#265,#175,.T.);
#318=EDGE_CURVE('',#267,#266,#141,.T.);
#319=EDGE_CURVE('',#261,#267,#176,.T.);
#320=EDGE_CURVE('',#245,#262,#177,.T.);
#321=EDGE_CURVE('',#268,#268,#142,.T.);
#322=EDGE_CURVE('',#269,#261,#178,.T.);
#323=EDGE_CURVE('',#270,#269,#143,.T.);
#324=EDGE_CURVE('',#271,#270,#179,.T.);
#325=EDGE_CURVE('',#272,#271,#144,.T.);
#326=EDGE_CURVE('',#263,#272,#180,.T.);
#327=EDGE_CURVE('',#266,#273,#181,.T.);
#328=EDGE_CURVE('',#273,#274,#145,.T.);
#329=EDGE_CURVE('',#274,#267,#182,.T.);
#330=EDGE_CURVE('',#275,#276,#146,.T.);
#331=EDGE_CURVE('',#276,#274,#239,.T.);
#332=EDGE_CURVE('',#273,#275,#240,.T.);
#333=EDGE_CURVE('',#277,#278,#147,.T.);
#334=EDGE_CURVE('',#278,#276,#183,.T.);
#335=EDGE_CURVE('',#275,#277,#184,.T.);
#336=EDGE_CURVE('',#279,#280,#148,.T.);
#337=EDGE_CURVE('',#280,#278,#241,.T.);
#338=EDGE_CURVE('',#277,#279,#242,.T.);
#339=EDGE_CURVE('',#264,#280,#185,.T.);
#340=EDGE_CURVE('',#279,#265,#186,.T.);
#341=EDGE_CURVE('',#280,#272,#187,.T.);
#342=EDGE_CURVE('',#278,#271,#188,.T.);
#343=EDGE_CURVE('',#276,#270,#189,.T.);
#344=EDGE_CURVE('',#281,#281,#149,.T.);
#345=EDGE_CURVE('',#281,#282,#190,.T.);
#346=EDGE_CURVE('',#282,#282,#150,.T.);
#347=EDGE_CURVE('',#283,#283,#151,.T.);
#348=EDGE_CURVE('',#283,#284,#191,.T.);
#349=EDGE_CURVE('',#284,#284,#152,.T.);
#350=EDGE_CURVE('',#285,#285,#153,.T.);
#351=EDGE_CURVE('',#285,#258,#192,.T.);
#352=EDGE_CURVE('',#286,#286,#154,.T.);
#353=EDGE_CURVE('',#286,#268,#193,.T.);
#354=EDGE_CURVE('',#274,#269,#194,.T.);
#355=ORIENTED_EDGE('',*,*,#287,.F.);
#356=ORIENTED_EDGE('',*,*,#288,.T.);
#357=ORIENTED_EDGE('',*,*,#289,.F.);
#358=ORIENTED_EDGE('',*,*,#290,.F.);
#359=ORIENTED_EDGE('',*,*,#291,.F.);
#360=ORIENTED_EDGE('',*,*,#292,.F.);
#361=ORIENTED_EDGE('',*,*,#293,.F.);
#362=ORIENTED_EDGE('',*,*,#288,.F.);
#363=ORIENTED_EDGE('',*,*,#294,.F.);
#364=ORIENTED_EDGE('',*,*,#295,.T.);
#365=ORIENTED_EDGE('',*,*,#296,.F.);
#366=ORIENTED_EDGE('',*,*,#297,.F.);
#367=ORIENTED_EDGE('',*,*,#298,.F.);
#368=ORIENTED_EDGE('',*,*,#299,.F.);
#369=ORIENTED_EDGE('',*,*,#300,.F.);
#370=ORIENTED_EDGE('',*,*,#295,.F.);
#371=ORIENTED_EDGE('',*,*,#291,.T.);
#372=ORIENTED_EDGE('',*,*,#301,.F.);
#373=ORIENTED_EDGE('',*,*,#302,.T.);
#374=ORIENTED_EDGE('',*,*,#303,.F.);
#375=ORIENTED_EDGE('',*,*,#304,.F.);
#376=ORIENTED_EDGE('',*,*,#305,.F.);
#377=ORIENTED_EDGE('',*,*,#292,.T.);
#378=ORIENTED_EDGE('',*,*,#304,.T.);
#379=ORIENTED_EDGE('',*,*,#306,.F.);
#380=ORIENTED_EDGE('',*,*,#297,.T.);
#381=ORIENTED_EDGE('',*,*,#307,.T.);
#382=ORIENTED_EDGE('',*,*,#299,.T.);
#383=ORIENTED_EDGE('',*,*,#308,.F.);
#384=ORIENTED_EDGE('',*,*,#309,.T.);
#385=ORIENTED_EDGE('',*,*,#310,.T.);
#386=ORIENTED_EDGE('',*,*,#311,.F.);
#387=ORIENTED_EDGE('',*,*,#309,.F.);
#388=ORIENTED_EDGE('',*,*,#312,.F.);
#389=ORIENTED_EDGE('',*,*,#302,.F.);
#390=ORIENTED_EDGE('',*,*,#313,.F.);
#391=ORIENTED_EDGE('',*,*,#314,.F.);
#392=ORIENTED_EDGE('',*,*,#315,.F.);
#393=ORIENTED_EDGE('',*,*,#316,.F.);
#394=ORIENTED_EDGE('',*,*,#317,.F.);
#395=ORIENTED_EDGE('',*,*,#318,.F.);
#396=ORIENTED_EDGE('',*,*,#319,.F.);
#397=ORIENTED_EDGE('',*,*,#290,.T.);
#398=ORIENTED_EDGE('',*,*,#320,.T.);
#399=ORIENTED_EDGE('',*,*,#313,.T.);
#400=ORIENTED_EDGE('',*,*,#301,.T.);
#401=ORIENTED_EDGE('',*,*,#298,.T.);
#402=ORIENTED_EDGE('',*,*,#306,.T.);
#403=ORIENTED_EDGE('',*,*,#303,.T.);
#404=ORIENTED_EDGE('',*,*,#312,.T.);
#405=ORIENTED_EDGE('',*,*,#308,.T.);
#406=ORIENTED_EDGE('',*,*,#321,.T.);
#407=ORIENTED_EDGE('',*,*,#289,.T.);
#408=ORIENTED_EDGE('',*,*,#293,.T.);
#409=ORIENTED_EDGE('',*,*,#307,.F.);
#410=ORIENTED_EDGE('',*,*,#296,.T.);
#411=ORIENTED_EDGE('',*,*,#300,.T.);
#412=ORIENTED_EDGE('',*,*,#310,.F.);
#413=ORIENTED_EDGE('',*,*,#311,.T.);
#414=ORIENTED_EDGE('',*,*,#322,.F.);
#415=ORIENTED_EDGE('',*,*,#323,.F.);
#416=ORIENTED_EDGE('',*,*,#324,.F.);
#417=ORIENTED_EDGE('',*,*,#325,.F.);
#418=ORIENTED_EDGE('',*,*,#326,.F.);
#419=ORIENTED_EDGE('',*,*,#314,.T.);
#420=ORIENTED_EDGE('',*,*,#320,.F.);
#421=ORIENTED_EDGE('',*,*,#318,.T.);
#422=ORIENTED_EDGE('',*,*,#327,.T.);
#423=ORIENTED_EDGE('',*,*,#328,.T.);
#424=ORIENTED_EDGE('',*,*,#329,.T.);
#425=ORIENTED_EDGE('',*,*,#330,.T.);
#426=ORIENTED_EDGE('',*,*,#331,.T.);
#427=ORIENTED_EDGE('',*,*,#328,.F.);
#428=ORIENTED_EDGE('',*,*,#332,.T.);
#429=ORIENTED_EDGE('',*,*,#333,.T.);
#430=ORIENTED_EDGE('',*,*,#334,.T.);
#431=ORIENTED_EDGE('',*,*,#330,.F.);
#432=ORIENTED_EDGE('',*,*,#335,.T.);
#433=ORIENTED_EDGE('',*,*,#336,.T.);
#434=ORIENTED_EDGE('',*,*,#337,.T.);
#435=ORIENTED_EDGE('',*,*,#333,.F.);
#436=ORIENTED_EDGE('',*,*,#338,.T.);
#437=ORIENTED_EDGE('',*,*,#316,.T.);
#438=ORIENTED_EDGE('',*,*,#339,.T.);
#439=ORIENTED_EDGE('',*,*,#336,.F.);
#440=ORIENTED_EDGE('',*,*,#340,.T.);
#441=ORIENTED_EDGE('',*,*,#337,.F.);
#442=ORIENTED_EDGE('',*,*,#341,.T.);
#443=ORIENTED_EDGE('',*,*,#325,.T.);
#444=ORIENTED_EDGE('',*,*,#342,.F.);
#445=ORIENTED_EDGE('',*,*,#315,.T.);
#446=ORIENTED_EDGE('',*,*,#326,.T.);
#447=ORIENTED_EDGE('',*,*,#341,.F.);
#448=ORIENTED_EDGE('',*,*,#339,.F.);
#449=ORIENTED_EDGE('',*,*,#317,.T.);
#450=ORIENTED_EDGE('',*,*,#340,.F.);
#451=ORIENTED_EDGE('',*,*,#338,.F.);
#452=ORIENTED_EDGE('',*,*,#335,.F.);
#453=ORIENTED_EDGE('',*,*,#332,.F.);
#454=ORIENTED_EDGE('',*,*,#327,.F.);
#455=ORIENTED_EDGE('',*,*,#287,.T.);
#456=ORIENTED_EDGE('',*,*,#294,.T.);
#457=ORIENTED_EDGE('',*,*,#334,.F.);
#458=ORIENTED_EDGE('',*,*,#342,.T.);
#459=ORIENTED_EDGE('',*,*,#324,.T.);
#460=ORIENTED_EDGE('',*,*,#343,.F.);
#461=ORIENTED_EDGE('',*,*,#344,.F.);
#462=ORIENTED_EDGE('',*,*,#345,.T.);
#463=ORIENTED_EDGE('',*,*,#346,.F.);
#464=ORIENTED_EDGE('',*,*,#345,.F.);
#465=ORIENTED_EDGE('',*,*,#344,.T.);
#466=ORIENTED_EDGE('',*,*,#347,.F.);
#467=ORIENTED_EDGE('',*,*,#348,.T.);
#468=ORIENTED_EDGE('',*,*,#349,.F.);
#469=ORIENTED_EDGE('',*,*,#348,.F.);
#470=ORIENTED_EDGE('',*,*,#347,.T.);
#471=ORIENTED_EDGE('',*,*,#350,.F.);
#472=ORIENTED_EDGE('',*,*,#351,.T.);
#473=ORIENTED_EDGE('',*,*,#305,.T.);
#474=ORIENTED_EDGE('',*,*,#351,.F.);
#475=ORIENTED_EDGE('',*,*,#350,.T.);
#476=ORIENTED_EDGE('',*,*,#346,.T.);
#477=ORIENTED_EDGE('',*,*,#352,.F.);
#478=ORIENTED_EDGE('',*,*,#353,.T.);
#479=ORIENTED_EDGE('',*,*,#321,.F.);
#480=ORIENTED_EDGE('',*,*,#353,.F.);
#481=ORIENTED_EDGE('',*,*,#352,.T.);
#482=ORIENTED_EDGE('',*,*,#349,.T.);
#483=ORIENTED_EDGE('',*,*,#331,.F.);
#484=ORIENTED_EDGE('',*,*,#343,.T.);
#485=ORIENTED_EDGE('',*,*,#323,.T.);
#486=ORIENTED_EDGE('',*,*,#354,.F.);
#487=ORIENTED_EDGE('',*,*,#319,.T.);
#488=ORIENTED_EDGE('',*,*,#329,.F.);
#489=ORIENTED_EDGE('',*,*,#354,.T.);
#490=ORIENTED_EDGE('',*,*,#322,.T.);
#491=CYLINDRICAL_SURFACE('',#533,1.5);
#492=CYLINDRICAL_SURFACE('',#538,1.5);
#493=CYLINDRICAL_SURFACE('',#556,1.);
#494=CYLINDRICAL_SURFACE('',#561,1.);
#495=CYLINDRICAL_SURFACE('',#566,1.);
#496=CYLINDRICAL_SURFACE('',#567,5.00000000000003);
#497=CYLINDRICAL_SURFACE('',#571,1.4);
#498=CYLINDRICAL_SURFACE('',#575,1.4);
#499=CYLINDRICAL_SURFACE('',#579,2.);
#500=CYLINDRICAL_SURFACE('',#582,2.);
#501=CYLINDRICAL_SURFACE('',#585,5.);
#502=ADVANCED_FACE('',(#73),#491,.F.);
#503=ADVANCED_FACE('',(#74),#492,.F.);
#504=ADVANCED_FACE('',(#75,#52),#58,.T.);
#505=ADVANCED_FACE('',(#76),#59,.T.);
#506=ADVANCED_FACE('',(#77),#60,.T.);
#507=ADVANCED_FACE('',(#78),#61,.F.);
#508=ADVANCED_FACE('',(#79),#62,.T.);
#509=ADVANCED_FACE('',(#80,#53),#63,.F.);
#510=ADVANCED_FACE('',(#81),#64,.T.);
#511=ADVANCED_FACE('',(#82),#493,.T.);
#512=ADVANCED_FACE('',(#83),#50,.F.);
#513=ADVANCED_FACE('',(#84),#494,.T.);
#514=ADVANCED_FACE('',(#85),#51,.F.);
#515=ADVANCED_FACE('',(#86),#495,.T.);
#516=ADVANCED_FACE('',(#87),#496,.T.);
#517=ADVANCED_FACE('',(#88),#65,.T.);
#518=ADVANCED_FACE('',(#89,#54,#55),#66,.F.);
#519=ADVANCED_FACE('',(#90),#67,.T.);
#520=ADVANCED_FACE('',(#91),#497,.T.);
#521=ADVANCED_FACE('',(#92),#68,.F.);
#522=ADVANCED_FACE('',(#93),#498,.T.);
#523=ADVANCED_FACE('',(#94),#69,.F.);
#524=ADVANCED_FACE('',(#95),#499,.T.);
#525=ADVANCED_FACE('',(#96,#56),#70,.F.);
#526=ADVANCED_FACE('',(#97),#500,.T.);
#527=ADVANCED_FACE('',(#98,#57),#71,.F.);
#528=ADVANCED_FACE('',(#99),#501,.T.);
#529=ADVANCED_FACE('',(#100),#72,.T.);
#530=CLOSED_SHELL('',(#502,#503,#504,#505,#506,#507,#508,#509,#510,#511,
#512,#513,#514,#515,#516,#517,#518,#519,#520,#521,#522,#523,#524,#525,#526,
#527,#528,#529));
#531=AXIS2_PLACEMENT_3D('',#754,#592,#593);
#532=AXIS2_PLACEMENT_3D('',#755,#594,#595);
#533=AXIS2_PLACEMENT_3D('',#756,#596,#597);
#534=AXIS2_PLACEMENT_3D('',#758,#598,#599);
#535=AXIS2_PLACEMENT_3D('',#762,#601,#602);
#536=AXIS2_PLACEMENT_3D('',#766,#604,#605);
#537=AXIS2_PLACEMENT_3D('',#769,#607,#608);
#538=AXIS2_PLACEMENT_3D('',#770,#609,#610);
#539=AXIS2_PLACEMENT_3D('',#772,#611,#612);
#540=AXIS2_PLACEMENT_3D('',#776,#614,#615);
#541=AXIS2_PLACEMENT_3D('',#780,#617,#618);
#542=AXIS2_PLACEMENT_3D('',#783,#620,#621);
#543=AXIS2_PLACEMENT_3D('',#784,#622,#623);
#544=AXIS2_PLACEMENT_3D('',#793,#628,#629);
#545=AXIS2_PLACEMENT_3D('',#794,#630,#631);
#546=AXIS2_PLACEMENT_3D('',#797,#634,#635);
#547=AXIS2_PLACEMENT_3D('',#803,#639,#640);
#548=AXIS2_PLACEMENT_3D('',#814,#646,#647);
#549=AXIS2_PLACEMENT_3D('',#818,#649,#650);
#550=AXIS2_PLACEMENT_3D('',#820,#652,#653);
#551=AXIS2_PLACEMENT_3D('',#822,#655,#656);
#552=AXIS2_PLACEMENT_3D('',#824,#657,#658);
#553=AXIS2_PLACEMENT_3D('',#825,#659,#660);
#554=AXIS2_PLACEMENT_3D('',#829,#662,#663);
#555=AXIS2_PLACEMENT_3D('',#833,#665,#666);
#556=AXIS2_PLACEMENT_3D('',#835,#668,#669);
#557=AXIS2_PLACEMENT_3D('',#839,#671,#672);
#558=AXIS2_PLACEMENT_3D('',#873,#674,#675);
#559=AXIS2_PLACEMENT_3D('',#874,#676,#677);
#560=AXIS2_PLACEMENT_3D('',#875,#678,#679);
#561=AXIS2_PLACEMENT_3D('',#876,#680,#681);
#562=AXIS2_PLACEMENT_3D('',#879,#682,#683);
#563=AXIS2_PLACEMENT_3D('',#914,#686,#687);
#564=AXIS2_PLACEMENT_3D('',#915,#688,#689);
#565=AXIS2_PLACEMENT_3D('',#916,#690,#691);
#566=AXIS2_PLACEMENT_3D('',#917,#692,#693);
#567=AXIS2_PLACEMENT_3D('',#920,#696,#697);
#568=AXIS2_PLACEMENT_3D('',#923,#700,#701);
#569=AXIS2_PLACEMENT_3D('',#924,#702,#703);
#570=AXIS2_PLACEMENT_3D('',#925,#704,#705);
#571=AXIS2_PLACEMENT_3D('',#927,#707,#708);
#572=AXIS2_PLACEMENT_3D('',#929,#709,#710);
#573=AXIS2_PLACEMENT_3D('',#932,#712,#713);
#574=AXIS2_PLACEMENT_3D('',#933,#714,#715);
#575=AXIS2_PLACEMENT_3D('',#934,#716,#717);
#576=AXIS2_PLACEMENT_3D('',#936,#718,#719);
#577=AXIS2_PLACEMENT_3D('',#939,#721,#722);
#578=AXIS2_PLACEMENT_3D('',#940,#723,#724);
#579=AXIS2_PLACEMENT_3D('',#941,#725,#726);
#580=AXIS2_PLACEMENT_3D('',#943,#727,#728);
#581=AXIS2_PLACEMENT_3D('',#945,#730,#731);
#582=AXIS2_PLACEMENT_3D('',#946,#732,#733);
#583=AXIS2_PLACEMENT_3D('',#948,#734,#735);
#584=AXIS2_PLACEMENT_3D('',#950,#737,#738);
#585=AXIS2_PLACEMENT_3D('',#951,#739,#740);
#586=AXIS2_PLACEMENT_3D('',#953,#742,#743);
#587=AXIS2_PLACEMENT_3D('',#954,#744,#745);
#588=AXIS2_PLACEMENT_3D('',#955,#746,#747);
#589=AXIS2_PLACEMENT_3D('',#956,#748,#749);
#590=AXIS2_PLACEMENT_3D('',#957,#750,#751);
#591=AXIS2_PLACEMENT_3D('',#958,#752,#753);
#592=DIRECTION('axis',(0.,0.,1.));
#593=DIRECTION('refdir',(1.,0.,0.));
#594=DIRECTION('axis',(0.,0.,1.));
#595=DIRECTION('refdir',(1.,0.,0.));
#596=DIRECTION('center_axis',(0.,0.,1.));
#597=DIRECTION('ref_axis',(1.,0.,0.));
#598=DIRECTION('center_axis',(-1.39961283013352E-18,0.0697564737441253,
0.997564050259824));
#599=DIRECTION('ref_axis',(0.,0.997564050259824,-0.0697564737441253));
#600=DIRECTION('',(0.,0.,1.));
#601=DIRECTION('center_axis',(0.,0.,-1.));
#602=DIRECTION('ref_axis',(1.,0.,0.));
#603=DIRECTION('',(0.,0.,1.));
#604=DIRECTION('center_axis',(0.,-0.0697564737441253,-0.997564050259824));
#605=DIRECTION('ref_axis',(0.,0.997564050259824,-0.0697564737441253));
#606=DIRECTION('',(0.,0.,-1.));
#607=DIRECTION('center_axis',(0.,0.,-1.));
#608=DIRECTION('ref_axis',(1.,0.,0.));
#609=DIRECTION('center_axis',(0.,0.,1.));
#610=DIRECTION('ref_axis',(1.,0.,0.));
#611=DIRECTION('center_axis',(-1.39961283013352E-18,0.0697564737441253,
0.997564050259824));
#612=DIRECTION('ref_axis',(0.,0.997564050259824,-0.0697564737441253));
#613=DIRECTION('',(0.,0.,1.));
#614=DIRECTION('center_axis',(0.,0.,-1.));
#615=DIRECTION('ref_axis',(1.,0.,0.));
#616=DIRECTION('',(0.,0.,1.));
#617=DIRECTION('center_axis',(0.,0.,-1.));
#618=DIRECTION('ref_axis',(1.,0.,0.));
#619=DIRECTION('',(0.,0.,-1.));
#620=DIRECTION('center_axis',(0.,0.,-1.));
#621=DIRECTION('ref_axis',(1.,0.,0.));
#622=DIRECTION('center_axis',(0.,0.0697564737441253,0.997564050259824));
#623=DIRECTION('ref_axis',(8.3902922510363E-19,-0.997564050259824,0.0697564737441253));
#624=DIRECTION('',(-1.,3.5527136788005E-15,-2.48429941306619E-16));
#625=DIRECTION('',(2.0136701402487E-17,0.997564050259824,-0.0697564737441253));
#626=DIRECTION('',(1.,0.,0.));
#627=DIRECTION('',(0.,0.997564050259824,-0.0697564737441253));
#628=DIRECTION('center_axis',(0.,0.0697564737441253,0.997564050259824));
#629=DIRECTION('ref_axis',(0.,0.997564050259824,-0.0697564737441253));
#630=DIRECTION('center_axis',(1.,0.,0.));
#631=DIRECTION('ref_axis',(0.,1.,0.));
#632=DIRECTION('',(0.,-1.,0.));
#633=DIRECTION('',(0.,-1.,0.));
#634=DIRECTION('center_axis',(1.42108547152018E-14,-1.,0.));
#635=DIRECTION('ref_axis',(1.,1.42108547152018E-14,0.));
#636=DIRECTION('',(-1.,-1.42108547152018E-14,0.));
#637=DIRECTION('',(0.,0.,1.));
#638=DIRECTION('',(-1.,-1.42108547152018E-14,0.));
#639=DIRECTION('center_axis',(-1.,2.01858731750028E-17,0.));
#640=DIRECTION('ref_axis',(0.,0.,1.));
#641=DIRECTION('',(2.01858731750028E-17,1.,0.));
#642=DIRECTION('',(2.01858731750028E-17,1.,0.));
#643=DIRECTION('',(0.,0.,-1.));
#644=DIRECTION('',(2.01858731750028E-17,1.,0.));
#645=DIRECTION('',(0.,0.,1.));
#646=DIRECTION('center_axis',(-1.,2.01858731750028E-17,0.));
#647=DIRECTION('ref_axis',(0.,-0.731353701619169,-0.6819983600625));
#648=DIRECTION('',(-2.0136701402487E-17,-0.997564050259824,0.0697564737441253));
#649=DIRECTION('center_axis',(-1.,2.01858731750028E-17,0.));
#650=DIRECTION('ref_axis',(0.,0.6819983600625,-0.731353701619169));
#651=DIRECTION('',(0.,0.,-1.));
#652=DIRECTION('center_axis',(3.5527136788005E-15,1.,0.));
#653=DIRECTION('ref_axis',(-1.,3.5527136788005E-15,0.));
#654=DIRECTION('',(1.,-3.5527136788005E-15,0.));
#655=DIRECTION('center_axis',(0.,0.,-1.));
#656=DIRECTION('ref_axis',(1.,0.,0.));
#657=DIRECTION('center_axis',(0.,0.,-1.));
#658=DIRECTION('ref_axis',(1.,0.,0.));
#659=DIRECTION('center_axis',(0.,0.,1.));
#660=DIRECTION('ref_axis',(-1.,0.,0.));
#661=DIRECTION('',(1.,0.,0.));
#662=DIRECTION('center_axis',(0.,0.,-1.));
#663=DIRECTION('ref_axis',(0.,1.,0.));
#664=DIRECTION('',(2.01858731750028E-17,1.,0.));
#665=DIRECTION('center_axis',(0.,0.,-1.));
#666=DIRECTION('ref_axis',(-1.,0.,0.));
#667=DIRECTION('',(-1.,0.,0.));
#668=DIRECTION('center_axis',(1.,0.,1.40303054201781E-18));
#669=DIRECTION('ref_axis',(0.,0.6819983600625,-0.731353701619169));
#670=DIRECTION('',(-1.,0.,-1.40303054201781E-18));
#671=DIRECTION('center_axis',(1.,4.44089209850062E-15,-3.10537426633272E-16));
#672=DIRECTION('ref_axis',(0.,-0.0697564737441249,-0.997564050259824));
#673=DIRECTION('',(1.,0.,1.40303054201781E-18));
#674=DIRECTION('center_axis',(0.,0.997564050259824,-0.0697564737441247));
#675=DIRECTION('ref_axis',(0.,-0.0697564737441247,-0.997564050259824));
#676=DIRECTION('center_axis',(0.,-0.0558541216009412,-0.998438940096082));
#677=DIRECTION('ref_axis',(0.,0.998438940096082,-0.0558541216009412));
#678=DIRECTION('center_axis',(-1.39961283013352E-18,0.0697564737441253,
0.997564050259824));
#679=DIRECTION('ref_axis',(0.,0.997564050259824,-0.0697564737441253));
#680=DIRECTION('center_axis',(-2.0136701402487E-17,-0.997564050259824,0.0697564737441253));
#681=DIRECTION('ref_axis',(-0.707106781186547,-0.0493252756161319,-0.70538430460664));
#682=DIRECTION('center_axis',(1.77977424774559E-14,0.997564050259824,-0.0697564737441247));
#683=DIRECTION('ref_axis',(0.,-0.0697564737441247,-0.997564050259824));
#684=DIRECTION('',(2.0136701402487E-17,0.997564050259824,-0.0697564737441253));
#685=DIRECTION('',(-2.0136701402487E-17,-0.997564050259824,0.0697564737441253));
#686=DIRECTION('center_axis',(-1.,0.,0.));
#687=DIRECTION('ref_axis',(0.,-0.0697564737441248,-0.997564050259824));
#688=DIRECTION('center_axis',(0.,-0.0558541216009413,-0.998438940096082));
#689=DIRECTION('ref_axis',(0.,-0.998438940096082,0.0558541216009413));
#690=DIRECTION('center_axis',(-1.39961283013352E-18,0.0697564737441253,
0.997564050259824));
#691=DIRECTION('ref_axis',(0.,-0.997564050259824,0.0697564737441253));
#692=DIRECTION('center_axis',(1.,0.,1.40303054201781E-18));
#693=DIRECTION('ref_axis',(0.,-0.731353701619169,-0.6819983600625));
#694=DIRECTION('',(-1.,0.,-1.40303054201781E-18));
#695=DIRECTION('',(1.,0.,1.40303054201781E-18));
#696=DIRECTION('center_axis',(0.,0.,1.));
#697=DIRECTION('ref_axis',(-1.,0.,0.));
#698=DIRECTION('',(0.,0.,1.));
#699=DIRECTION('',(0.,0.,1.));
#700=DIRECTION('center_axis',(0.,-1.,0.));
#701=DIRECTION('ref_axis',(1.,0.,0.));
#702=DIRECTION('center_axis',(-1.39961283013352E-18,0.0697564737441253,
0.997564050259824));
#703=DIRECTION('ref_axis',(8.3902922510363E-19,-0.997564050259824,0.0697564737441253));
#704=DIRECTION('center_axis',(-1.,2.01858731750028E-17,0.));
#705=DIRECTION('ref_axis',(-2.01858731750028E-17,-1.,0.));
#706=DIRECTION('',(0.,0.,1.));
#707=DIRECTION('center_axis',(0.,0.,1.));
#708=DIRECTION('ref_axis',(1.,0.,0.));
#709=DIRECTION('center_axis',(0.,0.,1.));
#710=DIRECTION('ref_axis',(1.,0.,0.));
#711=DIRECTION('',(0.,0.,-1.));
#712=DIRECTION('center_axis',(0.,0.,-1.));
#713=DIRECTION('ref_axis',(1.,0.,0.));
#714=DIRECTION('center_axis',(0.,0.,-1.));
#715=DIRECTION('ref_axis',(1.,0.,0.));
#716=DIRECTION('center_axis',(0.,0.,1.));
#717=DIRECTION('ref_axis',(1.,0.,0.));
#718=DIRECTION('center_axis',(0.,0.,1.));
#719=DIRECTION('ref_axis',(1.,0.,0.));
#720=DIRECTION('',(0.,0.,-1.));
#721=DIRECTION('center_axis',(0.,0.,-1.));
#722=DIRECTION('ref_axis',(1.,0.,0.));
#723=DIRECTION('center_axis',(0.,0.,-1.));
#724=DIRECTION('ref_axis',(1.,0.,0.));
#725=DIRECTION('center_axis',(0.,0.,1.));
#726=DIRECTION('ref_axis',(1.,0.,0.));
#727=DIRECTION('center_axis',(0.,0.,1.));
#728=DIRECTION('ref_axis',(1.,0.,0.));
#729=DIRECTION('',(0.,0.,-1.));
#730=DIRECTION('center_axis',(0.,0.,-1.));
#731=DIRECTION('ref_axis',(1.,0.,0.));
#732=DIRECTION('center_axis',(0.,0.,1.));
#733=DIRECTION('ref_axis',(1.,0.,0.));
#734=DIRECTION('center_axis',(0.,0.,1.));
#735=DIRECTION('ref_axis',(1.,0.,0.));
#736=DIRECTION('',(0.,0.,-1.));
#737=DIRECTION('center_axis',(0.,0.,-1.));
#738=DIRECTION('ref_axis',(1.,0.,0.));
#739=DIRECTION('center_axis',(0.,0.,1.));
#740=DIRECTION('ref_axis',(0.,1.,0.));
#741=DIRECTION('',(0.,0.,1.));
#742=DIRECTION('center_axis',(0.,1.,0.));
#743=DIRECTION('ref_axis',(-1.,0.,0.));
#744=DIRECTION('axis',(0.,0.,1.));
#745=DIRECTION('refdir',(1.,0.,0.));
#746=DIRECTION('axis',(0.,0.,1.));
#747=DIRECTION('refdir',(1.,0.,0.));
#748=DIRECTION('',(0.,0.,1.));
#749=DIRECTION('',(1.,0.,0.));
#750=DIRECTION('',(0.,0.,1.));
#751=DIRECTION('',(1.,0.,0.));
#752=DIRECTION('',(0.,0.,1.));
#753=DIRECTION('',(1.,0.,0.));
#754=CARTESIAN_POINT('',(0.,0.,0.));
#755=CARTESIAN_POINT('',(0.,0.,0.));
#756=CARTESIAN_POINT('Origin',(18.0857864376269,-129.949091799245,-15.412480314961));
#757=CARTESIAN_POINT('',(16.5857864376269,-129.949091799245,-7.38204966273336));
#758=CARTESIAN_POINT('Origin',(18.0857864376269,-129.949091799245,-7.38204966273336));
#759=CARTESIAN_POINT('',(16.5857864376269,-129.949091799245,5.24));
#760=CARTESIAN_POINT('',(16.5857864376269,-129.949091799245,-15.412480314961));
#761=CARTESIAN_POINT('',(19.2473477819413,-129.,5.24));
#762=CARTESIAN_POINT('Origin',(18.0857864376269,-129.949091799245,5.24));
#763=CARTESIAN_POINT('',(19.2473477819413,-129.,-3.44841662649631));
#764=CARTESIAN_POINT('',(19.2473477819413,-129.,-15.412480314961));
#765=CARTESIAN_POINT('',(19.,-128.759884684242,-3.46520712502604));
#766=CARTESIAN_POINT('Origin',(18.0857864376269,-129.949091799245,-3.38204966273336));
#767=CARTESIAN_POINT('',(19.,-128.759884684242,5.24));
#768=CARTESIAN_POINT('',(19.,-128.759884684242,-15.412480314961));
#769=CARTESIAN_POINT('Origin',(18.0857864376269,-129.949091799245,5.24));
#770=CARTESIAN_POINT('Origin',(18.0857864376269,-18.120664674499,-15.412480314961));
#771=CARTESIAN_POINT('',(16.5857864376269,-18.120664674499,-15.201855056224));
#772=CARTESIAN_POINT('Origin',(18.0857864376269,-18.120664674499,-15.201855056224));
#773=CARTESIAN_POINT('',(16.5857864376269,-18.120664674499,5.24));
#774=CARTESIAN_POINT('',(16.5857864376269,-18.120664674499,-15.412480314961));
#775=CARTESIAN_POINT('',(19.,-19.3098717895017,5.24));
#776=CARTESIAN_POINT('Origin',(18.0857864376269,-18.120664674499,5.24));
#777=CARTESIAN_POINT('',(19.,-19.3098717895017,-6.49));
#778=CARTESIAN_POINT('',(19.,-19.3098717895017,-15.412480314961));
#779=CARTESIAN_POINT('',(19.3010104438571,-19.0000000000045,-6.49));
#780=CARTESIAN_POINT('Origin',(18.0857864376269,-18.120664674499,-6.49));
#781=CARTESIAN_POINT('',(19.3010104438571,-19.0000000000045,5.24));
#782=CARTESIAN_POINT('',(19.3010104438571,-19.0000000000045,-15.412480314961));
#783=CARTESIAN_POINT('Origin',(18.0857864376269,-18.120664674499,5.24));
#784=CARTESIAN_POINT('Origin',(14.,-14.,-11.49));
#785=CARTESIAN_POINT('',(180.,-129.000000000001,-3.44841662649627));
#786=CARTESIAN_POINT('',(177.5,-129.000000000001,-3.44841662649627));
#787=CARTESIAN_POINT('',(180.,-85.5033312835597,-6.49));
#788=CARTESIAN_POINT('',(180.,-44.0764004875597,-9.38685319916871));
#789=CARTESIAN_POINT('',(19.,-85.5033312835597,-6.49));
#790=CARTESIAN_POINT('',(97.,-85.5033312835597,-6.49));
#791=CARTESIAN_POINT('',(19.,-71.6725195544404,-7.45714457080823));
#792=CARTESIAN_POINT('',(22.,-124.,-3.79805068621386));
#793=CARTESIAN_POINT('Origin',(24.,-124.,-3.79805068621386));
#794=CARTESIAN_POINT('Origin',(19.,-129.,1.51));
#795=CARTESIAN_POINT('',(19.,-19.,-6.49));
#796=CARTESIAN_POINT('',(19.,-101.5,5.24));
#797=CARTESIAN_POINT('Origin',(19.,-19.0000000000045,1.51));
#798=CARTESIAN_POINT('',(180.,-19.0000000000022,-6.49));
#799=CARTESIAN_POINT('',(341.,-18.9999999999999,-6.49));
#800=CARTESIAN_POINT('',(180.,-19.0000000000022,5.24));
#801=CARTESIAN_POINT('',(180.,-19.0000000000022,-1.79398477773742));
#802=CARTESIAN_POINT('',(99.4999999999996,-19.0000000000034,5.24));
#803=CARTESIAN_POINT('Origin',(180.,-73.9999593659504,-5.09796955547483));
#804=CARTESIAN_POINT('',(180.,-14.,5.24));
#805=CARTESIAN_POINT('',(180.,-73.9999796829752,5.24));
#806=CARTESIAN_POINT('',(180.,-73.9999796829752,-6.49));
#807=CARTESIAN_POINT('',(180.,-129.000000000001,5.24));
#808=CARTESIAN_POINT('',(180.,-129.000000000001,-1.79398477773742));
#809=CARTESIAN_POINT('',(180.,-134.,5.24));
#810=CARTESIAN_POINT('',(180.,-73.9999796829752,5.24));
#811=CARTESIAN_POINT('',(180.,-134.,-6.16626748064109));
#812=CARTESIAN_POINT('',(180.,-134.,-1.79398477773742));
#813=CARTESIAN_POINT('',(180.,-133.069756473744,-7.16383153090091));
#814=CARTESIAN_POINT('Origin',(180.,-133.,-6.16626748064109));
#815=CARTESIAN_POINT('',(180.,-15.0697564737441,-15.4151953402351));
#816=CARTESIAN_POINT('',(180.,-44.2155735885197,-13.3771212679103));
#817=CARTESIAN_POINT('',(180.,-14.,-14.4176312899753));
#818=CARTESIAN_POINT('Origin',(180.,-15.,-14.4176312899753));
#819=CARTESIAN_POINT('',(180.,-14.,-1.79398477773742));
#820=CARTESIAN_POINT('Origin',(341.,-129.000000000001,1.51));
#821=CARTESIAN_POINT('',(260.5,-129.000000000001,5.24));
#822=CARTESIAN_POINT('Origin',(180.,-74.,-6.49));
#823=CARTESIAN_POINT('',(23.,-25.,-6.49));
#824=CARTESIAN_POINT('Origin',(25.,-25.,-6.49));
#825=CARTESIAN_POINT('Origin',(180.,-74.,5.24));
#826=CARTESIAN_POINT('',(19.,-14.,5.24));
#827=CARTESIAN_POINT('',(260.5,-14.,5.24));
#828=CARTESIAN_POINT('',(14.,-19.,5.24));
#829=CARTESIAN_POINT('Origin',(19.,-19.,5.24));
#830=CARTESIAN_POINT('',(14.,-129.,5.24));
#831=CARTESIAN_POINT('',(14.,-46.5,5.24));
#832=CARTESIAN_POINT('',(19.,-134.,5.24));
#833=CARTESIAN_POINT('Origin',(19.,-129.,5.24));
#834=CARTESIAN_POINT('',(99.5,-134.,5.24));
#835=CARTESIAN_POINT('Origin',(177.5,-15.,-14.4176312899753));
#836=CARTESIAN_POINT('',(19.,-15.0697564737441,-15.4151953402351));
#837=CARTESIAN_POINT('',(177.5,-15.0697564737441,-15.4151953402351));
#838=CARTESIAN_POINT('',(19.,-14.,-14.4176312899753));
#839=CARTESIAN_POINT('Origin',(19.,-15.,-14.4176312899753));
#840=CARTESIAN_POINT('',(177.5,-14.,-14.4176312899753));
#841=CARTESIAN_POINT('Ctrl Pts',(19.,-15.0697564737441,-15.4151953402351));
#842=CARTESIAN_POINT('Ctrl Pts',(18.4016013993162,-15.0697564737441,-15.4151953402351));
#843=CARTESIAN_POINT('Ctrl Pts',(17.2068025679057,-15.34337759096,-15.3960618878278));
#844=CARTESIAN_POINT('Ctrl Pts',(15.5242060583724,-16.6814986454024,-15.3024913484962));
#845=CARTESIAN_POINT('Ctrl Pts',(15.,-18.1721585727185,-15.198254252087));
#846=CARTESIAN_POINT('Ctrl Pts',(15.,-19.0697564737441,-15.1354880924611));
#847=CARTESIAN_POINT('Ctrl Pts',(19.,-14.7580206538209,-15.436994032291));
#848=CARTESIAN_POINT('Ctrl Pts',(18.3544961480187,-14.7580206538209,-15.436994032291));
#849=CARTESIAN_POINT('Ctrl Pts',(17.0663162421344,-15.0536929536233,-15.41645326288));
#850=CARTESIAN_POINT('Ctrl Pts',(15.2557760398052,-16.5000243106631,-15.3151354212247));
#851=CARTESIAN_POINT('Ctrl Pts',(14.6977544928301,-18.1050641907808,-15.203069112426));
#852=CARTESIAN_POINT('Ctrl Pts',(14.7008006996581,-19.0697564737441,-15.1354880924611));
#853=CARTESIAN_POINT('Ctrl Pts',(19.,-14.2002782936728,-15.1998203330709));
#854=CARTESIAN_POINT('Ctrl Pts',(18.2738692345475,-14.2002782936728,-15.1998203330709));
#855=CARTESIAN_POINT('Ctrl Pts',(16.8239007411645,-14.5351750029064,-15.1780855278942));
#856=CARTESIAN_POINT('Ctrl Pts',(14.7933150811518,-16.1671328098308,-15.0723297406146));
#857=CARTESIAN_POINT('Ctrl Pts',(14.1749666608164,-17.9718984566175,-14.9551097657501));
#858=CARTESIAN_POINT('Ctrl Pts',(14.1828619125322,-19.0522349923645,-14.884919234928));
#859=CARTESIAN_POINT('Ctrl Pts',(19.,-14.,-14.6520040752431));
#860=CARTESIAN_POINT('Ctrl Pts',(18.2494046518504,-14.,-14.6520040752431));
#861=CARTESIAN_POINT('Ctrl Pts',(16.7511558494627,-14.3441232967086,-14.632084624835));
#862=CARTESIAN_POINT('Ctrl Pts',(14.6456642215521,-16.0262829323514,-14.534882658324));
#863=CARTESIAN_POINT('Ctrl Pts',(13.9964542263151,-17.8936281974196,-14.426754464001));
#864=CARTESIAN_POINT('Ctrl Pts',(14.,-19.0156533161039,-14.3617768916142));
#865=CARTESIAN_POINT('Ctrl Pts',(19.,-14.,-14.4176312899753));
#866=CARTESIAN_POINT('Ctrl Pts',(18.2520017491453,-14.,-14.4176312899753));
#867=CARTESIAN_POINT('Ctrl Pts',(16.7585032098821,-14.3420263965198,-14.398497837568));
#868=CARTESIAN_POINT('Ctrl Pts',(14.6552575729655,-16.0146777145728,-14.3049272982364));
#869=CARTESIAN_POINT('Ctrl Pts',(14.,-17.8780026237179,-14.2006902018272));
#870=CARTESIAN_POINT('Ctrl Pts',(14.,-19.,-14.1379240422013));
#871=CARTESIAN_POINT('',(15.,-19.0697564737441,-15.1354880924611));
#872=CARTESIAN_POINT('',(14.,-19.,-14.1379240422013));
#873=CARTESIAN_POINT('Origin',(15.,-19.,-14.1379240422013));
#874=CARTESIAN_POINT('Origin',(19.,-19.,-14.1379240422013));
#875=CARTESIAN_POINT('Origin',(19.,-19.0697564737441,-15.1354880924611));
#876=CARTESIAN_POINT('Origin',(15.,-17.0095642912631,-14.2771088656918));
#877=CARTESIAN_POINT('',(15.,-129.069756473744,-7.44353877867495));
#878=CARTESIAN_POINT('',(14.,-129.,-6.44597472841513));
#879=CARTESIAN_POINT('Origin',(15.,-129.,-6.44597472841513));
#880=CARTESIAN_POINT('',(14.,-17.0095642912631,-14.2771088656918));
#881=CARTESIAN_POINT('',(15.,-17.0793207650072,-15.2746729159516));
#882=CARTESIAN_POINT('Ctrl Pts',(15.,-129.069756473744,-7.44353877867495));
#883=CARTESIAN_POINT('Ctrl Pts',(15.,-129.96735437477,-7.38077261904904));
#884=CARTESIAN_POINT('Ctrl Pts',(15.524699372244,-131.457814242793,-7.27654951214847));
#885=CARTESIAN_POINT('Ctrl Pts',(17.2070204499734,-132.795989681477,-7.18297516990019));
#886=CARTESIAN_POINT('Ctrl Pts',(18.4016013993162,-133.069756473744,-7.16383153090091));
#887=CARTESIAN_POINT('Ctrl Pts',(19.,-133.069756473744,-7.16383153090091));
#888=CARTESIAN_POINT('Ctrl Pts',(14.7008006996581,-129.069756473744,-7.44353877867495));
#889=CARTESIAN_POINT('Ctrl Pts',(14.7038469064861,-130.034448756707,-7.37595775871008));
#890=CARTESIAN_POINT('Ctrl Pts',(15.2717953974461,-131.631835242183,-7.26438480527432));
#891=CARTESIAN_POINT('Ctrl Pts',(17.0785490706586,-133.062811100816,-7.16417538438496));
#892=CARTESIAN_POINT('Ctrl Pts',(18.3585713240553,-133.354961585589,-7.14388804667962));
#893=CARTESIAN_POINT('Ctrl Pts',(19.,-133.354961585589,-7.14388804667962));
#894=CARTESIAN_POINT('Ctrl Pts',(14.1829960818913,-129.05222719213,-7.19285837259127));
#895=CARTESIAN_POINT('Ctrl Pts',(14.1908913336071,-130.132563727877,-7.12266784176918));
#896=CARTESIAN_POINT('Ctrl Pts',(14.834729580403,-131.916618018902,-7.00654404412574));
#897=CARTESIAN_POINT('Ctrl Pts',(16.855697026323,-133.508502155889,-6.90285373475995));
#898=CARTESIAN_POINT('Ctrl Pts',(18.2844289679799,-133.833540364128,-6.8816308297124));
#899=CARTESIAN_POINT('Ctrl Pts',(19.,-133.833540364128,-6.8816308297124));
#900=CARTESIAN_POINT('Ctrl Pts',(14.,-129.015653316104,-6.6698275778281));
#901=CARTESIAN_POINT('Ctrl Pts',(14.0035457736849,-130.137678434788,-6.60485000544131));
#902=CARTESIAN_POINT('Ctrl Pts',(14.664431349671,-131.995858309496,-6.49705833878924));
#903=CARTESIAN_POINT('Ctrl Pts',(16.7654621265712,-133.66008535213,-6.40046959545141));
#904=CARTESIAN_POINT('Ctrl Pts',(18.2541439233588,-134.,-6.38069364588611));
#905=CARTESIAN_POINT('Ctrl Pts',(19.,-134.,-6.38069364588611));
#906=CARTESIAN_POINT('Ctrl Pts',(14.,-129.,-6.44597472841513));
#907=CARTESIAN_POINT('Ctrl Pts',(14.,-130.121997376282,-6.38320856878922));
#908=CARTESIAN_POINT('Ctrl Pts',(14.655874215305,-131.98507221131,-6.27898546188865));
#909=CARTESIAN_POINT('Ctrl Pts',(16.7587755624667,-133.657791509666,-6.18541111964036));
#910=CARTESIAN_POINT('Ctrl Pts',(18.2520017491453,-134.,-6.16626748064109));
#911=CARTESIAN_POINT('Ctrl Pts',(19.,-134.,-6.16626748064109));
#912=CARTESIAN_POINT('',(19.,-133.069756473744,-7.16383153090091));
#913=CARTESIAN_POINT('',(19.,-134.,-6.16626748064109));
#914=CARTESIAN_POINT('Origin',(19.,-133.,-6.16626748064109));
#915=CARTESIAN_POINT('Origin',(19.,-129.,-6.44597472841513));
#916=CARTESIAN_POINT('Origin',(19.,-129.069756473744,-7.44353877867496));
#917=CARTESIAN_POINT('Origin',(16.5,-133.,-6.16626748064109));
#918=CARTESIAN_POINT('',(16.5,-134.,-6.16626748064109));
#919=CARTESIAN_POINT('',(16.5,-133.069756473744,-7.16383153090091));
#920=CARTESIAN_POINT('Origin',(19.,-129.,1.51));
#921=CARTESIAN_POINT('',(19.,-134.,1.51));
#922=CARTESIAN_POINT('',(14.,-129.,1.51));
#923=CARTESIAN_POINT('Origin',(19.,-134.,1.51));
#924=CARTESIAN_POINT('Origin',(14.,-14.,-15.49));
#925=CARTESIAN_POINT('Origin',(14.,-19.,1.51));
#926=CARTESIAN_POINT('',(14.,-19.,1.51));
#927=CARTESIAN_POINT('Origin',(24.,-124.,-9.49));
#928=CARTESIAN_POINT('',(22.6,-124.,4.51));
#929=CARTESIAN_POINT('Origin',(24.,-124.,4.51));
#930=CARTESIAN_POINT('',(22.6,-124.,-0.0400000000000011));
#931=CARTESIAN_POINT('',(22.6,-124.,-9.49));
#932=CARTESIAN_POINT('Origin',(24.,-124.,-0.0400000000000011));
#933=CARTESIAN_POINT('Origin',(24.,-124.,4.51));
#934=CARTESIAN_POINT('Origin',(25.,-25.,-9.49));
#935=CARTESIAN_POINT('',(23.6,-25.,4.51));
#936=CARTESIAN_POINT('Origin',(25.,-25.,4.51));
#937=CARTESIAN_POINT('',(23.6,-25.,-0.0400000000000011));
#938=CARTESIAN_POINT('',(23.6,-25.,-9.49));
#939=CARTESIAN_POINT('Origin',(25.,-25.,-0.0400000000000011));
#940=CARTESIAN_POINT('Origin',(25.,-25.,4.51));
#941=CARTESIAN_POINT('Origin',(24.,-124.,-9.49));
#942=CARTESIAN_POINT('',(22.,-124.,-0.0400000000000011));
#943=CARTESIAN_POINT('Origin',(24.,-124.,-0.0400000000000011));
#944=CARTESIAN_POINT('',(22.,-124.,-9.49));
#945=CARTESIAN_POINT('Origin',(24.,-124.,-0.0400000000000011));
#946=CARTESIAN_POINT('Origin',(25.,-25.,-9.49));
#947=CARTESIAN_POINT('',(23.,-25.,-0.0400000000000011));
#948=CARTESIAN_POINT('Origin',(25.,-25.,-0.0400000000000011));
#949=CARTESIAN_POINT('',(23.,-25.,-9.49));
#950=CARTESIAN_POINT('Origin',(25.,-25.,-0.0400000000000011));
#951=CARTESIAN_POINT('Origin',(19.,-19.,1.51));
#952=CARTESIAN_POINT('',(19.,-14.,1.51));
#953=CARTESIAN_POINT('Origin',(341.,-14.,1.51));
#954=CARTESIAN_POINT('',(0.,0.,0.));
#955=CARTESIAN_POINT('',(0.,0.,0.));
#956=CARTESIAN_POINT('',(0.,0.,0.));
#957=CARTESIAN_POINT('',(0.,0.,0.));
#958=CARTESIAN_POINT('',(0.,0.,0.));
#959=UNCERTAINTY_MEASURE_WITH_UNIT(LENGTH_MEASURE(0.01),#969,
'DISTANCE_ACCURACY_VALUE',
'Maximum model space distance between geometric entities at asserted c
onnectivities');
#960=UNCERTAINTY_MEASURE_WITH_UNIT(LENGTH_MEASURE(0.01),#969,
'DISTANCE_ACCURACY_VALUE',
'Maximum model space distance between geometric entities at asserted c
onnectivities');
#961=UNCERTAINTY_MEASURE_WITH_UNIT(LENGTH_MEASURE(0.01),#969,
'DISTANCE_ACCURACY_VALUE',
'Maximum model space distance between geometric entities at asserted c
onnectivities');
#962=UNCERTAINTY_MEASURE_WITH_UNIT(LENGTH_MEASURE(0.01),#969,
'DISTANCE_ACCURACY_VALUE',
'Maximum model space distance between geometric entities at asserted c
onnectivities');
#963=UNCERTAINTY_MEASURE_WITH_UNIT(LENGTH_MEASURE(0.01),#969,
'DISTANCE_ACCURACY_VALUE',
'Maximum model space distance between geometric entities at asserted c
onnectivities');
#964=(
GEOMETRIC_REPRESENTATION_CONTEXT(3)
GLOBAL_UNCERTAINTY_ASSIGNED_CONTEXT((#959))
GLOBAL_UNIT_ASSIGNED_CONTEXT((#969,#971,#972))
REPRESENTATION_CONTEXT('','3D')
);
#965=(
GEOMETRIC_REPRESENTATION_CONTEXT(3)
GLOBAL_UNCERTAINTY_ASSIGNED_CONTEXT((#960))
GLOBAL_UNIT_ASSIGNED_CONTEXT((#969,#971,#972))
REPRESENTATION_CONTEXT('','3D')
);
#966=(
GEOMETRIC_REPRESENTATION_CONTEXT(3)
GLOBAL_UNCERTAINTY_ASSIGNED_CONTEXT((#961))
GLOBAL_UNIT_ASSIGNED_CONTEXT((#969,#971,#972))
REPRESENTATION_CONTEXT('','3D')
);
#967=(
GEOMETRIC_REPRESENTATION_CONTEXT(3)
GLOBAL_UNCERTAINTY_ASSIGNED_CONTEXT((#962))
GLOBAL_UNIT_ASSIGNED_CONTEXT((#969,#971,#972))
REPRESENTATION_CONTEXT('','3D')
);
#968=(
GEOMETRIC_REPRESENTATION_CONTEXT(3)
GLOBAL_UNCERTAINTY_ASSIGNED_CONTEXT((#963))
GLOBAL_UNIT_ASSIGNED_CONTEXT((#969,#971,#972))
REPRESENTATION_CONTEXT('','3D')
);
#969=(
LENGTH_UNIT()
NAMED_UNIT(*)
SI_UNIT(.MILLI.,.METRE.)
);
#970=(
LENGTH_UNIT()
NAMED_UNIT(*)
SI_UNIT($,.METRE.)
);
#971=(
NAMED_UNIT(*)
PLANE_ANGLE_UNIT()
SI_UNIT($,.RADIAN.)
);
#972=(
NAMED_UNIT(*)
SI_UNIT($,.STERADIAN.)
SOLID_ANGLE_UNIT()
);
#973=SHAPE_DEFINITION_REPRESENTATION(#977,#984);
#974=SHAPE_DEFINITION_REPRESENTATION(#978,#985);
#975=SHAPE_DEFINITION_REPRESENTATION(#979,#986);
#976=SHAPE_DEFINITION_REPRESENTATION(#980,#987);
#977=PRODUCT_DEFINITION_SHAPE('',$,#989);
#978=PRODUCT_DEFINITION_SHAPE('',$,#990);
#979=PRODUCT_DEFINITION_SHAPE('',$,#991);
#980=PRODUCT_DEFINITION_SHAPE('',$,#992);
#981=PRODUCT_DEFINITION_SHAPE($,$,#20);
#982=PRODUCT_DEFINITION_SHAPE($,$,#21);
#983=PRODUCT_DEFINITION_SHAPE($,$,#22);
#984=SHAPE_REPRESENTATION('',(#531,#589,#590,#591),#964);
#985=SHAPE_REPRESENTATION('',(#532),#965);
#986=SHAPE_REPRESENTATION('',(#587),#966);
#987=SHAPE_REPRESENTATION('',(#588),#967);
#988=PRODUCT_DEFINITION_CONTEXT('part definition',#1002,'design');
#989=PRODUCT_DEFINITION('.step 1','Keeb v7',#993,#988);
#990=PRODUCT_DEFINITION('My-keebs_PCB','My-keebs_PCB',#994,#988);
#991=PRODUCT_DEFINITION('Component39','Component39',#995,#988);
#992=PRODUCT_DEFINITION('Component40','Component40',#996,#988);
#993=PRODUCT_DEFINITION_FORMATION('',$,#1004);
#994=PRODUCT_DEFINITION_FORMATION('',$,#1005);
#995=PRODUCT_DEFINITION_FORMATION('',$,#1006);
#996=PRODUCT_DEFINITION_FORMATION('',$,#1007);
#997=PRODUCT_RELATED_PRODUCT_CATEGORY('Keeb v7','Keeb v7',(#1004));
#998=PRODUCT_RELATED_PRODUCT_CATEGORY('My-keebs_PCB','My-keebs_PCB',(#1005));
#999=PRODUCT_RELATED_PRODUCT_CATEGORY('Component39','Component39',(#1006));
#1000=PRODUCT_RELATED_PRODUCT_CATEGORY('Component40','Component40',(#1007));
#1001=APPLICATION_PROTOCOL_DEFINITION('international standard',
'automotive_design',2009,#1002);
#1002=APPLICATION_CONTEXT(
'Core Data for Automotive Mechanical Design Process');
#1003=PRODUCT_CONTEXT('part definition',#1002,'mechanical');
#1004=PRODUCT('.step 1','Keeb v7','KiCad electronic assembly',(#1003));
#1005=PRODUCT('My-keebs_PCB','My-keebs_PCB',$,(#1003));
#1006=PRODUCT('Component39','Component39',$,(#1003));
#1007=PRODUCT('Component40','Component40',$,(#1003));
#1008=PRESENTATION_STYLE_ASSIGNMENT((#1010));
#1009=PRESENTATION_STYLE_ASSIGNMENT((#1011));
#1010=SURFACE_STYLE_USAGE(.BOTH.,#1012);
#1011=SURFACE_STYLE_USAGE(.BOTH.,#1013);
#1012=SURFACE_SIDE_STYLE('',(#1014));
#1013=SURFACE_SIDE_STYLE('',(#1015));
#1014=SURFACE_STYLE_FILL_AREA(#1016);
#1015=SURFACE_STYLE_FILL_AREA(#1017);
#1016=FILL_AREA_STYLE('Steel - Satin',(#1018));
#1017=FILL_AREA_STYLE('Opaque(246,246,243)',(#1019));
#1018=FILL_AREA_STYLE_COLOUR('Steel - Satin',#1020);
#1019=FILL_AREA_STYLE_COLOUR('Opaque(246,246,243)',#1021);
#1020=COLOUR_RGB('Steel - Satin',0.627450980392157,0.627450980392157,0.627450980392157);
#1021=COLOUR_RGB('Opaque(246,246,243)',0.964705882352941,0.964705882352941,
0.952941176470588);
ENDSEC;
END-ISO-10303-21;
